<svg id="Capa_1" enable-background="new 0 0 497 497" height="512" viewBox="0 0 497 497" width="512" xmlns="http://www.w3.org/2000/svg"><g><path d="m468.788 332.568-304.356-304.356c-37.616-37.616-98.604-37.616-136.22 0-37.616 37.616-37.616 98.604 0 136.22l304.355 304.355c37.616 37.616 98.604 37.616 136.22 0 37.617-37.615 37.617-98.603.001-136.219z" fill="#ff889e"/><path d="m468.788 28.212c-37.616-37.616-98.604-37.616-136.22 0l-304.356 304.356c-37.616 37.616-37.616 98.604 0 136.22 37.616 37.616 98.604 37.616 136.22 0l304.355-304.355c37.617-37.617 37.617-98.605.001-136.221z" fill="#ffb2c1"/><path d="m413.366 277.146-193.512-193.512c-8.151 3.547-15.653 8.615-22.128 15.09l-99.002 99.003c-6.475 6.475-11.543 13.976-15.091 22.127l193.512 193.512c8.151-3.547 15.653-8.615 22.128-15.09l99.002-99.003c6.476-6.475 11.544-13.976 15.091-22.127z" fill="#ff748f"/><path d="m398.276 197.727-99.003-99.003c-6.475-6.475-13.976-11.542-22.127-15.09l-193.512 193.512c3.547 8.151 8.615 15.652 15.09 22.127l99.003 99.003c6.475 6.475 13.976 11.542 22.127 15.09l193.512-193.512c-3.547-8.151-8.615-15.652-15.09-22.127z" fill="#ff9db0"/><path d="m377.063 218.94-99.003-99.003c-16.326-16.326-42.794-16.326-59.12 0l-99.003 99.003c-16.326 16.326-16.326 42.794 0 59.12l99.003 99.003c16.326 16.326 42.794 16.326 59.12 0l99.003-99.003c16.325-16.326 16.325-42.794 0-59.12z" fill="#ffc9d3"/><g fill="#ff889e"><circle cx="341.635" cy="104.366" r="17.2"/><circle cx="389.979" cy="56.022" r="17.2"/><circle cx="392.633" cy="155.365" r="17.2"/><circle cx="440.978" cy="107.021" r="17.2"/><circle cx="104.366" cy="341.635" r="17.2"/><circle cx="56.022" cy="389.979" r="17.2"/><circle cx="155.365" cy="392.633" r="17.2"/><circle cx="107.021" cy="440.978" r="17.2"/></g><g><g><path d="m196.773 303.984-9.282-9.281c-2.929-2.929-2.929-7.678 0-10.607s7.678-2.929 10.606 0l9.282 9.281c2.929 2.929 2.929 7.678 0 10.607-2.928 2.928-7.677 2.929-10.606 0z" fill="#423e4f"/></g><g><path d="m293.378 207.379-9.282-9.282c-2.929-2.929-2.929-7.677 0-10.606s7.678-2.929 10.606 0l9.282 9.282c2.929 2.929 2.929 7.677 0 10.606-2.928 2.929-7.678 2.93-10.606 0z" fill="#423e4f"/></g><g><path d="m236.853 270.319c-4.132-.284-7.252-3.864-6.968-7.996.284-4.133 3.853-7.253 7.997-6.969 9.932.682 18.155-7.539 17.473-17.473-.284-4.132 2.836-7.712 6.969-7.996 4.131-.283 7.712 2.836 7.996 6.969 1.305 19.035-14.486 34.768-33.467 33.465z" fill="#423e4f"/></g></g></g></svg>