<svg id="Capa_1" enable-background="new 0 0 497 497" height="512" viewBox="0 0 497 497" width="512" xmlns="http://www.w3.org/2000/svg"><g><path d="m485.651 85.032c-13.332-3.351-24.973-13.975-32.765-22.879-4.802-5.487-8.837-11.573-12.563-17.84-16.326-27.463-52.106-37.506-80.771-20.987-10.283 5.926-18.164 14.582-23.208 24.581l79.443 79.471c4.269 4.271 9.441 7.491 15.079 9.656l.078.03c28.304 10.919 50.249-10.225 63.424-29.244 5.917-8.543 1.362-20.254-8.717-22.788z" fill="#fbc072"/><path d="m317.894 481.679h-138.788l-46.111-43.775c13.873-52.853 49.32-77 49.32-77h132.369s35.447 24.147 49.32 77z" fill="#9ae0eb"/><g><path d="m152.407 455.485c0-42.37 22.758-78.759 55.281-94.581h-25.372s-35.447 24.147-49.32 77l19.421 18.437c-.003-.286-.01-.57-.01-.856z" fill="#64d1e1"/></g><path d="m179.106 437.904v43.775h-51.599c0-16.332 2.098-30.908 5.488-43.775z" fill="#ffd8d2"/><path d="m369.493 481.679h-51.599v-43.775h46.111c3.39 12.866 5.488 27.442 5.488 43.775z" fill="#ffd8d2"/><g fill="#fff"><path d="m197.241 360.904v27.161c0 14.155 11.475 25.63 25.63 25.63 14.155 0 25.63-11.475 25.63-25.63v-27.161z"/><path d="m299.759 360.904v27.161c0 14.155-11.475 25.63-25.63 25.63-14.155 0-25.63-11.475-25.63-25.63v-27.161z"/><circle cx="248.5" cy="431.77" r="6.013"/><circle cx="248.5" cy="458.707" r="6.013"/></g><path d="m65.644 248.87s15.455 47.549-3.081 92.624c-5.827 14.17 8.192 28.526 22.577 23.252 21.952-8.05 35.781-25.309 40.134-62.207v-53.669z" fill="#fbc072"/><path d="m431.356 248.87s-15.455 47.549 3.081 92.624c5.827 14.17-8.192 28.526-22.577 23.252-21.952-8.05-35.781-25.309-40.134-62.207v-53.669z" fill="#fbc072"/><path d="m54.415 214.26c0-107.019 87.066-194.085 194.085-194.085s194.085 87.066 194.085 194.085z" fill="#fccb88"/><g><circle cx="409.35" cy="223.755" fill="#ffcabd" r="45.419"/></g><path d="m205.635 24.954c-16.909 3.827-32.982 9.876-47.909 17.808-4.968-7.814-11.806-14.554-20.278-19.437-28.665-16.518-64.445-6.475-80.771 20.988-3.726 6.268-7.761 12.353-12.563 17.84-7.791 8.904-19.433 19.528-32.765 22.879-10.079 2.534-14.634 14.245-8.716 22.788 13.175 19.019 35.12 40.163 63.424 29.244.026-.01.052-.02.078-.03 1.872-.719 3.685-1.565 5.438-2.516-11.014 24.339-17.157 51.335-17.157 79.742h64.195c-.16-3.496-.252-7.01-.252-10.545-.001-72.627 34.155-137.271 87.276-178.761z" fill="#fbc072"/><path d="m405.357 178.513c0-.001-29.511-37.85-83.684-37.85-33.636 0-53.712-16.868-64.1-29.658-4.67-5.749-13.477-5.749-18.146 0-10.388 12.79-30.464 29.658-64.1 29.658-54.173 0-83.683 37.85-83.684 37.85-2.659 11.717-4.045 23.918-3.991 36.452.382 88.674 74.798 161.536 163.461 160.124 87.63-1.395 158.238-72.867 158.238-160.829-.001-12.287-1.384-24.25-3.994-35.747z" fill="#ffd8d2"/><path d="m180.625 359.766c-38.587-40.646-62.267-95.582-62.267-156.052 0-17.372 1.961-34.285 5.661-50.536-21.197 11.023-32.376 25.335-32.376 25.335-.002.008-.003.015-.005.022-1.258-.125-2.578-.199-3.988-.199-25.084 0-45.419 20.335-45.419 45.419s20.335 45.419 45.419 45.419c3.637 0 6.739-.44 9.41-1.247 14.587 40.402 45.043 73.577 83.565 91.839z" fill="#ffcabd"/><g><g><g><ellipse cx="153.748" cy="248.957" fill="#ff9db0" rx="34.962" ry="27.842"/></g><g><ellipse cx="343.252" cy="248.957" fill="#ff9db0" rx="34.962" ry="27.842"/></g></g></g><g><g><path d="m174.123 229.656c-4.142 0-7.5-3.357-7.5-7.5v-14.292c0-4.143 3.358-7.5 7.5-7.5s7.5 3.357 7.5 7.5v14.292c0 4.142-3.357 7.5-7.5 7.5z" fill="#423e4f"/></g><g><path d="m322.876 229.656c-4.142 0-7.5-3.357-7.5-7.5v-14.292c0-4.143 3.358-7.5 7.5-7.5s7.5 3.357 7.5 7.5v14.292c0 4.142-3.358 7.5-7.5 7.5z" fill="#423e4f"/></g><g><path d="m248.5 238.164c-9.683 0-18.891-4.194-25.263-11.506-2.721-3.123-2.396-7.861.727-10.582 3.123-2.722 7.86-2.395 10.582.727 3.522 4.043 8.609 6.361 13.955 6.361s10.432-2.318 13.954-6.36c2.721-3.125 7.459-3.449 10.582-.728s3.449 7.458.728 10.581c-6.373 7.312-15.581 11.507-25.265 11.507z" fill="#423e4f"/></g></g><path d="m152.407 455.485c0-5.995.461-11.867 1.335-17.582h-20.746c-3.39 12.866-5.488 27.442-5.488 43.775h27.892c-1.951-8.364-2.993-17.141-2.993-26.193z" fill="#ffcabd"/></g></svg>