<svg id="Capa_1" enable-background="new 0 0 512 512" height="512" viewBox="0 0 512 512" width="512" xmlns="http://www.w3.org/2000/svg"><g><path d="m7.5 190.38c0 84.928 66.94 191.455 213.055 267.284 21.116 10.958 46.266 10.958 67.382 0 146.115-75.829 213.055-182.357 213.055-267.284 0-71.185-61.395-128.892-137.13-128.892-42.483 0-80.447 18.163-105.599 46.673-2.144 2.43-5.891 2.43-8.034 0-25.152-28.51-63.116-46.673-105.599-46.673-75.735-.001-137.13 57.707-137.13 128.892z" fill="#eda1ab"/><path d="m135.983 61.769c-71.702 4.197-128.483 60.158-128.483 128.611 0 84.929 66.942 191.459 213.062 267.288 21.091 10.945 46.278 10.945 67.369 0 46.847-24.311 85.541-51.78 116.514-80.679-216.327 9.465-328.825-247.333-268.462-315.22z" fill="#e58996"/><g><path d="m496.14 94.295h-37.732c-1.148 0-2.078-.93-2.078-2.078v-37.732c0-4.617-3.743-8.36-8.36-8.36h-31.45c-4.617 0-8.36 3.743-8.36 8.36v37.732c0 1.148-.93 2.078-2.078 2.078h-37.732c-4.617 0-8.36 3.743-8.36 8.36v31.45c0 4.617 3.743 8.36 8.36 8.36h37.732c1.148 0 2.078.93 2.078 2.078v37.732c0 4.617 3.743 8.36 8.36 8.36h31.45c4.617 0 8.36-3.743 8.36-8.36v-37.732c0-1.148.93-2.078 2.078-2.078h37.732c4.617 0 8.36-3.743 8.36-8.36v-31.45c0-4.617-3.743-8.36-8.36-8.36z" fill="#7ca1dc"/></g><g><path d="m400.491 258.475h-46.722c-1.421 0-2.573-1.152-2.573-2.573v-46.722c0-5.717-4.635-10.352-10.352-10.352h-38.943c-5.717 0-10.352 4.635-10.352 10.352v46.722c0 1.421-1.152 2.573-2.573 2.573h-46.722c-5.717 0-10.352 4.635-10.352 10.352v38.943c0 5.717 4.635 10.352 10.352 10.352h46.722c1.421 0 2.573 1.152 2.573 2.573v46.722c0 5.717 4.635 10.352 10.352 10.352h38.943c5.717 0 10.352-4.635 10.352-10.352v-46.722c0-1.421 1.152-2.573 2.573-2.573h46.722c5.717 0 10.352-4.635 10.352-10.352v-38.943c0-5.717-4.635-10.352-10.352-10.352z" fill="#f6ee86"/></g><g><g fill="#fff"><ellipse cx="80.825" cy="204.168" rx="29.894" ry="23.807"/><ellipse cx="242.864" cy="204.168" rx="29.895" ry="23.807"/></g></g><path d="m105.748 181.251v-12.221c0-4.143-3.358-7.5-7.5-7.5s-7.5 3.357-7.5 7.5v12.221c0 4.142 3.358 7.5 7.5 7.5s7.5-3.358 7.5-7.5zm204.827 255.401c-8.431 4.916-17.21 9.745-26.093 14.354-18.932 9.827-41.538 9.827-60.472 0-67.258-34.904-122.161-79.19-158.773-128.069-32.865-43.877-50.237-89.714-50.237-132.557 0-36.273 17.13-70.365 46.999-93.534 3.273-2.538 3.868-7.25 1.33-10.523-2.54-3.274-7.25-3.869-10.523-1.329-33.559 26.031-52.806 64.442-52.806 105.386 0 46.11 18.407 95.058 53.231 141.55 37.956 50.674 94.621 96.454 163.869 132.392 23.257 12.07 51.029 12.074 74.291 0 9.1-4.723 18.096-9.672 26.738-14.71 3.579-2.087 4.788-6.679 2.702-10.257-2.085-3.579-6.679-4.788-10.256-2.703zm-85.134-275.122c-4.142 0-7.5 3.357-7.5 7.5v12.221c0 4.142 3.358 7.5 7.5 7.5s7.5-3.358 7.5-7.5v-12.221c0-4.142-3.358-7.5-7.5-7.5zm-63.596 34.495c8.593 0 16.765-3.722 22.421-10.211 2.721-3.123 2.396-7.86-.727-10.582-3.123-2.721-7.86-2.396-10.582.727-2.806 3.22-6.856 5.066-11.112 5.066s-8.307-1.847-11.113-5.066c-2.722-3.122-7.458-3.447-10.582-.727-3.123 2.722-3.448 7.459-.727 10.582 5.656 6.49 13.828 10.211 22.422 10.211zm178.999-4.697h-38.943c-9.844 0-17.852 8.008-17.852 17.852v41.796h-41.795c-9.844 0-17.852 8.008-17.852 17.851v38.943c0 9.844 8.008 17.852 17.852 17.852h41.795v41.795c0 9.844 8.008 17.852 17.852 17.852h38.943c9.844 0 17.852-8.008 17.852-17.852v-41.795h41.795c9.844 0 17.852-8.008 17.852-17.852v-38.943c0-9.844-8.008-17.851-17.852-17.851h-41.795v-41.796c0-9.844-8.008-17.852-17.852-17.852zm59.647 74.648c1.573 0 2.852 1.279 2.852 2.852v38.943c0 1.572-1.279 2.852-2.852 2.852h-46.722c-5.554 0-10.073 4.518-10.073 10.073v46.722c0 1.572-1.279 2.852-2.852 2.852h-38.943c-1.573 0-2.852-1.279-2.852-2.852v-46.722c0-5.555-4.519-10.073-10.073-10.073h-46.722c-1.573 0-2.852-1.279-2.852-2.852v-38.943c0-1.572 1.279-2.852 2.852-2.852h46.722c5.554 0 10.073-4.519 10.073-10.073v-46.723c0-1.572 1.279-2.852 2.852-2.852h38.943c1.573 0 2.852 1.279 2.852 2.852v46.723c0 5.555 4.519 10.073 10.073 10.073zm111.509-131.871v-31.449c0-8.745-7.115-15.86-15.86-15.86h-32.31v-32.31c0-8.745-7.115-15.86-15.86-15.86h-31.45c-8.746 0-15.86 7.115-15.86 15.86v3.967c-51.703-12.799-109.048 2.031-146.414 42.956-42.419-46.46-111.693-60.027-169.464-35.233-3.806 1.634-5.568 6.044-3.934 9.851 1.633 3.806 6.043 5.564 9.85 3.935 51.929-22.289 115.506-10.364 153.907 33.161 5.12 5.802 14.148 5.818 19.282 0 33.758-38.263 87.771-52.736 136.773-39.17v12.842h-32.31c-8.746 0-15.86 7.115-15.86 15.86v31.449c0 8.745 7.115 15.86 15.86 15.86h32.31v32.31c0 8.745 7.115 15.86 15.86 15.86h31.45c8.745 0 15.86-7.115 15.86-15.86v-32.31h22.29c18.813 49.84-1.182 109.278-29.58 153.799-26.846 42.09-65.92 80.522-116.137 114.229-3.439 2.309-4.355 6.969-2.047 10.407 2.301 3.428 6.954 4.363 10.407 2.048 100.017-67.136 159.728-156.881 159.728-240.068 0-14.193-2.286-28.088-6.803-41.437 6.014-2.256 10.312-8.047 10.312-14.837zm-15 0c0 .475-.386.86-.86.86-4.594 0-35.938 0-37.732 0-5.281 0-9.578 4.297-9.578 9.578v37.731c0 .475-.386.86-.86.86h-31.45c-.475 0-.86-.386-.86-.86v-37.731c0-5.281-4.296-9.578-9.578-9.578h-37.732c-.475 0-.86-.386-.86-.86v-31.449c0-.475.386-.86.86-.86h37.732c5.281 0 9.578-4.297 9.578-9.578 0-16.557-.001 6.697 0-37.731 0-.475.386-.86.86-.86h31.45c.474 0 .86.386.86.86v37.731c0 5.281 4.297 9.578 9.578 9.578h37.732c.474 0 .86.386.86.86z"/></g></svg>