<svg height="511pt" viewBox="0 -49 511.99957 511" width="511pt" xmlns="http://www.w3.org/2000/svg"><path d="m256 60.074219c-171.832031-167.933594-456.46875 103.636719-8.441406 343.667969 5.265625 2.820312 11.617187 2.820312 16.882812 0 448.027344-240.03125 163.390625-511.601563-8.441406-343.667969zm0 0" fill="#fc595a"/><path d="m157.46875 9.402344c-151.871094-20.800782-277.527344 197.386718 90.089844 394.339844 5.265625 2.820312 11.617187 2.820312 16.882812 0 3.910156-2.097657 7.761719-4.195313 11.558594-6.292969-321.246094-177.523438-247.488281-369.980469-118.53125-388.046875zm0 0" fill="#d94244"/><path d="m141.839844 346.453125c29.699218 22.011719 64.074218 43.523437 102.171875 63.929687 7.441406 3.992188 16.515625 3.992188 23.964843 0 74.484376-39.902343 133.265626-83.050781 174.710938-128.246093 36.753906-40.082031 59.179688-80.78125 66.648438-120.96875 7.964843-42.851563-2.070313-83.183594-28.265626-113.570313-2.703124-3.136718-7.4375-3.488281-10.578124-.785156-3.136719 2.703125-3.488282 7.441406-.785157 10.578125 23.160157 26.871094 31.996094 62.75 24.878907 101.035156-6.949219 37.382813-28.128907 75.589844-62.957032 113.570313-40.300781 43.945312-97.746094 86.058594-170.738281 125.164062-3.066406 1.644532-6.730469 1.644532-9.796875 0-37.453125-20.066406-71.207031-41.179687-100.320312-62.761718-3.328126-2.464844-8.027344-1.769532-10.492188 1.5625-2.464844 3.328124-1.765625 8.023437 1.558594 10.492187zm0 0"/><path d="m97.738281 21.503906c51.300781-15.972656 108.5.464844 153.011719 43.964844 2.914062 2.847656 7.570312 2.847656 10.484375 0 29.164063-28.5 63.414063-45.503906 99.054687-49.171875 32.136719-3.308594 63.570313 4.5625 88.507813 22.164063 3.386719 2.386718 8.066406 1.578124 10.453125-1.804688 2.390625-3.382812 1.582031-8.066406-1.800781-10.453125-27.898438-19.691406-62.949219-28.507813-98.699219-24.828125-36.90625 3.800781-72.296875 20.496094-102.761719 48.40625-47.742187-43.683594-108.078125-59.609375-162.707031-42.601562-47.597656 14.816406-81.535156 51.859374-90.777344 99.09375-6.320312 32.289062-.617187 68.148437 16.496094 103.699218 19.277344 40.050782 52.480469 79.628906 98.6875 117.640625 3.160156 2.597657 7.960938 2.128907 10.558594-1.027343 2.628906-3.199219 2.171875-7.925782-1.027344-10.558594-44.511719-36.617188-76.375-74.484375-94.699219-112.558594-15.699219-32.613281-20.988281-65.230469-15.292969-94.316406 8.164063-41.730469 38.265626-74.5 80.511719-87.648438zm0 0"/><path d="m155.488281 193.0625v16.832031c0 4.144531 3.359375 7.503907 7.5 7.503907 4.144531 0 7.5-3.359376 7.5-7.503907v-16.832031c0-4.140625-3.355469-7.5-7.5-7.5-4.140625 0-7.5 3.359375-7.5 7.5zm0 0"/><path d="m341.496094 193.0625v16.832031c0 4.144531 3.359375 7.503907 7.503906 7.503907 4.140625 0 7.5-3.359376 7.5-7.503907v-16.832031c0-4.140625-3.359375-7.5-7.5-7.5-4.144531 0-7.503906 3.359375-7.503906 7.5zm0 0"/><path d="m273.300781 203.789062c-4.21875 4.824219-10.523437 7.589844-17.308593 7.589844-6.78125 0-13.089844-2.765625-17.304688-7.589844-2.730469-3.121093-7.464844-3.4375-10.585938-.710937-3.117187 2.726563-3.4375 7.464844-.710937 10.582031 7.066406 8.085938 17.492187 12.722656 28.601563 12.722656 11.109374 0 21.535156-4.636718 28.601562-12.722656 2.726562-3.117187 2.410156-7.855468-.710938-10.582031-3.117187-2.726563-7.855468-2.410156-10.582031.710937zm0 0"/></svg>