<svg height="512" viewBox="0 0 64 64" width="512" xmlns="http://www.w3.org/2000/svg"><g id="Filled_outline" data-name="Filled outline"><path d="m23.134 22.8a10.048 10.048 0 1 0 -4.743 3.6l7.609 1.6z" fill="#f98c96"/><path d="m23 47-4-2-2-4h-4a2 2 0 0 0 -2 2v2h-6.107a1.764 1.764 0 0 0 -1.893 2 2.157 2.157 0 0 0 2 2 2 2 0 0 0 0 4 2 2 0 0 0 -1.973 2.336 2.075 2.075 0 0 0 2.08 1.664h.893a2 2 0 0 0 -1.973 2.336 2.075 2.075 0 0 0 2.08 1.664h12.893l4-2h38v-12z" fill="#ffd782"/><path d="m31 17h8v18h-8z" fill="#2d75bb"/><path d="m33 39h4a0 0 0 0 1 0 0v2a2 2 0 0 1 -2 2 2 2 0 0 1 -2-2v-2a0 0 0 0 1 0 0z" fill="#195c85"/><path d="m37 39h-4l-2-4h8z" fill="#50b4f8"/><path d="m29 13h12v4h-12z" fill="#195c85"/><rect fill="#2d75bb" height="4" rx="2" width="10" x="30" y="3"/><path d="m33 7h4v6h-4z" fill="#50b4f8"/><g fill="#87cee9"><path d="m36 21h3v2h-3z"/><path d="m36 25h3v2h-3z"/><path d="m36 29h3v2h-3z"/></g><path d="m20 15h-3v-3h-4v3h-3v4h3v3h4v-3h3z" fill="#b11e48"/><path d="m61 46h-25v-2.184a3 3 0 0 0 2-2.816v-1.764l1.885-3.793a.978.978 0 0 0 .115-.443v-17h1a1 1 0 0 0 1-1v-4a1 1 0 0 0 -1-1h-3v-4a3 3 0 0 0 0-6h-6a3 3 0 0 0 0 6v4h-3a1 1 0 0 0 -1 1v4a1 1 0 0 0 1 1h1v17a.978.978 0 0 0 .115.443l1.885 3.793v1.764a3 3 0 0 0 2 2.816v2.184h-10.764l-3.491-1.745-1.85-3.7a1 1 0 0 0 -.895-.555h-4a3 3 0 0 0 -3 3v1h-5.107a2.763 2.763 0 0 0 -2.893 3 2.959 2.959 0 0 0 .818 1.955 2.96 2.96 0 0 0 -.038 4.045 2.971 2.971 0 0 0 .62 4.529 2.967 2.967 0 0 0 -.4 1.471 3 3 0 0 0 3 3h13a1 1 0 0 0 .447-.1l3.789-1.9h37.764a1 1 0 0 0 1-1v-12a1 1 0 0 0 -1-1zm-25-5a1 1 0 0 1 -2 0v-1h2zm-5-36a1 1 0 0 1 1-1h6a1 1 0 0 1 0 2h-6a1 1 0 0 1 -1-1zm5 3v4h-2v-4zm-6 8v-2h10v2zm2 2h6v3h-2v2h2v2h-2v2h2v2h-2v2h2v3h-6zm1.618 20-1-2h4.764l-1 2zm26.382 20h-37a1 1 0 0 0 -.447.1l-3.789 1.9h-12.764a1 1 0 0 1 0-2h7v-2h-8a1 1 0 0 1 0-2h9v-2h-9a1 1 0 0 1 0-2h10v-2h-10a1.19 1.19 0 0 1 -1-1c0-.833.342-1 .893-1h9.107v-2h-2v-1a1 1 0 0 1 1-1h3.382l1.723 3.447a1 1 0 0 0 .448.448l4 2a1 1 0 0 0 .447.105h11v5h2v-5h24z"/><path d="m20 14h-2v-2a1 1 0 0 0 -1-1h-4a1 1 0 0 0 -1 1v2h-2a1 1 0 0 0 -1 1v4a1 1 0 0 0 1 1h2v2a1 1 0 0 0 1 1h4a1 1 0 0 0 1-1v-2h2a1 1 0 0 0 1-1v-4a1 1 0 0 0 -1-1zm-1 4h-2a1 1 0 0 0 -1 1v2h-2v-2a1 1 0 0 0 -1-1h-2v-2h2a1 1 0 0 0 1-1v-2h2v2a1 1 0 0 0 1 1h2z"/><path d="m15 6a11 11 0 1 0 3.457 21.433l7.337 1.546a1.036 1.036 0 0 0 .206.021 1 1 0 0 0 .875-1.483l-2.575-4.663a10.9 10.9 0 0 0 1.7-5.854 11.013 11.013 0 0 0 -11-11zm3.6 19.419a1.03 1.03 0 0 0 -.206-.022.99.99 0 0 0 -.34.06 9.014 9.014 0 1 1 4.268-3.236 1 1 0 0 0 -.062 1.065l1.812 3.286z"/></g></svg>