<?xml version="1.0" encoding="iso-8859-1"?>
<!-- Generator: Adobe Illustrator 19.0.0, SVG Export Plug-In . SVG Version: 6.00 Build 0)  -->
<svg xmlns="http://www.w3.org/2000/svg" xmlns:xlink="http://www.w3.org/1999/xlink" version="1.1" id="Layer_1" x="0px" y="0px" viewBox="0 0 512 512" style="enable-background:new 0 0 512 512;" xml:space="preserve" width="512" height="512">
<g>
	<g>
		<path style="fill:#FF6E80;" d="M256,78.068L256,78.068c-65.889,0-119.303,53.413-119.303,119.302v204.302h238.605V197.37    C375.303,131.482,321.889,78.068,256,78.068z"/>
		<path style="fill:#E3244C;" d="M271,79.004c-4.914-0.616-9.919-0.936-15-0.936h0c-65.889,0-119.302,53.413-119.302,119.302    v204.302h30V197.37C166.698,136.562,212.192,86.382,271,79.004z"/>
		<path style="fill:#A6C1D8;" d="M375.303,365.381H136.698c-29.353,0-53.148,23.795-53.148,53.148v16.412L256,469.72l172.45-34.78    v-16.412C428.451,389.176,404.655,365.381,375.303,365.381z"/>
		<path style="fill:#91AABE;" d="M113.55,434.94v-16.412c0-29.353,23.795-53.148,53.148-53.148h-30    c-29.353,0-53.148,23.795-53.148,53.148v16.412L256,469.72l15-3.025L113.55,434.94z"/>
		<path style="fill:#D5EBF6;" d="M428.451,434.94H83.55c-29.353,0-53.148,23.795-53.148,53.148v0    c0,9.064,7.348,16.412,16.412,16.412h418.373c9.064,0,16.412-7.348,16.412-16.412v0    C481.599,458.736,457.803,434.94,428.451,434.94z"/>
		<path style="fill:#A6C1D8;" d="M60.402,488.088L60.402,488.088c0-29.353,23.795-53.148,53.148-53.148h-30    c-29.353,0-53.148,23.795-53.148,53.148l0,0c0,9.064,7.348,16.412,16.412,16.412h30C67.749,504.5,60.402,497.152,60.402,488.088z"/>
	</g>
	<g>
		<path d="M186.336,205.554v12.124c0,4.142,3.358,7.5,7.5,7.5s7.5-3.358,7.5-7.5v-12.124c0-4.142-3.358-7.5-7.5-7.5    S186.336,201.412,186.336,205.554z"/>
		<path d="M327.807,198.054c-4.142,0-7.5,3.358-7.5,7.5v12.124c0,4.142,3.358,7.5,7.5,7.5s7.5-3.358,7.5-7.5v-12.124    C335.307,201.412,331.949,198.054,327.807,198.054z"/>
		<path d="M271.708,211.897c-2.639,3.02-6.607,4.751-10.886,4.751s-8.248-1.731-10.886-4.751c-2.726-3.119-7.464-3.437-10.583-0.711    c-3.119,2.726-3.437,7.464-0.711,10.583c5.488,6.278,13.572,9.879,22.18,9.879s16.692-3.601,22.18-9.879    c2.726-3.119,2.408-7.857-0.711-10.583C279.172,208.461,274.434,208.779,271.708,211.897z"/>
		<path d="M263.5,34.719V7.5c0-4.142-3.358-7.5-7.5-7.5s-7.5,3.358-7.5,7.5v27.219c0,4.142,3.358,7.5,7.5,7.5    S263.5,38.861,263.5,34.719z"/>
		<path d="M141.094,85.797c6.184,0.046,9.709-7.285,5.854-12.109l-16.991-21.265c-2.586-3.236-7.304-3.763-10.541-1.178    c-3.236,2.586-3.763,7.305-1.177,10.541c0,0,16.972,21.241,16.991,21.265C136.656,84.837,138.873,85.78,141.094,85.797z"/>
		<path d="M76.91,191.517c3.985,0.904,8.068-1.675,8.97-5.66c0.914-4.04-1.62-8.056-5.66-8.97l-26.548-6.006    c-4.04-0.916-8.056,1.62-8.97,5.66c-0.914,4.04,1.62,8.056,5.66,8.97L76.91,191.517z"/>
		<path d="M370.905,85.87c2.202,0,4.383-0.965,5.864-2.819l16.991-21.265c2.585-3.236,2.059-7.955-1.178-10.541    c-3.236-2.585-7.955-2.058-10.541,1.178c0,0-16.945,21.206-16.991,21.265C361.221,78.481,364.766,85.87,370.905,85.87z"/>
		<path d="M433.427,191.68c0.555,0.013,1.112-0.039,1.662-0.163l26.548-6.006c4.04-0.914,6.574-4.93,5.66-8.97    c-0.914-4.04-4.931-6.576-8.97-5.66l-26.548,6.006c-4.04,0.914-6.574,4.929-5.66,8.969    C426.867,189.161,430.094,191.601,433.427,191.68z"/>
		<path d="M435.95,427.921v-9.393c0-30.901-23.235-56.459-53.148-60.167V197.37c0-25.496-7.539-50.084-21.802-71.107    c-2.326-3.428-6.99-4.321-10.417-1.996s-4.321,6.99-1.996,10.417c12.571,18.528,19.215,40.205,19.215,62.686v160.51H144.198    V197.37c0-61.648,50.155-111.802,111.802-111.802c27.249,0,53.501,9.92,73.921,27.934c3.106,2.741,7.846,2.444,10.586-0.663    c2.74-3.106,2.443-7.846-0.663-10.586C316.682,81.821,286.906,70.568,256,70.568c-69.919,0-126.802,56.883-126.802,126.802    v160.991c-29.913,3.708-53.148,29.267-53.148,60.167v9.393c-29.913,3.708-53.148,29.267-53.148,60.167    c0,13.185,10.727,23.912,23.912,23.912h418.373c13.185,0,23.912-10.727,23.912-23.912    C489.099,457.188,465.864,431.629,435.95,427.921z M465.187,497H46.813c-4.914,0-8.912-3.998-8.912-8.912    c0-25.17,20.478-45.648,45.648-45.648h50.258c4.142,0,7.5-3.358,7.5-7.5s-3.358-7.5-7.5-7.5H91.05v-8.912    c0-25.17,20.478-45.648,45.648-45.648h238.604c25.17,0,45.648,20.478,45.648,45.648v8.912H163.807c-4.142,0-7.5,3.358-7.5,7.5    s3.358,7.5,7.5,7.5H428.45c25.17,0,45.648,20.478,45.648,45.648C474.099,493.002,470.101,497,465.187,497z"/>
	</g>
</g>















</svg>
