<svg height="512pt" viewBox="0 -35 512.00052 512" width="512pt" xmlns="http://www.w3.org/2000/svg"><path d="m336.65625 216.714844c-4.144531 0-7.5-3.359375-7.5-7.5v-12.453125c0-4.140625 3.355469-7.5 7.5-7.5 4.140625 0 7.5 3.359375 7.5 7.5v12.453125c0 4.140625-3.359375 7.5-7.5 7.5zm0 0"/><path d="m175.339844 216.714844c-4.144532 0-7.5-3.359375-7.5-7.5v-12.453125c0-4.140625 3.355468-7.5 7.5-7.5 4.140625 0 7.5 3.359375 7.5 7.5v12.453125c0 4.140625-3.359375 7.5-7.5 7.5zm0 0"/><path d="m395.972656 348.050781c-2.945312-2.910156-2.625-7.785156.417969-10.597656 33.773437-31.222656 59.453125-62.613281 76.328125-93.292969 15.570312-28.316406 23.730469-56.167968 24.253906-82.785156.777344-39.53125-14.847656-75.589844-46.441406-107.183594-21.683594-21.683594-49.21875-34.949218-79.628906-38.355468-29.53125-3.304688-59.648438 3.367187-84.824219 18.796874-18.554687 11.371094-41.605469 11.371094-60.164063 0-42.960937-26.332031-98.289062-26.019531-140.945312.789063-3.507812 2.207031-8.136719 1.148437-10.34375-2.359375-2.203125-3.507812-1.144531-8.136719 2.359375-10.339844 23.414063-14.714844 50.484375-22.570312 78.289063-22.71874975.265624-.00390625.539062-.00390625.808593-.00390625 27.503907 0 54.339844 7.542969 77.671875 21.84375 13.511719 8.28125 30.976563 8.28125 44.488282 0 28.003906-17.164062 61.507812-24.589844 94.332031-20.914062 33.824219 3.789062 64.449219 18.539062 88.566406 42.65625 34.101563 34.101562 51.675781 74.933593 50.832031 118.082031-.570312 29.070312-9.355468 59.253906-26.109375 89.71875-17.65625 32.097656-44.332031 64.761719-79.292969 97.078125-1.441406 1.335937-6.183593 3.949218-10.597656-.414063zm0 0"/><path d="m255.996094 442.953125c-15.453125 0-30.902344-4.394531-44.386719-13.1875-67.121094-43.757813-119.183594-88.472656-154.746094-132.898437-33.042969-41.277344-51.890625-82.265626-56.011719-121.828126-5.027343-48.257812 12.261719-93.714843 50-131.453124 2.929688-2.929688 7.679688-2.929688 10.609376 0 2.925781 2.925781 2.925781 7.675781 0 10.605468-34.433594 34.433594-50.234376 75.683594-45.691407 119.292969 8.097657 77.695313 78.648438 161.96875 204.03125 243.714844 21.984375 14.335937 50.402344 14.335937 72.390625 0 30.003906-19.5625 57.207032-39.496094 80.847656-59.25 3.175782-2.65625 7.90625-2.234375 10.5625.945312 2.65625 3.179688 2.230469 7.90625-.945312 10.5625-24.09375 20.132813-51.773438 40.421875-82.273438 60.308594-13.480468 8.789063-28.933593 13.183594-44.386718 13.1875zm0 0"/><path d="m255.996094 255.96875c-15.636719 0-28.355469-14.445312-28.355469-32.199219 0-17.753906 12.71875-32.199219 28.355469-32.199219 15.636718 0 28.359375 14.445313 28.359375 32.199219 0 17.753907-12.722657 32.199219-28.359375 32.199219zm0-49.398438c-7.363282 0-13.355469 7.714844-13.355469 17.199219 0 9.480469 5.992187 17.199219 13.355469 17.199219 7.367187 0 13.359375-7.71875 13.359375-17.199219 0-9.484375-5.992188-17.199219-13.359375-17.199219zm0 0"/></svg>