<svg id="Capa_1" enable-background="new 0 0 512 512" height="512" viewBox="0 0 512 512" width="512" xmlns="http://www.w3.org/2000/svg"><path d="m260.898 446.194c-3.068 1.644-6.73 1.643-9.798 0-48.247-25.848-90.074-53.268-124.323-81.5-3.197-2.635-7.925-2.18-10.559 1.017-2.635 3.197-2.18 7.924 1.017 10.559 35.009 28.859 77.664 56.834 126.78 83.147 7.504 4.02 16.463 4.021 23.968 0 101.161-54.197 172.33-113.428 211.53-176.047 32.87-52.507 41.13-106.145 23.259-151.032-1.532-3.848-5.894-5.727-9.744-4.194-3.849 1.532-5.727 5.895-4.195 9.744 29.536 74.186-14.832 194.136-227.935 308.306z"/><path d="m94.254 356.198c1.444 1.34 3.274 2.002 5.1 2.002 2.014 0 4.023-.806 5.501-2.399 2.818-3.037 2.64-7.783-.397-10.601-36.988-34.315-62.955-69.474-77.18-104.5-12.282-30.242-15.423-60.344-9.085-87.051 21.216-89.399 142.69-127.003 232.564-39.169 2.915 2.849 7.57 2.849 10.486 0 74.135-72.453 170.151-59.73 213.319-2.066 2.482 3.316 7.183 3.993 10.5 1.51 3.316-2.482 3.992-7.184 1.509-10.5-47.451-63.388-150.464-78.009-230.569-4.636-97.348-89.303-228.828-47.958-252.407 51.396-7.062 29.76-3.679 63.012 9.783 96.161 15.057 37.074 42.267 74.034 80.876 109.853z"/><path d="m177.583 234.808v-16.487c0-4.143-3.358-7.501-7.501-7.501s-7.501 3.358-7.501 7.501v16.487c0 4.143 3.358 7.501 7.501 7.501 4.142 0 7.501-3.359 7.501-7.501z"/><path d="m349.18 234.808v-16.487c0-4.143-3.358-7.501-7.501-7.501s-7.501 3.358-7.501 7.501v16.487c0 4.143 3.358 7.501 7.501 7.501 4.142 0 7.501-3.359 7.501-7.501z"/><path d="m256.13 263.429c4.991 5.272 12.046 8.571 19.861 8.571 15.087 0 27.362-12.275 27.362-27.362 0-4.143-3.358-7.501-7.501-7.501s-7.501 3.358-7.501 7.501c0 6.815-5.544 12.36-12.359 12.36s-12.36-5.545-12.36-12.36c0-4.143-3.358-7.501-7.501-7.501s-7.501 3.358-7.501 7.501c0 6.815-5.544 12.36-12.359 12.36s-12.359-5.545-12.359-12.36c0-4.143-3.358-7.501-7.501-7.501s-7.501 3.358-7.501 7.501c0 15.087 12.274 27.362 27.362 27.362 7.813 0 14.868-3.299 19.858-8.571z"/></svg>