<?xml version="1.0" encoding="iso-8859-1"?>
<!-- Generator: Adobe Illustrator 19.0.0, SVG Export Plug-In . SVG Version: 6.00 Build 0)  -->
<svg version="1.1" id="Capa_1" xmlns="http://www.w3.org/2000/svg" xmlns:xlink="http://www.w3.org/1999/xlink" x="0px" y="0px"
	 viewBox="0 0 512 512" style="enable-background:new 0 0 512 512;" xml:space="preserve">
<path style="fill:#FBC640;" d="M493.188,450.843L363.602,321.257l-9.859-9.859c-5.843-5.843-13.513-8.774-21.173-8.774
	c-7.66,0-15.33,2.931-21.173,8.774c-11.696,11.696-11.696,30.65,0,42.346l9.859,9.859l129.587,129.587
	c11.696,11.696,30.65,11.696,42.346,0C504.884,481.493,504.884,462.539,493.188,450.843z"/>
<g>
	<path style="fill:#EFEFEF;" d="M165.648,10.04c-85.936,0-155.608,69.672-155.608,155.608s69.672,155.608,155.608,155.608
		c42.968,0,81.87-17.418,110.03-45.578c28.16-28.16,45.578-67.062,45.578-110.03C321.256,79.712,251.584,10.04,165.648,10.04z"/>
	<path style="fill:#EFEFEF;" d="M363.602,321.257l-42.346,42.346l-9.859-9.859c-11.696-11.696-11.696-30.65,0-42.346
		c5.843-5.843,13.513-8.774,21.173-8.774c7.66,0,15.33,2.931,21.173,8.774L363.602,321.257z"/>
</g>
<path style="fill:#FF4F4F;" d="M165.648,10.04c85.936,0,155.608,69.672,155.608,155.608c0,42.968-17.418,81.87-45.578,110.03
	s-67.062,45.578-110.03,45.578c-85.936,0-155.608-69.672-155.608-155.608S79.712,10.04,165.648,10.04z M282.103,165.648
	c0-64.311-52.134-116.455-116.455-116.455c-64.311,0-116.455,52.144-116.455,116.455c0,64.322,52.144,116.455,116.455,116.455
	C229.969,282.104,282.103,229.97,282.103,165.648z"/>
<path d="M331.295,165.648c0-91.338-74.31-165.648-165.648-165.648S0,74.31,0,165.648s74.31,165.648,165.648,165.648
	c40.88,0,79.494-14.721,109.811-41.639l22.638,22.638c-3.591,6.081-5.512,13.029-5.512,20.274c0,10.679,4.16,20.719,11.713,28.272
	l9.85,9.85c0.003,0.003,0.006,0.007,0.009,0.01c0.003,0.003,0.007,0.006,0.01,0.009l129.577,129.577
	c7.553,7.553,17.593,11.713,28.272,11.713c10.679,0,20.719-4.16,28.272-11.713C507.84,492.734,512,482.694,512,472.015
	s-4.16-20.719-11.713-28.272L370.701,314.157c-0.002-0.002-0.003-0.003-0.005-0.005l-9.854-9.854
	c-7.554-7.555-17.594-11.715-28.272-11.715c-7.245,0-14.195,1.922-20.275,5.513l-22.638-22.639
	C316.574,245.143,331.295,206.529,331.295,165.648z M20.079,165.648c0-80.267,65.302-145.569,145.569-145.569
	s145.569,65.302,145.569,145.569c0,38.879-15.141,75.432-42.634,102.927c-0.001,0.001-0.003,0.002-0.004,0.004
	c-0.001,0.001-0.002,0.003-0.004,0.004c-27.495,27.492-64.048,42.634-102.927,42.634C85.381,311.217,20.079,245.915,20.079,165.648z
	 M491.922,472.016c0,5.315-2.071,10.313-5.832,14.074c-3.761,3.761-8.758,5.832-14.074,5.832s-10.313-2.071-14.074-5.832
	L335.455,363.602l28.148-28.148l122.488,122.488C489.85,461.703,491.922,466.7,491.922,472.016z M346.644,318.497l2.76,2.76
	l-28.148,28.148l-2.76-2.76c-3.761-3.761-5.832-8.758-5.832-14.074c0-5.314,2.07-10.311,5.83-14.071
	c0.001-0.001,0.002-0.001,0.002-0.002c0.001-0.001,0.002-0.002,0.002-0.003c3.762-3.761,8.758-5.832,14.071-5.832
	C337.884,312.663,342.883,314.734,346.644,318.497z"/>
<path d="M292.142,165.648c0-69.75-56.745-126.495-126.495-126.495S39.153,95.899,39.153,165.648s56.745,126.495,126.495,126.495
	S292.142,235.398,292.142,165.648z M165.648,272.064c-58.678,0-106.416-47.738-106.416-106.416S106.969,59.232,165.648,59.232
	s106.416,47.738,106.416,106.416S224.326,272.064,165.648,272.064z"/>
<path d="M213.174,103.413c-4.403-3.367-10.705-2.528-14.073,1.877c-3.367,4.404-2.528,10.705,1.877,14.073
	c14.552,11.125,22.898,27.996,22.898,46.287c0,5.545,4.495,10.039,10.039,10.039s10.039-4.495,10.039-10.039
	C243.954,141.053,232.735,118.368,213.174,103.413z"/>
<path d="M176.691,84.33c-12.92,0-12.941,20.079,0,20.079C189.61,104.409,189.632,84.33,176.691,84.33z"/>
<g>
</g>
<g>
</g>
<g>
</g>
<g>
</g>
<g>
</g>
<g>
</g>
<g>
</g>
<g>
</g>
<g>
</g>
<g>
</g>
<g>
</g>
<g>
</g>
<g>
</g>
<g>
</g>
<g>
</g>
</svg>
