<svg width="538" height="538" xmlns="http://www.w3.org/2000/svg" xmlns:xlink="http://www.w3.org/1999/xlink" overflow="hidden"><defs><clipPath id="clip0"><path d="M371 91 909 91 909 629 371 629Z" fill-rule="evenodd" clip-rule="evenodd"/></clipPath><clipPath id="clip1"><path d="M371 91 908 91 908 628 371 628Z" fill-rule="evenodd" clip-rule="evenodd"/></clipPath><clipPath id="clip2"><path d="M371 91 908 91 908 628 371 628Z" fill-rule="evenodd" clip-rule="evenodd"/></clipPath><clipPath id="clip3"><path d="M371 91 908 91 908 628 371 628Z" fill-rule="evenodd" clip-rule="evenodd"/></clipPath></defs><g clip-path="url(#clip0)" transform="translate(-371 -91)"><g clip-path="url(#clip1)"><g clip-path="url(#clip2)"><g clip-path="url(#clip3)"><path d="M607.381 291.558 698.618 202.471C709.43 191.898 716.209 177.194 716.391 160.872 716.755 128.233 690.594 101.479 657.95 101.11 639.667 100.907 623.24 109.034 612.251 121.953 601.554 108.795 585.315 100.303 567.026 100.1 534.387 99.736 507.633 125.897 507.263 158.536 507.107 172.663 511.92 185.686 520.068 195.946Z" fill="#83D816"/><path d="M607.381 300.648C607.293 300.648 607.199 300.648 607.121 300.643 604.655 300.575 602.329 299.509 600.664 297.688L513.361 202.081C503.247 189.385 497.997 174.057 498.174 158.437 498.59 121.095 529.101 91 566.355 91 566.62 91 566.87 91 567.125 91.0052 584.061 91.1977 600.087 97.6131 612.397 108.883 624.952 97.8837 641.415 91.6764 658.049 92.0198 695.657 92.4413 725.903 123.374 725.481 160.976 725.289 179.187 717.994 196.238 704.971 208.975L613.729 298.062C612.033 299.722 609.749 300.648 607.381 300.648ZM566.355 109.185C553.212 109.185 540.818 114.237 531.401 123.441 521.848 132.781 516.509 145.279 516.358 158.64 516.223 170.259 519.975 181.206 527.196 190.291L607.756 278.483 692.265 195.967C701.812 186.628 707.156 174.13 707.296 160.779 707.608 133.197 685.428 110.512 657.857 110.205 642.653 109.851 628.86 116.474 619.182 127.848 617.434 129.909 614.957 131.064 612.158 131.048 609.452 131.017 606.903 129.789 605.196 127.692 595.773 116.095 581.824 109.357 566.932 109.19 566.735 109.185 566.542 109.185 566.355 109.185Z"/><path d="M634.557 314.457 727.718 227.389C738.78 217.066 753.776 210.963 770.087 211.53 802.711 212.659 828.242 240.022 827.113 272.645 826.484 290.918 817.612 306.96 804.204 317.34 816.863 328.63 824.605 345.244 823.97 363.517 822.841 396.141 795.484 421.672 762.86 420.548 748.744 420.059 735.955 414.658 726.079 406.047Z" fill="#9BFC1D"/><path d="M764.926 429.675C764.135 429.675 763.349 429.664 762.548 429.633 746.928 429.092 731.86 423.145 720.101 412.895L628.121 320.883C626.373 319.135 625.415 316.762 625.457 314.296 625.504 311.835 626.544 309.493 628.345 307.813L721.511 220.744C734.831 208.304 752.319 201.847 770.399 202.44 788.61 203.069 805.484 210.749 817.904 224.074 830.339 237.389 836.827 254.747 836.198 272.957 835.62 289.883 828.825 305.758 817.264 317.792 827.966 330.602 833.638 346.909 833.055 363.835 831.786 400.615 801.451 429.675 764.926 429.675ZM647.632 314.676 732.505 399.611C740.799 406.812 751.554 411.058 763.167 411.458 790.4 412.348 813.923 390.771 814.886 363.205 815.391 348.314 809.298 334.068 798.147 324.125 796.129 322.324 795.02 319.723 795.119 317.022 795.208 314.322 796.493 311.804 798.637 310.154 810.448 301.007 817.513 287.219 818.029 272.328 818.981 244.767 797.331 221.572 769.775 220.619 756.356 220.104 743.676 224.928 733.926 234.033Z"/><path d="M590.3 319.426 499.532 408.992C488.756 419.607 473.932 426.116 457.61 425.991 424.971 425.746 398.706 399.091 398.945 366.447 399.086 348.163 407.515 331.888 420.637 321.143 407.676 310.201 399.487 293.801 399.622 275.517 399.866 242.878 426.527 216.613 459.166 216.852 473.292 216.962 486.222 222.009 496.326 230.354Z" fill="#9BFC1D"/><path d="M458.073 435.086C457.891 435.086 457.714 435.086 457.537 435.086 419.94 434.805 389.58 403.982 389.856 366.384 389.98 349.448 396.339 333.391 407.572 321.05 396.526 308.541 390.407 292.391 390.532 275.455 390.667 257.234 397.884 240.167 410.866 227.378 423.717 214.714 440.695 207.763 458.719 207.763L459.239 207.763C474.859 207.882 490.083 213.413 502.118 223.346L596.554 312.829C598.349 314.52 599.369 316.866 599.4 319.333 599.426 321.794 598.448 324.166 596.689 325.899L505.921 415.46C493.069 428.129 476.086 435.086 458.073 435.086ZM458.719 225.947C445.508 225.947 433.057 231.046 423.629 240.334 414.107 249.71 408.816 262.234 408.717 275.585 408.608 290.492 415.091 304.561 426.501 314.197 428.572 315.935 429.753 318.51 429.732 321.211 429.716 323.916 428.494 326.466 426.402 328.183 414.841 337.642 408.15 351.618 408.04 366.514 407.837 394.085 430.107 416.693 457.678 416.896L458.073 416.896C471.284 416.896 483.725 411.797 493.147 402.509L577.224 319.556 490.078 236.957C481.597 229.985 470.717 226.036 459.093 225.947 458.968 225.947 458.843 225.947 458.719 225.947Z"/><path d="M612.688 347.023 523.903 438.551C513.377 449.415 507.003 464.296 507.258 480.613 507.779 513.257 534.663 539.288 567.302 538.768 585.586 538.476 601.788 529.907 612.423 516.696 623.469 529.558 639.937 537.613 658.221 537.316 690.86 536.796 716.896 509.917 716.376 477.278 716.152 463.151 710.985 450.263 702.561 440.232Z" fill="#83D816"/><path d="M566.344 547.873C529.246 547.873 498.762 517.992 498.163 480.764 497.882 462.542 504.698 445.305 517.363 432.224L606.159 340.691C607.876 338.927 610.227 337.934 612.688 337.934L612.704 337.934C615.165 337.934 617.527 338.938 619.234 340.717L709.097 433.925C719.55 446.324 725.216 461.507 725.46 477.137 725.757 495.343 718.936 512.586 706.266 525.666 693.586 538.752 676.577 546.12 658.356 546.411 641.425 546.65 625.233 540.703 612.626 529.766 600.378 541.099 584.378 547.592 567.442 547.863 567.083 547.868 566.719 547.873 566.344 547.873ZM612.673 360.109 530.422 444.883C521.135 454.472 516.135 467.111 516.353 480.472 516.785 507.773 539.143 529.683 566.355 529.688 566.62 529.688 566.886 529.683 567.161 529.678 582.053 529.439 595.966 522.628 605.336 510.994 607.033 508.886 609.577 507.643 612.283 507.601 615.123 507.612 617.564 508.72 619.322 510.77 629.052 522.107 643.199 528.31 658.075 528.226 671.431 528.013 683.908 522.612 693.206 513.018 702.494 503.418 707.494 490.78 707.276 477.423 707.099 465.8 703.061 454.962 695.589 446.09Z"/><path d="M752.87 446.137C752.87 446.137 880.169 555.256 880.169 618.906L834.704 618.906C834.704 618.906 861.984 573.441 761.96 482.512Z" fill="#83D816"/><path d="M880.169 628.001 834.704 628.001C831.432 628.001 828.409 626.237 826.796 623.386 825.183 620.534 825.224 617.038 826.91 614.228 827.019 614.01 847.546 572.604 755.846 489.24 754.52 488.032 753.578 486.461 753.141 484.718L744.051 448.348C743.083 444.509 744.717 440.492 748.089 438.405 751.45 436.319 755.773 436.657 758.781 439.238 764.109 443.806 889.264 551.848 889.264 618.911 889.264 623.927 885.195 628.001 880.169 628.001ZM846.89 609.816 870.153 609.816C862.369 569.06 806.759 508.855 768.958 472.995L770.124 477.647C843.237 544.814 849.871 588.863 846.89 609.816Z"/></g></g></g></g></svg>