<?xml version="1.0" encoding="iso-8859-1"?>
<!-- Generator: Adobe Illustrator 19.0.0, SVG Export Plug-In . SVG Version: 6.00 Build 0)  -->
<svg version="1.1" id="Capa_1" xmlns="http://www.w3.org/2000/svg" xmlns:xlink="http://www.w3.org/1999/xlink" x="0px" y="0px"
	 viewBox="0 0 512 512" style="enable-background:new 0 0 512 512;" xml:space="preserve">
<path style="fill:#EFEDEE;" d="M405.819,112.071H106.181c-20.636,0-37.365,16.729-37.365,37.365v325.199
	c0,20.636,16.729,37.365,37.365,37.365h299.638c20.636,0,37.365-16.729,37.365-37.365V149.436
	C443.184,128.8,426.455,112.071,405.819,112.071z"/>
<g>
	<path style="fill:#D4D2D3;" d="M99.722,474.635V149.436c0-20.636,16.729-37.365,37.365-37.365h-30.905
		c-20.636,0-37.365,16.729-37.365,37.365v325.199c0,20.636,16.729,37.365,37.365,37.365h30.905
		C116.451,512,99.722,495.271,99.722,474.635z"/>
	<path style="fill:#D4D2D3;" d="M191.999,112.071v23.86c0,19.542,15.898,35.439,35.439,35.439h57.124
		c19.542,0,35.439-15.898,35.439-35.439v-23.86C320.001,112.071,191.999,112.071,191.999,112.071z"/>
</g>
<path style="fill:#49C3E0;" d="M284.562,0h-57.124c-8.194,0-14.836,6.643-14.836,14.836v121.096c0,8.194,6.643,14.836,14.836,14.836
	h57.124c8.194,0,14.836-6.643,14.836-14.836V14.836C299.397,6.643,292.756,0,284.562,0z"/>
<path style="fill:#00A5C6;" d="M233.206,135.931V14.836C233.206,6.643,239.848,0,248.042,0h-20.604
	c-8.194,0-14.836,6.643-14.836,14.836v121.096c0,8.194,6.643,14.836,14.836,14.836h20.604
	C239.848,150.767,233.206,144.124,233.206,135.931z"/>
<g>
	<circle style="fill:#465059;" cx="256" cy="46.978" r="15.107"/>
	<path style="fill:#465059;" d="M374.803,190.414H137.197c-4.267,0-7.726-3.459-7.726-7.726s3.459-7.726,7.726-7.726h237.605
		c4.267,0,7.726,3.459,7.726,7.726S379.07,190.414,374.803,190.414z"/>
	<path style="fill:#465059;" d="M326.164,439.547H185.836c-4.267,0-7.726-3.459-7.726-7.726c0-4.267,3.459-7.726,7.726-7.726
		h140.326c4.267,0,7.726,3.459,7.726,7.726C333.889,436.088,330.431,439.547,326.164,439.547z"/>
	<path style="fill:#465059;" d="M326.164,477.209H185.836c-4.267,0-7.726-3.459-7.726-7.726c0-4.267,3.459-7.726,7.726-7.726
		h140.326c4.267,0,7.726,3.459,7.726,7.726C333.889,473.749,330.431,477.209,326.164,477.209z"/>
</g>
<path style="fill:#333E40;" d="M349.524,318.672H154.53c0-54.134,16.052-98.175,101.47-98.175c58.883,0,85.578-10.587,85.578-10.587
	S369.074,268.06,349.524,318.672z"/>
<path style="fill:#283234;" d="M229.378,222.176c-62.243,8.519-74.848,48.545-74.848,96.496h30.905
	C185.436,276.368,193.625,239.7,229.378,222.176z"/>
<circle style="fill:#E6B09C;" cx="341.423" cy="318.676" r="21.413"/>
<path style="fill:#FFC4B0;" d="M170.584,318.283c0.173-35.776,37.495-59.655,70.078-44.88c2.461,1.116,4.691,2.276,6.642,3.379
	c5.4,3.055,11.992,3.055,17.393,0c1.95-1.102,4.18-2.262,6.642-3.379c32.584-14.775,69.905,9.104,70.078,44.88
	c0.001,0.13,0.001,0.26,0.001,0.389c0,45.355-38.242,82.123-85.417,82.123s-85.417-36.768-85.417-82.123
	C170.583,318.542,170.584,318.413,170.584,318.283z"/>
<path style="fill:#E6B09C;" d="M247.624,400.397c-33.22-13.966-56.437-45.837-56.437-82.925c0-0.143,0-0.286,0.001-0.43
	c0.104-21.536,12.428-39.158,29.443-48.058c-19.342-0.127-37.37,11.309-45.503,28.817c-1.396-0.344-2.901-0.542-4.544-0.542
	c-11.826,0-21.413,9.587-21.413,21.413c0,11.826,9.587,21.413,21.413,21.413c1.017,0,1.969-0.097,2.892-0.237
	C182.497,372.427,211.81,397.045,247.624,400.397z"/>
<g>
	<path style="fill:#3A484A;" d="M297.722,329.876c-4.267,0-7.726-3.459-7.726-7.726v-6.878c0-4.267,3.459-7.726,7.726-7.726
		c4.267,0,7.726,3.459,7.726,7.726v6.878C305.449,326.417,301.989,329.876,297.722,329.876z"/>
	<path style="fill:#3A484A;" d="M212.217,329.876c-4.267,0-7.726-3.459-7.726-7.726v-6.878c0-4.267,3.459-7.726,7.726-7.726
		c4.267,0,7.726,3.459,7.726,7.726v6.878C219.944,326.417,216.484,329.876,212.217,329.876z"/>
	<path style="fill:#3A484A;" d="M256,334.959c-6.721,0-13.041-2.821-17.341-7.74c-2.808-3.213-2.481-8.093,0.731-10.902
		c3.213-2.809,8.093-2.481,10.902,0.731c1.365,1.562,3.445,2.457,5.707,2.457s4.342-0.896,5.707-2.457
		c2.808-3.214,7.688-3.541,10.902-0.731c3.213,2.808,3.541,7.689,0.731,10.902C269.041,332.138,262.721,334.959,256,334.959z"/>
</g>
<g>
</g>
<g>
</g>
<g>
</g>
<g>
</g>
<g>
</g>
<g>
</g>
<g>
</g>
<g>
</g>
<g>
</g>
<g>
</g>
<g>
</g>
<g>
</g>
<g>
</g>
<g>
</g>
<g>
</g>
</svg>
