<svg id="Capa_1" enable-background="new 0 0 512 512" height="512" viewBox="0 0 512 512" width="512" xmlns="http://www.w3.org/2000/svg"><g><path d="m286 196c-10.932 0-21.457 3.615-30 9.96-8.543-6.346-19.068-9.96-30-9.96-19.527 0-36.967 13.673-42.41 33.251-4.34 15.613-6.729 56.571 64.668 99.596l7.742 4.666 7.742-4.666c71.412-43.034 69.057-83.883 64.729-99.448-5.467-19.665-22.932-33.399-42.471-33.399zm-29.999 102.287c-37.524-24.631-47.287-47.406-43.507-61 1.847-6.646 7.402-11.287 13.506-11.287 5.5 0 12.898 2.513 17.167 9.567l12.833 21.204 12.833-21.204c4.269-7.054 11.667-9.567 17.167-9.567 5.003 0 11.383 3.579 13.567 11.436 3.76 13.521-6.029 36.222-43.566 60.851z"/><path d="m361 0h-210v151h-151v210h151v151h210v-151h151v-210h-151zm121 181v150h-151v151h-150v-151h-151v-150h151v-151h150v151z"/></g></svg>