<svg height="512pt" viewBox="-15 0 512 512" width="512pt" xmlns="http://www.w3.org/2000/svg"><path d="m196.199219 403.679688h-10s-1.511719 1.070312-4 3.210937c-7.371094 6.339844-23.332031 22.097656-33.769531 47.199219-6.621094 15.929687-9.902344 33.179687-9.902344 50.410156h57.671875l20.679687-44.5zm0 0" fill="#e8e8e8"/><path d="m286.558594 403.679688h10s1.507812 1.070312 4 3.210937c7.371094 6.339844 23.328125 22.097656 33.769531 47.199219 6.621094 15.929687 9.898437 33.179687 9.898437 50.410156h-57.667968l-20.679688-44.5zm0 0" fill="#e8e8e8"/><path d="m196.199219 403.679688h90.359375v100.820312h-90.359375zm0 0" fill="#52b2de"/><path d="m268.066406 411.644531c0 14.738281-11.949218 26.6875-26.6875 26.6875-14.742187 0-26.691406-11.949219-26.691406-26.6875 0-14.742187 11.949219-26.691406 26.691406-26.691406 14.738282 0 26.6875 11.949219 26.6875 26.691406zm0 0" fill="#7f6052"/><path d="m448.847656 152.671875-207.46875-29.953125-207.472656 29.953125c-7.957031 22.566406-12.089844 46.546875-12.089844 71.136719h439.121094c0-24.589844-4.128906-48.570313-12.089844-71.136719zm0 0" fill="#31363e"/><path d="m396.457031 70.679688c-41.449219-40.738282-96.527343-63.179688-155.078125-63.179688-58.550781 0-113.632812 22.441406-155.082031 63.179688-7.097656 6.980468-13.660156 14.359374-19.648437 22.089843l174.730468 29.949219 174.730469-29.949219c-5.992187-7.730469-12.550781-15.109375-19.652344-22.089843zm0 0" fill="#394048"/><path d="m96.648438 92.769531c5.988281-7.730469 12.550781-15.109375 19.648437-22.089843 37.890625-37.242188 87.171875-59.179688 140.082031-62.671876-4.972656-.328124-9.972656-.507812-15-.507812-58.550781 0-113.632812 22.441406-155.082031 63.179688-7.097656 6.980468-13.660156 14.359374-19.648437 22.089843l174.730468 29.949219 15-2.570312zm0 0" fill="#31363e"/><path d="m475.257812 253.246094c0 21.148437-17.148437 38.292968-38.296874 38.292968-21.148438 0-38.292969-17.144531-38.292969-38.292968 0-21.148438 17.144531-38.292969 38.292969-38.292969 21.148437 0 38.296874 17.144531 38.296874 38.292969zm0 0" fill="#7f6052"/><path d="m80.3125 122.71875c-18.996094 29.1875-30.011719 63.875-30.011719 101.09375 0 103.738281 85.550781 187.832031 191.078125 187.832031s191.074219-84.09375 191.074219-187.832031c0-37.21875-11.011719-71.90625-30.007813-101.09375zm0 0" fill="#8c6a5a"/><path d="m80.300781 223.8125c0-37.21875 11.015625-71.90625 30.011719-101.09375h-30c-17.535156 26.9375-28.257812 58.566406-29.808594 92.542969-1.523437-.195313-3.089844-.308594-4.710937-.308594-21.148438 0-38.292969 17.144531-38.292969 38.292969 0 21.148437 17.144531 38.292968 38.292969 38.292968 5.964843 0 11.292969-1.363281 15.867187-3.796874 26.609375 72.261718 97.027344 123.902343 179.71875 123.902343 5.046875 0 10.050782-.199219 15-.574219-98.519531-7.523437-176.078125-88.484374-176.078125-187.257812zm0 0" fill="#7f6052"/><path d="m344.234375 285.878906h-24.054687c-4.144532 0-7.5-3.359375-7.5-7.5 0-4.144531 3.355468-7.5 7.5-7.5h24.054687c4.144531 0 7.5 3.355469 7.5 7.5 0 4.140625-3.359375 7.5-7.5 7.5zm0 0" fill="#e98e8f"/><path d="m162.578125 285.878906h-24.054687c-4.144532 0-7.5-3.359375-7.5-7.5 0-4.144531 3.355468-7.5 7.5-7.5h24.054687c4.140625 0 7.5 3.355469 7.5 7.5 0 4.140625-3.359375 7.5-7.5 7.5zm0 0" fill="#e98e8f"/><path d="m448.847656 152.671875h-414.941406c7.5625-21.453125 18.5625-41.640625 32.742188-59.902344h349.460937c14.179687 18.261719 25.179687 38.449219 32.738281 59.902344zm0 0" fill="#d6d6d6"/><path d="m66.648438 92.769531c-14.179688 18.261719-25.179688 38.449219-32.742188 59.902344h30c7.5625-21.453125 18.5625-41.640625 32.742188-59.902344zm0 0" fill="#bfbfbf"/><path d="m296.378906 122.71875c0 30.375-24.625 55-55 55s-55-24.625-55-55 24.625-55 55-55 55 24.625 55 55zm0 0" fill="#e8e8e8"/><path d="m264.378906 122.71875c0 12.703125-10.296875 23-23 23s-23-10.296875-23-23 10.296875-23 23-23 23 10.296875 23 23zm0 0" fill="#52b2de"/><path d="m332.207031 259.921875c4.140625 0 7.5-3.359375 7.5-7.5v-17.664063c0-4.140624-3.359375-7.5-7.5-7.5-4.144531 0-7.5 3.359376-7.5 7.5v17.664063c0 4.140625 3.355469 7.5 7.5 7.5zm0 0"/><path d="m150.550781 259.921875c4.140625 0 7.5-3.359375 7.5-7.5v-17.664063c0-4.140624-3.359375-7.5-7.5-7.5-4.144531 0-7.5 3.359376-7.5 7.5v17.664063c0 4.140625 3.355469 7.5 7.5 7.5zm0 0"/><path d="m262.558594 264.546875c-3.117188-2.726563-7.855469-2.410156-10.582032.710937-2.570312 2.9375-6.429687 4.621094-10.597656 4.621094-4.167968 0-8.03125-1.683594-10.601562-4.621094-2.722656-3.121093-7.460938-3.4375-10.582032-.710937-3.117187 2.726563-3.4375 7.460937-.710937 10.582031 5.417969 6.195313 13.398437 9.75 21.894531 9.75s16.472656-3.554687 21.890625-9.75c2.726563-3.117187 2.40625-7.859375-.710937-10.582031zm0 0"/><path d="m241.378906 92.21875c-16.820312 0-30.5 13.683594-30.5 30.5 0 16.820312 13.679688 30.5 30.5 30.5 16.816406 0 30.5-13.679688 30.5-30.5 0-16.816406-13.683594-30.5-30.5-30.5zm0 46c-8.546875 0-15.5-6.953125-15.5-15.5 0-8.542969 6.953125-15.5 15.5-15.5s15.5 6.957031 15.5 15.5c0 8.546875-6.953125 15.5-15.5 15.5zm0 0"/><path d="m425.261719 297.515625c3.796875 1.007813 7.707031 1.523437 11.699219 1.523437 25.253906 0 45.796874-20.542968 45.796874-45.792968 0-13.089844-5.53125-24.90625-14.367187-33.261719-.402344-23.984375-4.585937-47.449219-12.46875-69.808594-7.863281-22.3125-19.265625-43.175781-33.894531-62.015625-6.1875-7.980468-13.019532-15.664062-20.3125-22.832031-42.863282-42.125-99.804688-65.328125-160.335938-65.328125-24.820312 0-49.207031 3.90625-72.484375 11.609375-3.933593 1.300781-6.066406 5.542969-4.765625 9.476563 1.300782 3.929687 5.542969 6.0625 9.476563 4.761718 21.753906-7.199218 44.558593-10.847656 67.773437-10.847656 56.574219 0 109.78125 21.675781 149.820313 61.027344 3.042969 2.992187 6 6.078125 8.855469 9.242187h-108.652344c-11.65625-15.582031-30.5625-25.050781-50.023438-25.050781-19.550781 0-38.324218 9.40625-50.027344 25.050781h-108.652343c2.855469-3.164062 5.816406-6.25 8.855469-9.242187 15.75-15.480469 33.671874-28.34375 53.265624-38.230469 3.699219-1.863281 5.183594-6.375 3.316407-10.074219-1.867188-3.699218-6.375-5.183594-10.074219-3.316406-20.980469 10.585938-40.164062 24.355469-57.023438 40.925781-7.289062 7.167969-14.125 14.851563-20.316406 22.839844-14.621094 18.828125-26.023437 39.691406-33.894531 62.023437-7.878906 22.347657-12.0625 45.808594-12.464844 69.792969-8.835937 8.351563-14.363281 20.167969-14.363281 33.257813 0 25.25 20.542969 45.792968 45.792969 45.792968 3.992187 0 7.90625-.515624 11.699219-1.523437 20.851562 50.148437 62.300781 89.925781 113.953124 109.109375-8.992187 8.875-21.226562 23.628906-29.941406 44.585938-6.855468 16.488281-10.476562 34.917968-10.476562 53.289062 0 4.140625 3.359375 7.5 7.5 7.5h205.699218c4.144532 0 7.5-3.359375 7.5-7.5 0-18.371094-3.621093-36.800781-10.472656-53.289062-8.71875-20.957032-20.949218-35.710938-29.941406-44.585938 51.652344-19.183594 93.101562-58.960938 113.949219-109.109375zm11.699219-13.476563c-2.179688 0-4.320313-.222656-6.414063-.667968 3.679687-11.304688 6.277344-22.886719 7.800781-34.660156.003906-.042969.007813-.082032.015625-.125 1.027344-8.210938 1.589844-16.496094 1.589844-24.773438 0-.398438 0-.800781-.003906-1.207031.625.058593 1.246093.140625 1.863281.234375 14.75 2.3125 25.941406 15.515625 25.941406 30.40625 0 16.980468-13.8125 30.792968-30.792968 30.792968zm7.722656-75.921874c-1.789063-.308594-3.605469-.515626-5.421875-.605469 0-.023438-.003907-.046875-.007813-.070313-.671875-8.015625-1.84375-15.949218-3.507812-23.777344-1.695313-7.960937-3.890625-15.8125-6.582032-23.492187h14.304688c5.25 16.210937 8.441406 33.027344 9.539062 50.1875-2.667968-1-5.449218-1.753906-8.324218-2.242187zm-155.855469-83.226563c-1.144531 24.6875-22.691406 45.300781-47.40625 45.328125-.015625 0-.03125 0-.042969 0-.015625 0-.027344 0-.039062 0-25.535156-.007812-47.460938-21.953125-47.460938-47.5 0-25.453125 21.988282-47.5 47.5-47.5 26.003906 0 48.648438 23.71875 47.449219 49.671875zm-218.46875-24.621094h112.6875c-.738281 2.035157-1.429687 4.070313-2 6.15625-1.445313 5.296875-2.167969 10.804688-2.167969 16.292969 0 7.5625 1.414063 15.328125 4.167969 22.453125h-138.246094c6.570313-15.9375 15.136719-30.988281 25.558594-44.902344zm-31.070313 59.902344h14.300782c-.097656.277344-.183594.5625-.28125.84375-5.164063 14.957031-8.464844 30.554687-9.800782 46.320313-.003906.058593-.011718.113281-.015624.175781-1.746094.085937-5.355469.59375-5.425782.605469-2.871094.488281-5.652344 1.242187-8.316406 2.242187 1.09375-17.160156 4.289062-33.976563 9.539062-50.1875zm12.917969 123.199219c-2.09375.445312-4.234375.667968-6.414062.667968-16.980469 0-30.792969-13.8125-30.792969-30.792968 0-15.574219 12.28125-29.164063 27.804688-30.640625-.054688 8.667969.476562 17.339843 1.582031 25.9375.007812.066406.015625.132812.023437.199219 1.523438 11.761718 4.121094 23.335937 7.796875 34.628906zm207.15625 134.96875c-2.722656 7.289062-9.757812 12.496094-17.984375 12.496094-8.230468 0-15.261718-5.207032-17.984375-12.496094.226563.019531.460938.035156.691407.054687 11.492187 1 23.089843 1.011719 34.585937 0 .230469-.019531.460937-.035156.691406-.054687zm-51.917969-2.0625c.023438.003906.042969.007812.066407.011718 2.273437 16.664063 16.589843 29.542969 33.867187 29.542969 17.273438 0 31.589844-12.882812 33.863282-29.542969.023437-.003906.042968-.007812.066406-.011718 1.25-.210938 2.5-.425782 3.75-.660156v81.382812h-75.359375v-81.382812c.421875.078124 2.917969.519531 3.746093.660156zm-52.09375 40.691406c9.996094-24.023438 25.523438-39.046875 31.734376-44.390625.261718-.226563.511718-.4375.75-.636719.285156.078125.574218.15625.863281.234375v84.824219h-42.445313c.824219-13.882812 3.929688-27.589844 9.097656-40.03125zm181.152344 40.03125h-42.445312v-84.824219c.289062-.078125.574218-.15625.863281-.234375.234375.199219.484375.410156.746094.636719 6.210937 5.34375 21.742187 20.367187 31.734375 44.390625 5.171875 12.441406 8.277344 26.148438 9.101562 40.03125zm-44.761718-99.757812c-.097657.027343-.199219.058593-.300782.082031-32.578125 9.015625-67.550781 9.019531-100.125.003906-.101562-.03125-.207031-.058594-.308594-.089844-70.941406-19.910156-124.457031-80.78125-132.230468-154.785156-.933594-8.90625-1.1875-17.886719-.78125-26.832031l.007812-.128906c0-18.476563 4.957032-38.085938 11.574219-55.320313h121.773437c1.179688 1.574219 2.441407 3.070313 3.75 4.511719.015626.019531.03125.039062.046876.054687 11.5625 12.921875 28.855468 20.464844 46.167968 20.480469.023438 0 .042969.003906.0625.003906.019532 0 .042969-.003906.066406-.003906 17.441407-.023438 34.464844-7.53125 46.164063-20.480469.011719-.015625.027344-.03125.039063-.046875 1.308593-1.445312 2.574218-2.941406 3.753906-4.519531h57.058594c4.144531 0 7.5-3.359375 7.5-7.5 0-4.144531-3.355469-7.5-7.5-7.5h-48.75c.070312-.191406.132812-.378906.203124-.566406 2.613282-6.980469 3.964844-14.433594 3.964844-21.882813 0-7.554687-1.425781-15.347656-4.167968-22.453125h112.683593c10.421875 13.914063 18.988281 28.96875 25.5625 44.902344h-59.496093c-4.140626 0-7.5 3.355469-7.5 7.5 0 4.140625 3.359374 7.5 7.5 7.5h34.71875c1.152343 3.003906 2.238281 6.035156 3.214843 9.101563 7.507813 23.535156 10.128907 48.578124 7.585938 73.152343-7.761719 74.019531-61.289063 134.90625-132.238281 154.816407zm0 0"/></svg>