<?xml version="1.0" encoding="iso-8859-1"?>
<!-- Generator: Adobe Illustrator 19.0.0, SVG Export Plug-In . SVG Version: 6.00 Build 0)  -->
<svg version="1.1" id="Capa_1" xmlns="http://www.w3.org/2000/svg" xmlns:xlink="http://www.w3.org/1999/xlink" x="0px" y="0px"
	 viewBox="0 0 511.999 511.999" style="enable-background:new 0 0 511.999 511.999;" xml:space="preserve">
<path style="fill:#495059;" d="M85.558,240.363c0,31.787,0,66.781-18.528,87.569c-7.403,8.306-5.138,21.363,4.455,26.998
	c48.806,28.672,108.385,41.412,184.517,41.412s135.711-12.74,184.517-41.412c9.593-5.636,11.857-18.692,4.455-26.998
	c-18.528-20.788-18.528-55.783-18.528-87.569c0-98.371-76.461-178.401-170.443-178.401
	C162.018,61.962,85.558,141.993,85.558,240.363z"/>
<circle style="fill:#F5D7B7;" cx="102.266" cy="240.358" r="27.069"/>
<circle style="opacity:0.15;enable-background:new    ;" cx="102.266" cy="240.358" r="27.069"/>
<circle style="fill:#F5D7B7;" cx="409.732" cy="240.358" r="27.069"/>
<circle style="opacity:0.15;enable-background:new    ;" cx="409.732" cy="240.358" r="27.069"/>
<path style="fill:#7FDBD5;" d="M377.183,504.5c6.372,0,11.451-5.437,10.893-11.783c-5.963-67.708-62.817-120.808-132.074-120.808
	s-126.112,53.1-132.075,120.808c-0.559,6.347,4.521,11.783,10.893,11.783H377.183z"/>
<path style="opacity:0.1;enable-background:new    ;" d="M339.262,468.782h-28.556c-4.143,0-7.5-3.358-7.5-7.5s3.357-7.5,7.5-7.5
	h28.556c4.143,0,7.5,3.358,7.5,7.5C346.762,465.424,343.405,468.782,339.262,468.782z"/>
<path style="fill:#FFFFFF;" d="M205.531,381.861l39.772,76.976c4.487,8.685,16.904,8.689,21.391,0.005
	c11.255-21.784,28.828-55.793,39.775-76.981c-15.558-6.41-32.599-9.953-50.469-9.953C238.13,371.909,221.09,375.452,205.531,381.861
	z"/>
<path style="opacity:0.1;enable-background:new    ;" d="M256,371.909c-29.738,0-57.183,9.797-79.301,26.329
	c23.703,13.096,50.687,20.527,79.301,20.527s55.599-7.43,79.301-20.527C313.185,381.705,285.739,371.909,256,371.909z"/>
<ellipse style="fill:#F5D7B7;" cx="255.999" cy="240.358" rx="153.733" ry="161.693"/>
<g>
	<ellipse style="fill:#F28B74;" cx="159.143" cy="282.077" rx="35.737" ry="28.46"/>
	<ellipse style="fill:#F28B74;" cx="352.855" cy="282.077" rx="35.737" ry="28.46"/>
</g>
<path style="opacity:0.05;enable-background:new    ;" d="M256,78.675c-84.903,0-153.731,72.391-153.731,161.689
	S171.097,402.052,256,402.052c34.493,0,66.334-11.948,91.984-32.125c-161.841,30.241-201.89-58.515-208.459-126.385
	c-0.593-6.125,3.533-11.691,9.566-12.902c43.048-8.645,100.131-29.431,142.217-78.936c12.375,26.435,67.989,89.002,118.348,83.785
	l0,0C407.204,148.446,339.352,78.675,256,78.675z"/>
<path style="fill:#495059;" d="M256,71.644c-86.591,0-149.794,88.896-158.223,137.81c-0.961,5.578,3.231,10.716,8.886,10.961
	c80.513,3.497,152.057-36.545,182.147-67.226c2.419-2.467,6.443-2.234,8.599,0.465c15.964,19.988,65.299,68.907,110.521,71.056
	c5.436,0.258,9.947-4.263,9.579-9.693C411.828,131.175,330.67,71.644,256,71.644z"/>
<path style="fill:#7FDBD5;" d="M348.52,17.488l-18.494-3.339c-48.955-8.838-99.097-8.838-148.05,0l-18.494,3.339
	c-11.655,2.104-19.054,13.682-16.067,25.143l17.459,66.999c1.898,7.281,8.292,12.494,15.806,12.887l50.682,2.647
	c16.415,0.857,32.864,0.857,49.279,0l50.682-2.647c7.514-0.392,13.908-5.606,15.805-12.887l17.459-66.999
	C367.574,31.171,360.174,19.592,348.52,17.488z"/>
<path style="fill:#FFFFFF;" d="M269.05,51.056v-19.41c0-1.781-1.444-3.226-3.225-3.226h-19.646c-1.782,0-3.226,1.444-3.226,3.226
	v19.41c0,1.414-1.146,2.56-2.56,2.56h-19.41c-1.781,0-3.226,1.444-3.226,3.226v19.646c0,1.782,1.444,3.226,3.226,3.226h19.41
	c1.414,0,2.56,1.146,2.56,2.56v19.41c0,1.781,1.444,3.226,3.226,3.226h19.646c1.781,0,3.225-1.444,3.225-3.226V82.273
	c0-1.414,1.146-2.56,2.56-2.56h19.41c1.781,0,3.225-1.444,3.225-3.226V56.841c0-1.781-1.444-3.226-3.225-3.226h-19.411
	C270.195,53.616,269.05,52.47,269.05,51.056z"/>
<path style="opacity:0.1;enable-background:new    ;" d="M180.68,122.517l50.682,2.647c5.339,0.279,10.682,0.457,16.024,0.555
	c-47.222-25.172-54.787-85.197-43.302-114.925c-7.391,0.928-14.764,2.03-22.109,3.356l-18.494,3.339
	c-11.654,2.104-19.054,13.682-16.067,25.143l17.459,66.999C166.771,116.911,173.165,122.125,180.68,122.517z"/>
<path d="M179.975,233.566c-4.143,0-7.5,3.358-7.5,7.5v12.62c0,4.142,3.357,7.5,7.5,7.5c4.143,0,7.5-3.358,7.5-7.5v-12.62
	C187.474,236.924,184.117,233.566,179.975,233.566z M280.972,248.591c-3.125-2.721-7.86-2.396-10.582,0.727
	c-3.633,4.169-8.878,6.56-14.39,6.56c-5.513,0-10.758-2.391-14.39-6.56c-2.723-3.122-7.46-3.447-10.582-0.727
	c-3.122,2.722-3.448,7.459-0.727,10.582c6.482,7.438,15.849,11.703,25.698,11.703c9.85,0,19.216-4.266,25.698-11.703
	C284.42,256.05,284.094,251.312,280.972,248.591z M450.57,322.942c-12.716-14.266-15.551-37.099-16.325-58.223
	c6.215-6.254,10.061-14.863,10.061-24.355c0-10.266-4.649-19.814-12.153-26.264c-6.783-49.848-32.828-94.783-72.072-124.434
	l1.813-6.955c1.044-4.008-1.358-8.104-5.366-9.149c-4.015-1.043-8.105,1.358-9.15,5.366l-7.509,28.812
	c-1.078,4.137-4.67,7.066-8.938,7.289l-50.684,2.646c-16.089,0.841-32.406,0.841-48.497,0l-50.682-2.646
	c-4.27-0.223-7.861-3.152-8.939-7.29l-17.46-66.998c-0.912-3.499-0.342-7.104,1.605-10.151c1.947-3.047,4.98-5.079,8.537-5.721
	l18.494-3.338c48.236-8.708,97.15-8.707,145.386,0l18.494,3.338c3.558,0.642,6.59,2.674,8.537,5.721
	c1.947,3.047,2.518,6.652,1.605,10.152l-0.997,3.827c-1.044,4.008,1.358,8.104,5.367,9.148c4.008,1.042,8.104-1.359,9.148-5.367
	l0.997-3.827c1.948-7.477,0.679-15.499-3.481-22.01c-4.161-6.511-10.908-11.033-18.512-12.404L331.356,6.77
	c-50.004-9.027-100.71-9.027-150.714,0l-18.494,3.338c-7.605,1.373-14.351,5.894-18.512,12.404c-4.16,6.511-5.43,14.533-3.481,22.01
	l11.764,45.142c-39.209,29.626-65.244,74.507-72.056,124.302c-7.517,6.364-12.169,15.854-12.169,26.396
	c0,9.492,3.847,18.101,10.061,24.355c-0.774,21.124-3.609,43.957-16.325,58.223c-4.973,5.579-7.154,13.039-5.986,20.471
	c1.187,7.557,5.648,14.111,12.24,17.984c28.77,16.901,61.273,28.487,98.9,35.236c-28.567,23.634-46.814,57.762-50.13,95.425
	c-0.448,5.084,1.278,10.166,4.738,13.943c3.491,3.812,8.457,5.999,13.624,5.999h15.931c4.143,0,7.5-3.358,7.5-7.5
	s-3.357-7.5-7.5-7.5h-15.931c-1.33,0-2.176-0.707-2.563-1.128c-0.367-0.402-0.968-1.26-0.859-2.498
	c3.451-39.186,25.003-74.1,58.162-94.882c0.055-0.032,0.107-0.069,0.161-0.103c1.18-0.737,2.376-1.453,3.585-2.154
	c4.568,2.031,9.247,3.839,14.017,5.428l31.319,60.616c3.37,6.521,10.022,10.573,17.361,10.573c7.337,0,13.986-4.05,17.354-10.568
	l31.322-60.62c4.771-1.589,9.45-3.397,14.018-5.428c1.205,0.699,2.398,1.413,3.574,2.147c0.059,0.037,0.117,0.077,0.177,0.112
	c33.157,20.782,54.707,55.694,58.157,94.88c0.108,1.236-0.492,2.095-0.859,2.497c-0.387,0.421-1.232,1.128-2.563,1.128H186.172
	c-4.143,0-7.5,3.358-7.5,7.5s3.357,7.5,7.5,7.5h191.01c5.168,0,10.134-2.186,13.624-5.999c3.46-3.778,5.186-8.86,4.738-13.942
	c-3.316-37.663-21.563-71.792-50.13-95.426c37.626-6.75,70.131-18.335,98.901-35.236c6.593-3.872,11.055-10.428,12.24-17.984
	C457.724,335.981,455.542,328.521,450.57,322.942z M416.907,229.854c2.018-1.206,3.76-2.813,5.102-4.716
	c4.494,3.65,7.298,9.223,7.298,15.224c0,8.498-5.453,15.727-13.034,18.427c0.628-6.055,0.96-12.2,0.96-18.427
	C417.232,236.896,417.115,233.378,416.907,229.854z M156.049,105.507l1.567,6.014c2.734,10.492,11.845,17.92,22.672,18.485
	l50.682,2.646c8.306,0.434,16.668,0.651,25.031,0.651c8.363,0,16.726-0.217,25.03-0.651l50.683-2.646
	c10.826-0.565,19.937-7.995,22.671-18.485l1.568-6.015c31.017,25.332,52.278,61.418,59.874,101.597
	c-1.105,0.247-2.158,0.735-3.066,1.466c-1.92,1.544-2.96,3.932-2.781,6.389l0.048,0.567c0.064,0.941-0.74,1.631-1.531,1.688
	c-0.07,0.004-0.139,0.011-0.215,0.006c-17.914-0.854-39.382-10.31-62.081-27.346c-18.914-14.195-34.947-30.904-42.931-40.899
	c-2.374-2.973-5.912-4.788-9.706-4.981c-3.781-0.193-7.462,1.246-10.108,3.945c-27.47,28.01-97.141,68.426-176.465,64.985
	c-0.222-0.01-0.435-0.058-0.652-0.146c0,0-0.001,0-0.001-0.001c-0.542-0.22-0.962-0.684-1.123-1.239
	c-1.053-3.629-4.645-5.906-8.374-5.319c-0.175,0.028-0.346,0.064-0.52,0.094C104.047,166.45,125.236,130.671,156.049,105.507z
	 M90.688,224.549c0.271-0.16,0.53-0.338,0.778-0.53c0.967-0.636,1.99-1.2,3.075-1.66c0.328,0.362,0.684,0.696,1.042,1.029
	c-0.534,5.626-0.814,11.315-0.814,16.975c0,6.227,0.332,12.372,0.96,18.427c-7.583-2.7-13.034-9.93-13.034-18.427
	C82.695,233.892,85.789,228.122,90.688,224.549z M75.283,348.464c-2.704-1.588-4.534-4.278-5.021-7.379
	c-0.474-3.02,0.366-5.919,2.366-8.163c14.025-15.735,18.304-38.002,19.706-59.446c1.863,0.56,3.791,0.963,5.771,1.202
	c8.758,44.434,34.176,82.543,69.066,106.807C132.194,375,101.972,364.143,75.283,348.464z M260.032,455.399
	c-1.145,2.215-3.199,2.454-4.029,2.454c-0.832,0-2.89-0.24-4.036-2.458l-25.122-48.622c9.46,1.821,19.203,2.779,29.156,2.779
	c9.954,0,19.696-0.958,29.156-2.779L260.032,455.399z M256,394.553c-80.632,0-146.231-69.169-146.231-154.189
	c0-4.104,0.154-8.226,0.462-12.32c35.987,0.954,73.722-6.459,109.335-21.517c29.019-12.269,55.565-29.215,73.205-46.686
	c16.417,19.948,63.486,66.291,109.23,71.885c0.154,2.899,0.232,5.788,0.232,8.639C402.233,325.383,336.633,394.553,256,394.553z
	 M441.74,341.085c-0.487,3.102-2.317,5.791-5.022,7.379C410.03,364.143,379.809,375,344.83,381.484
	c34.889-24.264,60.308-62.372,69.066-106.807c1.98-0.239,3.908-0.642,5.771-1.202c1.402,21.444,5.681,43.711,19.706,59.446
	C441.373,335.166,442.213,338.065,441.74,341.085z M332.027,233.566c-4.143,0-7.5,3.358-7.5,7.5v12.62c0,4.142,3.357,7.5,7.5,7.5
	s7.5-3.358,7.5-7.5v-12.62C339.526,236.924,336.169,233.566,332.027,233.566z"/>
<g>
</g>
<g>
</g>
<g>
</g>
<g>
</g>
<g>
</g>
<g>
</g>
<g>
</g>
<g>
</g>
<g>
</g>
<g>
</g>
<g>
</g>
<g>
</g>
<g>
</g>
<g>
</g>
<g>
</g>
</svg>
