<?xml version="1.0" encoding="iso-8859-1"?>
<!-- Generator: Adobe Illustrator 19.0.0, SVG Export Plug-In . SVG Version: 6.00 Build 0)  -->
<svg xmlns="http://www.w3.org/2000/svg" xmlns:xlink="http://www.w3.org/1999/xlink" version="1.1" id="Layer_1" x="0px" y="0px" viewBox="0 0 512 512" style="enable-background:new 0 0 512 512;" xml:space="preserve" width="512" height="512">
<g>
	<g>
		<polygon style="fill:#F5F5F5;" points="327.598,378.776 184.402,378.776 160.429,452.386 184.402,504.5 327.598,504.5     345.053,441.638   "/>
		<path style="fill:#80C9FF;" d="M143.223,378.776c0,0-59.71,22.497-59.71,125.724h45.607l7.5-6.069l7.5,6.069h40.282V378.776    H143.223z"/>
		<path style="fill:#80C9FF;" d="M368.776,378.776h-41.179V504.5h40.282l7.5-5.786l7.5,5.786h45.606    C428.486,401.274,368.776,378.776,368.776,378.776z"/>
		<circle style="fill:#E3A98E;" cx="256" cy="408.097" r="44.289"/>
		<path style="fill:#80C9FF;" d="M26.428,225.78c0-58.662,24.119-113.71,67.915-155.002C137.621,29.972,195.032,7.5,256,7.5    s118.379,22.473,161.658,63.278c43.795,41.293,67.914,96.34,67.914,155.002H26.428z"/>
		<path style="fill:#6DAAD9;" d="M134.342,70.778C172.854,34.467,222.559,12.689,276,8.328c-6.615-0.54-13.284-0.828-20-0.828    c-60.968,0-118.379,22.472-161.658,63.278c-43.795,41.292-67.915,96.34-67.915,155.002h40    C66.428,167.118,90.547,112.07,134.342,70.778z"/>
		<circle style="fill:#E3A98E;" cx="61.726" cy="233.106" r="44.758"/>
		<circle style="fill:#E3A98E;" cx="450.274" cy="233.106" r="44.758"/>
		<path style="fill:#FBBCA1;" d="M256,143.863c-134.314,0-184.565,35.973-193.324,43.217c-2.798,12.486-4.281,25.429-4.281,38.7    c0,102.898,88.47,186.313,197.604,186.313s197.604-83.415,197.604-186.313c0-13.271-1.483-26.214-4.281-38.7    C440.565,179.836,390.314,143.863,256,143.863z"/>
		<g id="XMLID_122_">
			<path style="fill:#F97579;" d="M372.236,274.91h-27.183c-4.143,0-7.5-3.358-7.5-7.5s3.357-7.5,7.5-7.5h27.183     c4.143,0,7.5,3.358,7.5,7.5S376.378,274.91,372.236,274.91z"/>
		</g>
		<g id="XMLID_120_">
			<path style="fill:#F97579;" d="M166.947,274.91h-27.183c-4.142,0-7.5-3.358-7.5-7.5s3.358-7.5,7.5-7.5h27.183     c4.142,0,7.5,3.358,7.5,7.5S171.089,274.91,166.947,274.91z"/>
		</g>
		<path style="fill:#7A5946;" d="M113.833,162.251L113.833,162.251c-30.055,9.571-45.26,20.117-50.464,24.268l-0.751,0.835    c-2.758,12.402-4.223,25.251-4.223,38.426C58.396,225.78,113.833,214.606,113.833,162.251z"/>
		<path style="fill:#7A5946;" d="M398.167,162.251L398.167,162.251c30.055,9.571,45.26,20.117,50.464,24.268l0.751,0.835    c2.758,12.402,4.223,25.251,4.223,38.426C453.604,225.78,398.167,214.606,398.167,162.251z"/>
	</g>
	<g>
		<path d="M366.145,238.075v-19.958c0-4.143-3.358-7.5-7.5-7.5s-7.5,3.357-7.5,7.5v19.958c0,4.142,3.358,7.5,7.5,7.5    S366.145,242.217,366.145,238.075z"/>
		<path d="M160.855,238.075v-19.958c0-4.143-3.358-7.5-7.5-7.5s-7.5,3.357-7.5,7.5v19.958c0,4.142,3.358,7.5,7.5,7.5    S160.855,242.217,160.855,238.075z"/>
		<path d="M268.712,253.224c-3.087,3.533-7.721,5.559-12.712,5.559s-9.625-2.026-12.712-5.559c-2.726-3.119-7.464-3.437-10.583-0.71    c-3.119,2.726-3.437,7.464-0.711,10.583c5.937,6.792,14.687,10.687,24.006,10.687c9.32,0,18.069-3.895,24.006-10.687    c2.726-3.119,2.408-7.856-0.711-10.583C276.176,249.787,271.438,250.105,268.712,253.224z"/>
		<path d="M419.324,330.924c3.448,2.295,8.104,1.361,10.399-2.087c9.098-13.668,16.292-28.279,21.486-43.496    c28.384-0.502,51.323-23.732,51.323-52.234c0-11.967-4.053-23-10.845-31.819c-5.829-51.958-29.608-98.933-68.885-135.966    C378.126,23.198,318.888,0,256,0C197.299,0,141.02,20.539,97.529,57.833c-3.144,2.696-3.507,7.431-0.811,10.576    c2.697,3.145,7.431,3.507,10.576,0.811C148.067,34.255,200.878,15,256,15c59.047,0,114.631,21.747,156.513,61.235    c32.502,30.646,53.638,68.539,61.794,110.464c-3.667-1.901-7.596-3.376-11.611-4.345c-2.657-0.642-5.408-1.114-8.155-1.318    c-0.239-0.019-0.724,0.028-0.915-0.126c-0.071-0.058-0.148-0.119-0.222-0.178c-5.809-4.647-12.279-8.431-18.876-11.836    c-10.936-5.646-22.426-9.921-34.085-13.791c-0.013-0.004-0.027-0.006-0.041-0.01c-25.423-8.095-54.888-13.594-88.047-16.442    c-18.738-1.609-37.551-2.29-56.355-2.29c-18.803,0-37.619,0.681-56.355,2.29c-33.159,2.848-62.624,8.347-88.047,16.442    c-0.013,0.004-0.027,0.006-0.04,0.01c-7.761,2.277-15.424,5.268-22.838,8.486c-6.964,3.023-13.784,6.404-20.274,10.35    c-3.441,2.092-7.052,4.285-10.072,6.969c-0.019,0.016-0.042,0.033-0.061,0.048c-0.287,0.019-0.57,0.055-0.856,0.078    c-3.152,0.257-6.284,0.794-9.338,1.619c-3.534,0.955-7.113,2.329-10.409,4.034c7.028-35.841,23.709-69.134,48.837-97.182    c2.764-3.085,2.504-7.827-0.581-10.591s-7.827-2.504-10.591,0.581c-30.989,34.588-49.994,76.66-55.066,121.793    c-6.79,8.818-10.841,19.849-10.841,31.814c0,28.511,22.954,51.747,51.35,52.235c12.667,36.976,36.785,69.126,68.399,92.685    c-6.095,4.119-13.926,10.561-21.688,20.196C81.481,430.552,76.014,473.861,76.014,504.5c0,4.142,3.358,7.5,7.5,7.5h344.973    c4.142,0,7.5-3.358,7.5-7.5c0-55.51-17.138-88.433-31.515-106.277c-7.739-9.605-15.544-16.037-21.631-20.157    c9.851-7.325,19.049-15.537,27.443-24.585c2.817-3.037,2.639-7.782-0.398-10.599c-3.038-2.817-7.783-2.638-10.599,0.398    c-44.78,48.272-113.654,69.568-178.138,58.292c-78.841-13.797-140.74-73.504-153.027-148.416    c-1.003-6.162-1.68-12.381-1.996-18.617c-0.052-1.016-0.09-2.035-0.124-3.055c5.832-1.831,15.055-5.382,24.303-11.613    c18.721-12.614,29.295-30.546,30.826-52.099c43.507-12.958,89.674-16.407,134.868-16.407c45.214,0,91.342,3.443,134.868,16.407    c1.531,21.553,12.104,39.484,30.826,52.099c9.251,6.233,18.478,9.784,24.309,11.615c-1.064,31.606-10.951,62.278-28.767,89.041    C414.941,323.974,415.876,328.629,419.324,330.924z M220.517,416.695c11.717,1.932,23.607,2.898,35.483,2.898    c11.979,0,23.968-0.977,35.785-2.944c-3.866,16.174-18.443,28.236-35.785,28.236c-17.345,0-31.924-12.065-35.787-28.238    C220.314,416.664,220.416,416.678,220.517,416.695z M118.572,408.434c9.589-12.16,19.282-18.449,24.125-21.085    c10.811,6.782,22.28,12.582,34.205,17.297V497H144.12v-46.445c0-4.143-3.358-7.5-7.5-7.5s-7.5,3.357-7.5,7.5V497H91.127    C92.253,460.358,101.683,429.85,118.572,408.434z M191.902,409.926c4.159,1.294,8.354,2.452,12.581,3.488    c2.67,26.068,24.756,46.472,51.517,46.472c26.76,0,48.843-20.401,51.516-46.467c4.227-1.035,8.423-2.193,12.582-3.486V497H191.902    V409.926z M393.428,408.434c16.889,21.416,26.319,51.924,27.444,88.566H382.88v-46.445c0-4.143-3.358-7.5-7.5-7.5    s-7.5,3.357-7.5,7.5V497h-32.782v-92.354c11.924-4.716,23.392-10.515,34.203-17.296    C374.163,389.995,383.847,396.284,393.428,408.434z M56.26,269.965c-17.963-2.651-31.792-18.17-31.792-36.858    c0-16.977,12.096-32.349,28.722-36.261c-0.05,0.314-0.093,0.63-0.141,0.945C49.378,221.707,50.459,246.468,56.26,269.965z     M82.311,207.167c-5.706,3.901-11.486,6.585-16.089,8.352c0.024-0.391,0.052-0.782,0.079-1.173    c0.423-6.239,1.159-12.479,2.306-18.627c0.269-1.48,0.554-2.957,0.86-4.43c5.056-3.775,16.212-10.938,35.909-18.209    C102.808,187.002,95.081,198.437,82.311,207.167z M455.74,269.965c0.125-0.507,0.231-1.018,0.352-1.525    c4.256-17.879,5.817-36.373,4.612-54.713c-0.371-5.65-1.005-11.287-1.892-16.879c7.388,1.738,14.208,5.823,19.259,11.483    c6.057,6.787,9.462,15.676,9.462,24.775C487.532,251.795,473.703,267.313,455.74,269.965z M406.625,173.079    c19.698,7.272,30.853,14.434,35.909,18.209c0.118,0.568,0.233,1.136,0.345,1.706c1.466,7.433,2.433,14.963,2.899,22.525    c-4.603-1.767-10.382-4.451-16.088-8.352C416.92,198.437,409.193,187.002,406.625,173.079z"/>
	</g>
</g>















</svg>
