<?xml version="1.0" encoding="iso-8859-1"?>
<!-- Generator: Adobe Illustrator 19.0.0, SVG Export Plug-In . SVG Version: 6.00 Build 0)  -->
<svg version="1.1" id="Capa_1" xmlns="http://www.w3.org/2000/svg" xmlns:xlink="http://www.w3.org/1999/xlink" x="0px" y="0px"
	 viewBox="0 0 512 512" style="enable-background:new 0 0 512 512;" xml:space="preserve">
<path style="fill:#7397DA;" d="M383.23,504.5c15.588,0,27.306-14.216,24.344-29.519c-13.776-71.149-76.401-124.874-151.575-124.874
	S118.2,403.832,104.425,474.98c-2.963,15.303,8.756,29.519,24.344,29.519L383.23,504.5L383.23,504.5z"/>
<path style="fill:#A8D1EC;" d="M255.999,485.103c13.355,0,25.967-5.844,34.602-16.033l67.851-80.063
	c-27.258-24.198-63.136-38.9-102.453-38.9s-75.195,14.702-102.453,38.9l67.851,80.063
	C230.032,479.259,242.644,485.103,255.999,485.103z"/>
<path style="opacity:0.15;fill:#003A63;enable-background:new    ;" d="M255.999,430.182c40.716,0,78.513-12.712,109.653-34.36
	c-27.977-28.227-66.771-45.716-109.653-45.716s-81.676,17.489-109.653,45.716C177.487,417.47,215.283,430.182,255.999,430.182z"/>
<path style="fill:#F5D7B7;" d="M181.388,369.31l65.927,77.794c4.546,5.365,12.821,5.365,17.367,0l65.927-77.794
	c-22.116-12.232-47.548-19.204-74.611-19.204S203.505,357.078,181.388,369.31z"/>
<path style="opacity:0.25;fill:#8D4330;enable-background:new    ;" d="M181.388,369.31l50.29,59.342
	c7.967,1.009,16.085,1.53,24.321,1.53c8.237,0,16.354-0.522,24.321-1.53l50.29-59.342c-22.116-12.232-47.548-19.203-74.611-19.203
	S203.505,357.078,181.388,369.31z"/>
<circle style="fill:#F5D7B7;" cx="83.947" cy="227.6" r="34.47"/>
<circle style="opacity:0.25;fill:#8D4330;enable-background:new    ;" cx="83.947" cy="227.6" r="34.47"/>
<circle style="fill:#F5D7B7;" cx="428.049" cy="227.6" r="34.47"/>
<circle style="opacity:0.25;fill:#8D4330;enable-background:new    ;" cx="428.049" cy="227.6" r="34.47"/>
<circle style="fill:#F5D7B7;" cx="255.999" cy="237.6" r="172.05"/>
<g>
	<ellipse style="fill:#F8B8BD;" cx="158.999" cy="272.3" rx="35.789" ry="28.501"/>
	<ellipse style="fill:#F8B8BD;" cx="352.999" cy="272.3" rx="35.789" ry="28.501"/>
</g>
<path style="opacity:0.1;fill:#8D4330;enable-background:new    ;" d="M349.538,382.019
	C246.079,391.203,48.466,251.446,192.476,77.662c-63.579,25.274-108.529,87.356-108.529,159.94
	c0,95.022,77.03,172.052,172.052,172.052C290.493,409.654,322.61,399.496,349.538,382.019z"/>
<path style="fill:#495059;" d="M419.101,199.775c6.088,0.316,10.656-5.484,8.979-11.345
	c-21.418-74.846-90.448-129.791-172.081-129.791c-80.246,0-148.314,53.093-170.949,125.993c-1.669,5.375,1.799,10.995,7.37,11.798
	c66.501,9.59,201.467,1.395,244.9-26.172c2.085-1.323,4.813-1.12,6.599,0.585C358.132,184.415,390.756,198.302,419.101,199.775z"/>
<path style="fill:#7397DA;" d="M101.621,147.215h308.771c-7.178-12.216-15.762-23.51-25.532-33.657H127.151
	C117.381,123.705,108.8,134.999,101.621,147.215z"/>
<circle style="fill:#C7C9CC;" cx="255.999" cy="77.36" r="69.858"/>
<circle style="fill:#FFFFFF;" cx="255.999" cy="77.36" r="26.28"/>
<path d="M289.777,77.358c0-18.626-15.153-33.779-33.778-33.779s-33.778,15.153-33.778,33.779s15.153,33.778,33.778,33.778
	S289.777,95.983,289.777,77.358z M237.221,77.358c0-10.354,8.424-18.779,18.778-18.779c10.354,0,18.778,8.424,18.778,18.779
	s-8.424,18.778-18.778,18.778C245.644,96.136,237.221,87.712,237.221,77.358z M375.027,460.345c0-4.142-3.357-7.5-7.5-7.5h-31.032
	c-4.143,0-7.5,3.358-7.5,7.5s3.357,7.5,7.5,7.5h31.032C371.67,467.845,375.027,464.487,375.027,460.345z M435.259,186.262
	c-4.229-14.742-10.362-29.009-18.138-42.343c-0.173-0.352-0.369-0.689-0.592-1.007c-6.096-10.307-13.174-20.049-21.125-29.002
	c-1.587-1.786-3.221-3.531-4.877-5.255c-0.174-0.201-0.359-0.39-0.552-0.572c-16.354-16.889-35.938-30.724-57.244-40.395
	C327.954,29.583,295.378,0,255.999,0c-17.51,0-34.025,5.707-47.763,16.502c-3.257,2.56-3.822,7.274-1.263,10.531
	c2.56,3.257,7.277,3.821,10.53,1.263C228.573,19.598,241.884,15,255.999,15c33.066,0,60.191,25.875,62.222,58.439
	c0.002,0.025,0.003,0.05,0.006,0.075c0.078,1.273,0.13,2.552,0.13,3.844c0,34.384-27.974,62.357-62.357,62.357
	s-62.357-27.974-62.357-62.357c0-1.283,0.051-2.558,0.128-3.829c0.005-0.047,0.007-0.095,0.011-0.142
	c0.438-7.019,2.023-13.832,4.758-20.299c1.614-3.815-0.171-8.216-3.985-9.829c-3.815-1.615-8.216,0.17-9.829,3.985
	c-2.777,6.563-4.588,13.411-5.462,20.443c-48.692,22.051-85.51,63.629-101.374,114.722c-0.384,1.239-0.611,2.504-0.703,3.771
	c-19.938,3.244-35.208,20.577-35.208,41.418c0,21.554,16.333,39.357,37.272,41.701c8.255,46.157,34.215,86.25,70.57,112.999
	c-27.281,23.706-45.882,55.752-52.757,91.257c-1.84,9.503,0.638,19.235,6.797,26.702C110.016,507.72,119.095,512,128.769,512
	h198.539c4.143,0,7.5-3.358,7.5-7.5s-3.357-7.5-7.5-7.5H128.769c-5.18,0-10.042-2.292-13.339-6.289c-3.3-4-4.627-9.214-3.642-14.305
	c5.651-29.186,20.047-55.799,41.124-76.546l62.762,74.059c10.064,11.873,24.762,18.683,40.324,18.683s30.261-6.81,40.324-18.684
	l62.763-74.059c21.077,20.747,35.473,47.359,41.124,76.546c0.985,5.091-0.342,10.305-3.642,14.305
	c-3.297,3.997-8.159,6.289-13.339,6.289h-21.153c-4.142,0-7.5,3.358-7.5,7.5s3.358,7.5,7.5,7.5h21.153
	c9.674,0,18.753-4.28,24.91-11.744c6.159-7.466,8.637-17.199,6.797-26.702c-6.874-35.505-25.475-67.551-52.756-91.257
	c36.355-26.75,62.314-66.842,70.569-112.999c20.938-2.344,37.272-20.147,37.272-41.701
	C470.021,206.934,454.972,189.695,435.259,186.262z M333.016,84.468c11.665,5.906,22.691,13.176,32.771,21.591h-37.974
	C330.533,99.278,332.324,92.031,333.016,84.468z M319.786,121.059h61.833c0.865,0.931,1.727,1.863,2.57,2.813
	c4.464,5.026,8.621,10.326,12.465,15.844h-94.946C308.728,134.556,314.847,128.245,319.786,121.059z M178.98,84.452
	c0.692,7.569,2.482,14.821,5.204,21.607h-38.123C156.087,97.687,167.118,90.427,178.98,84.452z M130.269,121.059h61.943
	c4.939,7.187,11.058,13.497,18.078,18.657h-95.046C119.814,133.146,124.836,126.915,130.269,121.059z M76.446,237.602
	c0,5.429,0.256,10.798,0.73,16.106c-11.605-3.011-20.2-13.575-20.2-26.109c0-13.611,10.137-24.893,23.257-26.708
	C77.731,212.927,76.446,225.239,76.446,237.602z M284.88,464.221c-7.208,8.504-17.734,13.382-28.881,13.382
	c-11.146,0-21.673-4.877-28.881-13.381l-59.766-70.523c12.117,6.908,25.111,12.445,38.771,16.401l35.47,41.855
	c3.596,4.241,8.846,6.674,14.405,6.674c5.559,0,10.81-2.433,14.405-6.674l35.47-41.855c13.66-3.956,26.654-9.493,38.771-16.401
	L284.88,464.221z M230.185,415.291c8.432,1.22,17.049,1.863,25.814,1.863s17.381-0.643,25.813-1.863l-22.851,26.964
	c-1.012,1.194-2.29,1.373-2.962,1.373c-0.672,0-1.95-0.179-2.962-1.372L230.185,415.291z M255.999,402.154
	c-90.734,0-164.553-73.818-164.553-164.552c0-11.203,1.152-22.359,3.392-33.268c17.522,2.293,39.111,3.448,62.296,3.448
	c21.639-0.001,44.67-1.007,67.063-3.033c31.2-2.823,87.268-10.104,115.793-27.321c16.925,15.232,50.43,28.095,77.743,29.774
	c1.862,9.979,2.819,20.173,2.819,30.4C420.552,328.336,346.733,402.154,255.999,402.154z M420.891,191.191
	c-0.011,0.039-0.021,0.078-0.031,0.118c-0.06,0.187-0.152,0.346-0.246,0.464c-0.126,0.158-0.271,0.272-0.428,0.357
	c-0.035,0.018-0.07,0.035-0.104,0.054c-0.179,0.075-0.376,0.111-0.593,0.101c-27.601-1.434-58.028-15.062-70.391-26.865
	c-4.269-4.074-10.764-4.688-15.797-1.493c-18.555,11.776-58.814,21.21-110.457,25.882c-46.922,4.245-96.487,3.939-129.354-0.802
	c-0.43-0.062-0.721-0.267-0.917-0.482c-0.038-0.047-0.073-0.096-0.112-0.142c-0.021-0.03-0.049-0.061-0.067-0.089
	c-0.157-0.249-0.39-0.766-0.181-1.437c3.496-11.261,8.113-22.011,13.708-32.141h300.088c6.296,11.349,11.312,23.381,14.859,35.778
	C420.945,190.759,420.936,190.989,420.891,191.191z M434.821,253.707c0.474-5.307,0.73-10.677,0.73-16.106
	c0-12.121-1.22-24.207-3.618-35.994c0.141-0.164,0.284-0.326,0.419-0.495c0.031-0.039,0.059-0.08,0.089-0.12
	c12.786,2.106,22.58,13.242,22.58,26.605C455.021,240.132,446.426,250.696,434.821,253.707z M332.136,216.746
	c-13.528,0-24.534,11.006-24.534,24.535c0,4.142,3.357,7.5,7.5,7.5s7.5-3.358,7.5-7.5c0-5.258,4.277-9.535,9.534-9.535
	c5.258,0,9.535,4.277,9.535,9.535c0,4.142,3.357,7.5,7.5,7.5s7.5-3.358,7.5-7.5C356.671,227.752,345.664,216.746,332.136,216.746z
	 M278.996,255.537c-3.124-2.721-7.862-2.396-10.582,0.727c-3.135,3.597-7.66,5.66-12.415,5.66c-4.755,0-9.28-2.063-12.415-5.66
	c-2.722-3.122-7.46-3.447-10.582-0.727c-3.122,2.722-3.448,7.459-0.727,10.582c5.984,6.867,14.631,10.805,23.724,10.805
	s17.739-3.938,23.724-10.805C282.444,262.996,282.118,258.259,278.996,255.537z M179.862,216.746
	c-13.528,0-24.535,11.006-24.535,24.535c0,4.142,3.357,7.5,7.5,7.5s7.5-3.358,7.5-7.5c0-5.258,4.277-9.535,9.535-9.535
	c5.257,0,9.534,4.277,9.534,9.535c0,4.142,3.357,7.5,7.5,7.5c4.142,0,7.5-3.358,7.5-7.5
	C204.397,227.752,193.391,216.746,179.862,216.746z"/>
<g>
</g>
<g>
</g>
<g>
</g>
<g>
</g>
<g>
</g>
<g>
</g>
<g>
</g>
<g>
</g>
<g>
</g>
<g>
</g>
<g>
</g>
<g>
</g>
<g>
</g>
<g>
</g>
<g>
</g>
</svg>
