<svg id="Capa_1" enable-background="new 0 0 512.001 512.001" height="512" viewBox="0 0 512.001 512.001" width="512" xmlns="http://www.w3.org/2000/svg"><g><path d="m155.009 64.968c14.015 14.015 14.015 36.738 0 50.754-14.015 14.015-36.738 14.015-50.754 0s-26.864-49.588-12.848-63.603 49.587-1.166 63.602 12.849z" fill="#a0e7e7"/><path d="m395.716 487.711c12.634 0 22.328-11.22 20.494-23.72-11.477-78.189-78.833-138.214-160.209-138.214s-148.733 60.025-160.21 138.214c-1.835 12.5 7.86 23.72 20.494 23.72z" fill="#a0e7e7"/><path d="m195.271 337.553c-52.306 21.175-91.032 68.884-99.48 126.437-1.835 12.5 7.86 23.72 20.494 23.72h119.365c-39.839-21.424-55.208-113.778-40.379-150.157z" fill="#8ed2e2"/><g fill="#ffbe9d"><path d="m330.419 325.777c-16.406 61.53-47.101 112.053-74.418 112.053s-58.012-50.523-74.418-112.053z"/><ellipse cx="70.502" cy="216.702" rx="63.001" ry="63.001" transform="matrix(.707 -.707 .707 .707 -132.582 113.323)"/><ellipse cx="441.499" cy="216.702" rx="63.001" ry="63.001" transform="matrix(.849 -.528 .528 .849 -47.853 265.855)"/></g><path d="m448.094 212.162c0 97.632-86.003 165.452-192.094 165.452s-192.093-67.819-192.093-165.452 86.003-176.779 192.094-176.779 192.093 79.147 192.093 176.779z" fill="#ffd3bd"/><g><g fill="#eda1ab"><ellipse cx="166.521" cy="242.995" rx="33.016" ry="26.293"/><ellipse cx="345.481" cy="242.995" rx="33.016" ry="26.293"/></g></g><path d="m256.001 24.301c-115.583 0-205.304 88.622-203.183 190.929.237 11.426 12.576 18.599 22.529 12.982 38.171-21.541 84.309-69.923 101.351-134.049h158.607c17.042 64.127 63.181 112.509 101.352 134.05 9.954 5.617 22.291-1.556 22.529-12.984 2.131-102.442-87.804-190.928-203.185-190.928z" fill="#cb9d82"/><path d="m256.001 163.776c107.234 0 146.409-22.56 179.98-38.676-33.673-59.15-100.747-100.799-179.98-100.799s-146.307 41.648-179.98 100.799c33.57 16.116 72.746 38.676 179.98 38.676z" fill="#a0e7e7"/><path d="m76.021 125.1c25.665 12.321 54.608 28.407 114.731 35.3-30.059-28.971-22.555-94.669-2.294-125.472-48.976 15.983-88.881 48.792-112.437 90.172z" fill="#8ed2e2"/><path d="m276.697 97.639h-13.196v-13.196c0-4.143-3.357-7.5-7.5-7.5s-7.5 3.357-7.5 7.5v13.196h-13.196c-4.143 0-7.5 3.357-7.5 7.5s3.357 7.5 7.5 7.5h13.196v13.196c0 4.143 3.357 7.5 7.5 7.5s7.5-3.357 7.5-7.5v-13.196h13.196c4.143 0 7.5-3.357 7.5-7.5s-3.358-7.5-7.5-7.5z" fill="#fff"/><path d="m135.003 99.87c-3.79-1.666-8.216.057-9.884 3.849-1.667 3.792.057 8.217 3.849 9.884 5.002 2.198 23.82 8.947 36.023 11.49 4.063.846 8.029-1.767 8.872-5.813.845-4.055-1.758-8.026-5.813-8.872-10.554-2.199-28.357-8.476-33.047-10.538zm376.94 114.006c-1.327-33.097-25.077-60.32-57.161-66.398-15.942-41.904-46.203-75.87-82.746-98.35-3.528-2.17-8.148-1.07-10.317 2.458-2.171 3.528-1.07 8.147 2.458 10.317 8.699 5.351 16.898 11.35 24.548 17.89-9.656 4.161-18.546 6.957-26.528 8.336-4.082.705-6.819 4.586-6.114 8.667.704 4.075 4.574 6.818 8.667 6.114 10.797-1.865 22.847-5.912 35.877-12.035 9.373 9.506 17.681 19.911 24.708 31.05-31.698 15.433-71.551 34.349-169.334 34.349-97.789 0-137.638-18.917-169.338-34.35 50.88-80.815 157.756-110.951 246.793-75.44 3.846 1.532 8.211-.34 9.745-4.188s-.341-8.21-4.188-9.745c-62.02-24.733-136.035-20.796-196.279 14.91-19.025-9.612-43.646-13.633-56.63-.646-12.504 12.504-8.978 34.833-1.547 51.943-11.51 14.96-20.65 31.149-27.334 48.72-32.086 6.076-55.837 33.301-57.164 66.399-1.676 41.785 33.095 75.701 74.619 73.189 16.185 30.801 41.431 54.788 71.86 71.338-31.236 26.53-52.222 63.999-58.167 104.498-2.5 17.027 10.719 32.31 27.914 32.31h21.824c4.143 0 7.5-3.357 7.5-7.5s-3.357-7.5-7.5-7.5h-21.824c-8.043 0-14.245-7.15-13.072-15.132 5.734-39.068 26.838-75.051 58.132-99.389 9.552 4.237 19.535 7.814 29.856 10.695 19.174 43.867 42.689 68.945 64.801 68.945s45.626-25.079 64.801-68.945c10.321-2.881 20.303-6.458 29.854-10.694 31.294 24.338 52.397 60.321 58.132 99.389 1.174 7.99-5.037 15.132-13.072 15.132h-222.205c-4.143 0-7.5 3.357-7.5 7.5s3.357 7.5 7.5 7.5h222.204c17.212 0 30.41-15.297 27.914-32.31-5.945-40.499-26.93-77.968-58.167-104.498 30.445-16.56 55.683-40.553 71.86-71.338 41.52 2.511 76.296-31.41 74.62-73.191zm-415.232-156.454c3.26-3.261 9.431-4.517 17.383-3.531 4.308.532 8.952 1.716 13.569 3.39-11.65 8.32-22.403 17.798-32.051 28.324-3.884-12.267-3.669-23.415 1.099-28.183zm-81.665 157.056c.926-23.093 15.712-42.56 36.642-50.019-4.541 16.63-6.725 33.774-6.368 50.926.175 8.485 4.918 16.073 12.684 19.923 1.781 12.726 5.08 25.057 9.783 36.819-30.324-1.479-53.968-27.076-52.741-57.649zm45.27.597c-.571-27.53 5.955-55.071 18.893-80.096 15.971 7.778 33.831 16.462 59.412 23.386-18.395 26.685-42.381 49.445-66.961 63.316-4.979 2.81-11.224-.808-11.344-6.606zm195.686 215.255c-13.7 0-31.205-19.044-46.243-49.576 14.959 2.877 30.463 4.359 46.242 4.359 15.78 0 31.284-1.483 46.244-4.36-15.038 30.533-32.543 49.577-46.243 49.577zm-.001-60.217c-86.507 0-168.673-48.621-182.576-133.126 1.928-.487 3.814-1.231 5.608-2.244 27.958-15.778 55.103-42.069 75.13-72.624 25.577 5.476 58.148 9.156 101.837 9.156s76.259-3.68 101.837-9.156c20.029 30.555 47.175 56.848 75.133 72.626 1.794 1.012 3.679 1.756 5.606 2.242-13.892 84.446-95.84 133.126-182.575 133.126zm184.341-148.431c-24.579-13.871-48.566-36.631-66.962-63.317 25.582-6.924 43.442-15.608 59.413-23.387 12.941 25.019 19.467 52.56 18.894 80.095-.121 5.758-6.333 9.436-11.345 6.609zm3.873 50.445c4.702-11.762 8.001-24.091 9.782-36.817 7.757-3.846 12.51-11.427 12.687-19.924.357-17.154-1.826-34.297-6.366-50.926 20.927 7.46 35.712 26.926 36.638 50.017 1.227 30.6-22.446 56.172-52.741 57.65zm-258.453-80.958c-12.801 0-23.215 10.414-23.215 23.215 0 4.143 3.357 7.5 7.5 7.5s7.5-3.357 7.5-7.5c0-4.529 3.686-8.215 8.215-8.215s8.215 3.686 8.215 8.215c0 4.143 3.357 7.5 7.5 7.5s7.5-3.357 7.5-7.5c0-12.801-10.414-23.215-23.215-23.215zm91.836 35.928c-3.125-2.721-7.86-2.396-10.582.727-2.781 3.192-6.797 5.022-11.016 5.022s-8.234-1.83-11.016-5.022c-2.723-3.122-7.46-3.447-10.582-.727-3.122 2.722-3.448 7.459-.727 10.582 5.631 6.461 13.768 10.167 22.324 10.167s16.693-3.706 22.324-10.167c2.723-3.123 2.397-7.86-.725-10.582zm48.641-35.928c-12.801 0-23.215 10.414-23.215 23.215 0 4.143 3.358 7.5 7.5 7.5 4.143 0 7.5-3.357 7.5-7.5 0-4.529 3.686-8.215 8.215-8.215s8.215 3.686 8.215 8.215c0 4.143 3.357 7.5 7.5 7.5s7.5-3.357 7.5-7.5c0-12.801-10.414-23.215-23.215-23.215z"/></g></svg>