<?xml version="1.0" encoding="iso-8859-1"?>
<!-- Generator: Adobe Illustrator 19.0.0, SVG Export Plug-In . SVG Version: 6.00 Build 0)  -->
<svg version="1.1" id="Capa_1" xmlns="http://www.w3.org/2000/svg" xmlns:xlink="http://www.w3.org/1999/xlink" x="0px" y="0px"
	 viewBox="0 0 512 512" style="enable-background:new 0 0 512 512;" xml:space="preserve">
<path style="fill:#8EDBD6;" d="M392.846,504.5c16.766,0,29.37-15.29,26.183-31.75c-14.816-76.525-82.173-134.31-163.028-134.31
	S107.789,396.224,92.973,472.75c-3.187,16.46,9.417,31.75,26.183,31.75H392.846z"/>
<g>
	<path style="fill:#FFFFFF;" d="M164.601,365.843l71.367,83.446c10.521,12.302,29.542,12.302,40.063,0l71.368-83.446
		c-26.217-17.316-57.629-27.403-91.4-27.403S190.818,348.526,164.601,365.843z"/>
	<path style="fill:#FFFFFF;" d="M367.432,463.192h-38.357c-4.142,0-7.5-3.358-7.5-7.5s3.358-7.5,7.5-7.5h38.357
		c4.142,0,7.5,3.358,7.5,7.5S371.574,463.192,367.432,463.192z"/>
</g>
<path style="opacity:0.15;fill:#2C6245;enable-background:new    ;" d="M256.001,424.566c43.792,0,84.445-13.673,117.939-36.956
	c-30.091-30.359-71.816-49.17-117.939-49.17s-87.848,18.81-117.94,49.17C171.555,410.893,212.208,424.566,256.001,424.566z"/>
<circle style="fill:#F5D7B7;" cx="70.947" cy="206.671" r="37.08"/>
<circle style="opacity:0.25;fill:#8D4330;enable-background:new    ;" cx="70.947" cy="206.671" r="37.08"/>
<circle style="fill:#E68392;" cx="60.411" cy="244.881" r="23.494"/>
<circle style="fill:#F5D7B7;" cx="441.054" cy="206.671" r="37.08"/>
<circle style="opacity:0.25;fill:#8D4330;enable-background:new    ;" cx="441.054" cy="206.671" r="37.08"/>
<circle style="fill:#E68392;" cx="451.594" cy="244.881" r="23.494"/>
<circle style="fill:#F5D7B7;" cx="256.003" cy="217.431" r="185.051"/>
<g>
	<ellipse style="fill:#F8B8BD;" cx="151.672" cy="253.991" rx="38.494" ry="30.654"/>
	<ellipse style="fill:#F8B8BD;" cx="360.323" cy="253.991" rx="38.494" ry="30.654"/>
</g>
<path style="opacity:0.1;fill:#8D4330;enable-background:new    ;" d="M356.608,372.763
	c-111.277,9.878-323.822-140.44-168.931-327.356c-68.383,27.183-116.73,93.957-116.73,172.026
	c0,102.203,82.851,185.053,185.053,185.053C293.101,402.486,327.646,391.561,356.608,372.763z"/>
<path style="fill:#495059;" d="M264.616,137.08c36.93,23.787,120.558,84.445,172.316,64.614c11.172-4.28,17.099-16.48,13.71-27.954
	C425.825,89.719,347.959,28.227,256.001,28.227S86.178,89.719,61.36,173.741c-3.389,11.474,2.538,23.673,13.71,27.954
	c51.759,19.831,135.387-40.827,172.316-64.614C252.633,133.701,259.369,133.701,264.616,137.08z"/>
<path style="fill:#8EDBD6;" d="M369.306,105.541l-35.329,4.147c-51.806,6.081-104.146,6.081-155.952,0l-35.329-4.147
	c-8.478-0.995-14.869-8.18-14.869-16.716V41.565c0-12.973,9.66-23.915,22.533-25.523l31.416-3.926c49.291-6.16,99.158-6.16,148.45,0
	l31.416,3.926c12.872,1.609,22.533,12.551,22.533,25.523v47.258C384.175,97.361,377.784,104.545,369.306,105.541z"/>
<g>
	<path style="fill:#FFFFFF;" d="M256.001,88.791c-4.142,0-7.5-3.358-7.5-7.5V35.147c0-4.142,3.358-7.5,7.5-7.5
		c4.142,0,7.5,3.358,7.5,7.5V81.29C263.501,85.433,260.143,88.791,256.001,88.791z"/>
	<path style="fill:#FFFFFF;" d="M279.073,65.719h-46.143c-4.142,0-7.5-3.358-7.5-7.5s3.358-7.5,7.5-7.5h46.143
		c4.142,0,7.5,3.358,7.5,7.5S283.215,65.719,279.073,65.719z"/>
</g>
<path style="opacity:0.15;fill:#2C6245;enable-background:new    ;" d="M333.977,109.688l4.126-0.484
	C245.892,91.672,229.042,43.569,240.709,7.708c-19.687,0.503-39.355,1.961-58.933,4.408l-31.416,3.926
	c-12.872,1.609-22.533,12.551-22.533,25.524v47.258c0,8.536,6.391,15.721,14.869,16.716l35.329,4.147
	C229.831,115.769,282.171,115.769,333.977,109.688z"/>
<path d="M374.932,455.692c0-4.142-3.358-7.5-7.5-7.5h-38.357c-4.142,0-7.5,3.358-7.5,7.5s3.358,7.5,7.5,7.5h38.357
	C371.574,463.192,374.932,459.834,374.932,455.692z M485.629,206.673c0-19.253-12.148-36-30.024-42.13
	c-12.227-36.621-34.191-68.971-63.93-94.103V41.565c0-16.72-12.512-30.892-29.103-32.965l-31.417-3.926
	c-49.869-6.232-100.44-6.232-150.31,0L149.43,8.6c-16.591,2.073-29.103,16.245-29.103,32.965v28.9
	c-11.547,9.767-22.065,20.758-31.273,32.747c-2.523,3.285-1.906,7.993,1.379,10.516c1.362,1.046,2.969,1.553,4.563,1.553
	c2.251,0,4.477-1.009,5.954-2.932c5.931-7.722,12.448-15,19.459-21.766c0.831,11.552,9.747,21.037,21.412,22.406l35.329,4.148
	c26.161,3.071,52.505,4.606,78.85,4.606s52.689-1.536,78.85-4.606l35.329-4.148c11.671-1.37,20.59-10.864,21.413-22.424
	c24.431,23.523,42.232,52.722,51.854,85.3c2.006,6.791-0.897,14.014-6.701,17.585c-0.06,0.032-0.118,0.067-0.178,0.1
	c-0.733,0.437-1.503,0.827-2.321,1.141c-43.363,16.614-115.394-30.882-154.09-56.398c-4.126-2.721-8.023-5.291-11.482-7.519
	c-7.699-4.958-17.649-4.958-25.352,0c-3.458,2.227-7.355,4.797-11.48,7.518c-38.697,25.517-110.727,73.012-154.091,56.398
	c-0.818-0.313-1.587-0.703-2.318-1.139c-0.06-0.034-0.119-0.069-0.181-0.102c-5.804-3.571-8.707-10.794-6.701-17.585
	c3.559-12.051,8.325-23.823,14.166-34.988c1.92-3.67,0.501-8.202-3.169-10.122c-3.673-1.921-8.203-0.501-10.122,3.169
	c-5.142,9.83-9.497,20.101-13.015,30.613c-17.885,6.125-30.041,22.877-30.041,42.136c0,8.336,2.365,16.519,6.737,23.551
	c-2.355,4.368-3.695,9.36-3.695,14.661c0,17.09,13.904,30.994,30.995,30.994c3.961,0,7.83-0.752,11.431-2.182
	c12.338,40.303,37.571,75.019,70.866,99.33c-29.54,25.459-49.683,60-57.098,98.298c-1.946,10.054,0.675,20.351,7.192,28.251
	C99.314,507.472,108.92,512,119.154,512h211.629c4.142,0,7.5-3.358,7.5-7.5c0-4.142-3.358-7.5-7.5-7.5H119.156
	c-5.741,0-11.13-2.541-14.784-6.97c-3.657-4.433-5.128-10.212-4.036-15.854c7.034-36.328,26.616-68.963,55.338-92.453
	c7.323,4.488,14.97,8.494,22.892,11.988l51.702,60.453c6.442,7.532,15.821,11.852,25.731,11.852c9.911,0,19.29-4.32,25.731-11.852
	l51.702-60.452c7.923-3.494,15.57-7.5,22.892-11.988c28.723,23.488,48.304,56.124,55.338,92.452
	c1.092,5.643-0.379,11.421-4.036,15.854c-3.654,4.43-9.043,6.97-14.784,6.97h-26.365c-4.142,0-7.5,3.358-7.5,7.5
	c0,4.142,3.358,7.5,7.5,7.5h26.365c10.235,0,19.841-4.529,26.354-12.424c6.517-7.9,9.138-18.197,7.192-28.251
	c-7.415-38.296-27.558-72.837-57.098-98.297c33.296-24.31,58.529-59.026,70.866-99.33c3.601,1.43,7.47,2.182,11.431,2.182
	c17.09,0,30.995-13.904,30.995-30.994c0-5.3-1.34-10.293-3.694-14.661C483.264,223.192,485.629,215.01,485.629,206.673z
	 M376.675,88.825c0,4.731-3.543,8.715-8.243,9.267l-35.329,4.147c-51.16,6.005-103.043,6.005-154.203,0l-35.329-4.147
	c-4.7-0.552-8.243-4.536-8.243-9.267V41.565c0-9.171,6.862-16.944,15.963-18.081l31.417-3.926C207.023,16.52,231.511,15,256.001,15
	c24.488,0,48.977,1.52,73.294,4.559l31.417,3.925c9.1,1.137,15.962,8.911,15.962,18.081v47.259H376.675z M41.372,206.673
	c0-9.533,4.491-18.135,11.695-23.58c0.769,8.009,4.689,15.489,10.874,20.646c-0.245,3.457-0.392,6.904-0.453,10.318
	c-1.023-0.103-2.05-0.166-3.078-0.166c-6.063,0-11.721,1.757-16.503,4.778C42.242,214.936,41.372,210.886,41.372,206.673z
	 M60.409,260.88c-8.819,0-15.995-7.175-15.995-15.994c0-8.819,7.175-15.994,15.995-15.994c1.163,0,2.301,0.138,3.412,0.38
	c0.617,10.127,2.02,20.044,4.149,29.692C65.665,260.205,63.08,260.88,60.409,260.88z M270.333,444.415
	c-3.588,4.195-8.812,6.602-14.332,6.602c-5.52,0-10.744-2.406-14.332-6.601l-34.912-40.82c15.725,4.163,32.228,6.392,49.244,6.392
	c17.016,0,33.519-2.229,49.244-6.392L270.333,444.415z M433.43,223.752c0,0.008-0.001,0.016-0.001,0.023
	c-3.353,94.976-81.648,171.21-177.428,171.21S81.927,318.752,78.572,223.776c0-0.008-0.001-0.016-0.001-0.023
	c-0.074-2.099-0.125-4.203-0.125-6.319c0-2.22,0.055-4.467,0.142-6.723c21.608,5.835,48.637,1.253,82.34-13.924
	c29.81-13.422,58.339-32.235,79.171-45.971c4.091-2.698,7.956-5.246,11.345-7.429c2.767-1.782,6.342-1.782,9.107-0.001
	c3.391,2.184,7.255,4.732,11.347,7.431c20.831,13.736,49.362,32.548,79.171,45.971c24.291,10.937,45.114,16.374,62.94,16.373
	c6.908,0,13.364-0.822,19.399-2.451c0.087,2.257,0.142,4.504,0.142,6.724C433.554,219.549,433.504,221.653,433.43,223.752z
	 M451.592,260.88c-2.671,0-5.255-0.674-7.562-1.916c2.129-9.648,3.532-19.565,4.149-29.692c1.112-0.242,2.249-0.38,3.412-0.38
	c8.819,0,15.995,7.175,15.995,15.994C467.587,253.704,460.411,260.88,451.592,260.88z M468.096,218.668
	c-4.783-3.021-10.44-4.778-16.504-4.778c-1.028,0-2.055,0.063-3.078,0.166c-0.062-3.412-0.208-6.859-0.453-10.318
	c6.185-5.157,10.105-12.637,10.874-20.645c7.204,5.445,11.695,14.047,11.695,23.58C470.629,210.886,469.76,214.936,468.096,218.668z
	 M337.891,202.318c-4.142,0-7.5,3.358-7.5,7.5v13.593c0,4.142,3.358,7.5,7.5,7.5c4.142,0,7.5-3.358,7.5-7.5v-13.593
	C345.391,205.676,342.033,202.318,337.891,202.318z M174.11,202.318c-4.142,0-7.5,3.358-7.5,7.5v13.593c0,4.142,3.358,7.5,7.5,7.5
	c4.142,0,7.5-3.358,7.5-7.5v-13.593C181.61,205.676,178.252,202.318,174.11,202.318z M282.518,218.36
	c-3.123-2.721-7.861-2.396-10.582,0.727c-4.022,4.616-9.83,7.263-15.935,7.263s-11.913-2.647-15.936-7.263
	c-2.721-3.124-7.458-3.448-10.582-0.727c-3.123,2.721-3.448,7.459-0.727,10.581c6.872,7.886,16.802,12.409,27.244,12.409
	c10.442,0,20.372-4.523,27.244-12.409C285.967,225.819,285.641,221.081,282.518,218.36z"/>
<g>
</g>
<g>
</g>
<g>
</g>
<g>
</g>
<g>
</g>
<g>
</g>
<g>
</g>
<g>
</g>
<g>
</g>
<g>
</g>
<g>
</g>
<g>
</g>
<g>
</g>
<g>
</g>
<g>
</g>
</svg>
