<?xml version="1.0" encoding="iso-8859-1"?>
<!-- Generator: Adobe Illustrator 19.0.0, SVG Export Plug-In . SVG Version: 6.00 Build 0)  -->
<svg xmlns="http://www.w3.org/2000/svg" xmlns:xlink="http://www.w3.org/1999/xlink" version="1.1" id="Layer_1" x="0px" y="0px" viewBox="0 0 512 512" style="enable-background:new 0 0 512 512;" xml:space="preserve" width="512" height="512">
<g>
	<g>
		<path style="fill:#FC7176;" d="M375.38,504.5H136.62l-48.94-43.95c13.56-65.96,55.54-81.77,55.54-81.77h225.56    c0,0,41.98,15.81,55.54,81.77L375.38,504.5z"/>
		<circle style="fill:#E3A98E;" cx="256" cy="408.097" r="44.289"/>
		<path style="fill:#FBBCA1;" d="M428.49,504.5h-53.11v-43.95h48.94C426.93,473.26,428.49,487.82,428.49,504.5z"/>
		<path style="fill:#FBBCA1;" d="M83.51,504.5h53.11v-43.95H87.68C85.07,473.26,83.51,487.82,83.51,504.5z"/>
		<path style="fill:#FA9E25;" d="M485.572,225.78c0,0,16.735,126.244-84.252,126.244H110.68    c-100.987,0-84.252-126.244-84.252-126.244H485.572z"/>
		<path style="fill:#FA9E25;" d="M26.428,225.78c0-58.662,24.119-113.71,67.915-155.002C137.621,29.973,195.032,7.5,256,7.5    s118.379,22.473,161.658,63.278c43.795,41.293,67.914,96.34,67.914,155.002H26.428z"/>
		<circle style="fill:#E3A98E;" cx="61.726" cy="233.106" r="44.758"/>
		<circle style="fill:#E3A98E;" cx="450.274" cy="233.106" r="44.758"/>
		<path style="fill:#FBBCA1;" d="M449.614,188.354c-0.061-0.006-113.037-10.395-172.472-68.105    c-11.795-11.452-30.49-11.452-42.285,0c-59.435,57.71-172.411,68.1-172.472,68.105c-2.615,12.091-3.99,24.607-3.99,37.426    c0,102.898,88.47,186.313,197.604,186.313s197.604-83.415,197.604-186.313C453.604,212.961,452.23,200.445,449.614,188.354z"/>
		<g id="XMLID_112_">
			<path style="fill:#F97579;" d="M372.236,274.91h-27.183c-4.143,0-7.5-3.358-7.5-7.5s3.357-7.5,7.5-7.5h27.183     c4.143,0,7.5,3.358,7.5,7.5S376.378,274.91,372.236,274.91z"/>
		</g>
		<g id="XMLID_110_">
			<path style="fill:#F97579;" d="M166.947,274.91h-27.183c-4.143,0-7.5-3.358-7.5-7.5s3.357-7.5,7.5-7.5h27.183     c4.143,0,7.5,3.358,7.5,7.5S171.089,274.91,166.947,274.91z"/>
		</g>
		<path style="fill:#FAB3CE;" d="M256,7.5c60.19,0,96.794,10.221,115.727,17.846c9.356,3.768,13.964,14.344,10.438,23.794    L369.72,88.982c-3.428,10.976-15.49,16.753-26.156,12.455C324.524,93.763,293.025,84,256,84s-68.524,9.763-87.565,17.437    c-10.665,4.299-22.727-1.479-26.156-12.455L129.836,49.14c-3.526-9.45,1.081-20.026,10.438-23.794    C159.206,17.721,195.81,7.5,256,7.5z"/>
		<path style="fill:#FC7176;" d="M238.433,55.062h8.005v8.005c0,2.346,1.902,4.248,4.248,4.248h10.629    c2.346,0,4.248-1.902,4.248-4.248v-8.005h8.005c2.346,0,4.248-1.902,4.248-4.248V40.186c0-2.346-1.902-4.248-4.248-4.248h-8.005    v-8.005c0-2.346-1.902-4.248-4.248-4.248h-10.629c-2.346,0-4.248,1.902-4.248,4.248v8.005h-8.005    c-2.346,0-4.248,1.902-4.248,4.248v10.629C234.185,53.16,236.087,55.062,238.433,55.062z"/>
		<g>
			<path style="fill:#E381A5;" d="M172.28,84.526l-12.444-52.634c-1.201-4.251-1.438-8.67-0.886-12.853     c-7.509,2.127-13.708,4.306-18.677,6.307c-9.356,3.768-13.964,14.344-10.438,23.794l12.444,39.843     c3.428,10.976,15.49,16.753,26.156,12.455c3.208-1.293,6.777-2.645,10.659-4C175.985,94.281,173.544,89.873,172.28,84.526z"/>
		</g>
	</g>
	<g>
		<path d="M358.645,245.575c4.142,0,7.5-3.358,7.5-7.5v-19.958c0-4.142-3.358-7.5-7.5-7.5s-7.5,3.358-7.5,7.5v19.958    C351.145,242.217,354.502,245.575,358.645,245.575z"/>
		<path d="M153.355,245.575c4.142,0,7.5-3.358,7.5-7.5v-19.958c0-4.142-3.358-7.5-7.5-7.5s-7.5,3.358-7.5,7.5v19.958    C145.855,242.217,149.213,245.575,153.355,245.575z"/>
		<path d="M279.295,252.513c-3.118-2.726-7.856-2.408-10.583,0.711c-3.088,3.532-7.721,5.559-12.712,5.559    c-4.991,0-9.625-2.026-12.712-5.559c-2.727-3.118-7.464-3.437-10.583-0.71s-3.437,7.464-0.711,10.583    c5.937,6.792,14.687,10.687,24.006,10.687s18.069-3.895,24.006-10.687C282.732,259.977,282.414,255.239,279.295,252.513z"/>
		<path d="M493.36,262.634c5.78-8.407,9.172-18.577,9.172-29.528c0-11.967-4.053-23-10.845-31.819    c-5.829-51.958-29.607-98.933-68.884-135.966c-9.894-9.329-20.666-17.838-32.051-25.357c-0.913-9.361-6.868-17.807-16.224-21.575    C353.699,10,316.227,0,256,0c-60.228,0-97.699,10-118.528,18.389c-9.356,3.768-15.311,12.214-16.224,21.576    c-11.385,7.519-22.156,16.028-32.05,25.357c-5.11,4.817-10.075,9.943-14.759,15.236c-2.745,3.102-2.456,7.842,0.646,10.587    c3.103,2.745,7.842,2.455,10.587-0.646c4.386-4.955,9.034-9.754,13.816-14.263c7.704-7.264,15.972-14.005,24.669-20.119    c0,0,10.96,35.093,10.963,35.103c4.65,14.887,21.625,23.007,36.119,17.175C198.106,97.583,227.001,91.5,256,91.5    c35.412,0,65.639,9.186,84.761,16.893c14.235,5.737,31.538-2.511,36.119-17.175l9.089-29.102l1.875-6.001    c8.698,6.114,16.966,12.855,24.67,20.119c32.502,30.646,53.638,68.539,61.793,110.465c-0.276-0.144-0.561-0.267-0.84-0.404    c-6.307-3.142-13.201-4.931-20.23-5.357c-1.089-0.061-2.183-0.107-3.274-0.086c-4.987-0.509-63.134-6.907-115.576-31.476    c-20.16-9.445-37.955-22.52-54.799-36.959c-13.829-11.084-33.34-11.086-47.17-0.004c-9.941,7.966-19.281,16.741-30.066,23.597    c-17.735,11.274-37.411,19.677-57.304,26.322c-0.063,0.021-0.126,0.043-0.189,0.064c-41.125,13.825-78.243,17.982-82.708,18.444    c-0.141,0.016-0.283,0.008-0.425,0.008c-8.022,0-16.01,1.878-23.193,5.447c-0.277,0.138-0.562,0.26-0.836,0.402    c5.069-25.995,15.177-50.494,30.16-73.042c2.292-3.45,1.354-8.105-2.096-10.397c-3.45-2.293-8.104-1.354-10.397,2.096    c-19.403,29.198-31.171,61.463-35.04,95.921c-6.798,8.821-10.855,19.859-10.855,31.832c0,10.951,3.392,21.121,9.172,29.528    c2.147,24.963,8.732,45.695,19.613,61.621c15.482,22.661,38.821,34.505,69.4,35.233c6.704,6.639,13.902,12.828,21.535,18.518    c-14.545,9.796-38.948,32.844-48.855,81.036c-2.869,13.971-4.323,29.266-4.323,45.459c0,4.142,3.358,7.5,7.5,7.5    c0,0,344.98,0,345,0c4.142,0,7.5-3.358,7.5-7.5c0-0.188-0.007-0.375-0.021-0.56c-0.033-15.773-1.455-30.681-4.216-44.338    c-0.049-0.384-0.119-0.762-0.224-1.126c-9.981-47.803-34.25-70.711-48.739-80.47c7.634-5.69,14.832-11.879,21.536-18.518    c30.579-0.729,53.918-12.572,69.4-35.233C484.627,308.329,491.213,287.598,493.36,262.634z M143.076,32.303    C162.675,24.409,198.175,15,256,15c57.824,0,93.326,9.409,112.924,17.303c5.967,2.403,7.881,8.854,6.081,14.601l-12.444,39.842    c-0.004,0.014-0.01,0.026-0.014,0.04c-2.203,6.605-9.607,10.35-16.178,7.695C326.017,86.278,293.818,76.5,256,76.5    c-36.636,0-67.999,9.177-88.426,17.208c-7.113,2.794-15.617,1.222-18.135-6.962c0,0-12.437-39.819-12.444-39.842    C135.192,41.131,137.091,34.713,143.076,32.303z M455.742,269.955c2.556-10.357,4.19-20.925,4.917-31.567    c0.946-13.855,0.343-27.818-1.828-41.536c1.104,0.26,2.194,0.564,3.266,0.923c14.943,4.999,25.436,19.482,25.436,35.332    c0,8.735-3.023,16.778-8.076,23.138c-0.029,0.036-0.058,0.072-0.087,0.108c-5.382,6.724-13.042,11.546-21.8,13.291    C457.496,269.658,456.279,269.876,455.742,269.955z M54.429,269.644c-17.178-3.368-29.961-19.078-29.961-36.537    c0-16.932,12.072-32.334,28.701-36.257c-0.215,1.358-0.411,2.721-0.595,4.085c-1.433,10.579-1.932,21.269-1.526,31.936    c0.474,12.479,2.218,24.959,5.21,37.084C56.141,269.938,54.922,269.733,54.429,269.644z M35.972,278.63    c5.373,3.047,11.28,5.098,17.483,6.073c2.421,0.382,4.882,0.607,7.334,0.653c7.056,20.623,17.868,40.158,31.77,57.499    C56.728,335.814,41.687,307.55,35.972,278.63z M234.898,418.573c7.011,0.676,14.058,1.02,21.102,1.02    c11.89,0,23.981-0.984,35.786-2.944c-3.865,16.175-18.444,28.237-35.786,28.237c-17.346,0-31.926-12.065-35.787-28.238    C225.069,417.455,229.967,418.097,234.898,418.573z M93.905,468.05h35.215V497H91.122C91.428,486.857,92.36,477.166,93.905,468.05    z M382.88,497v-28.95h35.215c1.546,9.115,2.478,18.807,2.784,28.95H382.88z M414.858,453.05H375.38c-4.142,0-7.5,3.358-7.5,7.5    V497H144.12v-36.45c0-4.142-3.358-7.5-7.5-7.5H97.138c11.684-44.17,36.605-60.984,45.519-65.727    c19.093,11.99,39.943,20.76,61.828,26.107c2.678,26.06,24.759,46.456,51.515,46.456c26.756,0,48.837-20.396,51.515-46.456    c21.878-5.345,42.721-14.111,61.809-26.095C378.184,392.107,403.197,409.076,414.858,453.05z M290.819,401.576    c-22.971,4.016-46.667,4.015-69.638,0c-66.423-11.613-120.826-55.81-143.674-114.237c-0.028-0.073-0.058-0.146-0.086-0.219    c-11.278-29.167-14.379-61.153-8.744-91.928c11.118-1.384,37.44-5.312,67.802-14.348c33.837-10.035,67.735-24.408,94.923-47.395    c0.024-0.02,0.047-0.04,0.071-0.06c4.031-3.39,7.68-7.655,12.088-10.543c7.458-4.887,17.421-4.864,24.88,0.001    c4.425,2.886,8.027,7.183,12.096,10.55c0.018,0.015,0.035,0.029,0.053,0.044c27.073,23.31,61.014,37.307,94.918,47.398    c30.368,9.038,56.696,12.967,67.818,14.352c1.079,0.237,1.812,12.526,1.918,13.589c3.386,33.793-3.582,68.542-19.957,98.315    c-0.005,0.01-0.011,0.02-0.016,0.029C398.826,355.612,349.514,391.314,290.819,401.576z M419.441,342.855    c13.901-17.34,24.714-36.877,31.77-57.499c0.23-0.004,0.457-0.026,0.687-0.033c8.429-0.251,16.789-2.53,24.13-6.693    C470.313,307.55,455.272,335.814,419.441,342.855z"/>
	</g>
</g>















</svg>
