<svg id="Capa_1" enable-background="new 0 0 512 512" height="512" viewBox="0 0 512 512" width="512" xmlns="http://www.w3.org/2000/svg"><g><ellipse cx="146.993" cy="113.972" fill="#3a4351" rx="60.25" ry="55.55"/><path d="m378.379 504.5c11.066 0 19.558-9.828 17.951-20.777-10.053-68.487-69.052-121.063-140.33-121.063s-130.277 52.577-140.329 121.064c-1.607 10.949 6.884 20.777 17.951 20.777h244.757z" fill="#a0e7e7"/><path d="m202.807 372.975c-45.816 18.548-79.736 60.336-87.136 110.748-1.607 10.949 6.885 20.777 17.951 20.777h104.553c-34.896-18.767-48.358-99.66-35.368-131.525z" fill="#8ed2e2"/><path d="m256 408.065-65.051 41.223c-7.684 4.869-17.865.549-19.703-8.361l-15.277-74.094z" fill="#fcf2d0"/><path d="m256 408.065 65.051 41.223c7.684 4.869 17.866.549 19.703-8.361l15.277-74.094z" fill="#fcf2d0"/><ellipse cx="82.95" cy="255.009" fill="#b7856b" rx="55.183" ry="55.183" transform="matrix(.707 -.707 .707 .707 -156.023 133.345)"/><path d="m85.61 293.523 11.748-4.178c3.824-1.36 7.82 1.544 7.709 5.601l-.343 12.464c-.037 1.328.386 2.628 1.196 3.681l7.604 9.882c2.475 3.216.948 7.915-2.945 9.062l-11.96 3.526c-1.274.376-2.38 1.179-3.131 2.275l-7.049 10.285c-2.294 3.348-7.234 3.348-9.529 0l-7.049-10.285c-.751-1.096-1.857-1.899-3.131-2.275l-11.96-3.526c-3.893-1.148-5.419-5.846-2.944-9.062l7.604-9.882c.81-1.053 1.232-2.353 1.196-3.681l-.343-12.464c-.112-4.057 3.885-6.96 7.709-5.601l11.748 4.178c1.251.445 2.618.445 3.87 0z" fill="#a0e7e7"/><ellipse cx="429.05" cy="255.009" fill="#b7856b" rx="55.183" ry="55.183" transform="matrix(.707 -.707 .707 .707 -54.653 378.075)"/><path d="m426.39 293.523-11.748-4.178c-3.824-1.36-7.82 1.544-7.709 5.601l.343 12.464c.036 1.328-.386 2.628-1.196 3.681l-7.604 9.882c-2.475 3.216-.948 7.915 2.944 9.062l11.96 3.526c1.274.376 2.38 1.179 3.131 2.275l7.049 10.285c2.294 3.348 7.234 3.348 9.528 0l7.049-10.285c.751-1.096 1.857-1.899 3.131-2.275l11.96-3.526c3.893-1.148 5.419-5.846 2.944-9.062l-7.604-9.882c-.81-1.053-1.233-2.353-1.196-3.681l.343-12.464c.112-4.057-3.885-6.96-7.709-5.601l-11.748 4.178c-1.249.445-2.616.445-3.868 0z" fill="#a0e7e7"/><path d="m424.257 263.143c0 85.518-75.331 144.921-168.257 144.921s-168.257-59.403-168.257-144.921 75.331-154.843 168.257-154.843 168.257 69.326 168.257 154.843z" fill="#cb9d82"/><path d="m256 101.022c92.202-32.332 173.828 49.47 180.767 111.535 1.184 10.588-7.861 19.377-18.409 17.871-45.287-6.465-122.702-40.399-157.032-66.891-3.145-2.427-7.508-2.427-10.652 0-34.33 26.492-111.745 60.426-157.032 66.891-10.547 1.506-19.592-7.283-18.409-17.871 6.939-62.066 88.565-143.867 180.767-111.535z" fill="#4e5660"/><path d="m335.673 118.038 16.814-54.174c3.701-11.923-.792-24.939-11.187-31.853-20.445-13.599-50.57-24.511-85.3-24.511s-64.855 10.912-85.3 24.511c-10.395 6.914-14.887 19.929-11.187 31.853l16.814 54.174c1.916 6.173 7.627 10.38 14.09 10.38h131.167c6.463 0 12.173-4.207 14.089-10.38z" fill="#a0e7e7"/><path d="m210.929 13.787c-15.652 4.477-29.32 10.967-40.23 18.223-10.395 6.914-14.887 19.929-11.187 31.853l16.814 54.174c1.916 6.173 7.627 10.38 14.09 10.38h45.923c-26.671-23.759-42.593-97.174-25.41-114.63z" fill="#8ed2e2"/><path d="m276.09 62.426h-12.59v-12.59c0-4.142-3.358-7.5-7.5-7.5s-7.5 3.358-7.5 7.5v12.59h-12.59c-4.142 0-7.5 3.358-7.5 7.5s3.358 7.5 7.5 7.5h12.59v12.59c0 4.142 3.358 7.5 7.5 7.5s7.5-3.358 7.5-7.5v-12.59h12.59c4.142 0 7.5-3.358 7.5-7.5s-3.358-7.5-7.5-7.5z" fill="#fff"/><g><g fill="#fff"><ellipse cx="177.623" cy="290.15" rx="28.919" ry="23.03"/><ellipse cx="334.377" cy="290.15" rx="28.919" ry="23.03"/></g></g><path d="m491.683 252.497c-1.178-29.368-22.88-53.928-51.343-59.131-11.783-38.642-46.136-78.205-90.228-96.548l4.285-13.808c1.228-3.956-.984-8.158-4.94-9.386-3.955-1.227-8.158.983-9.386 4.94l-11.561 37.251c-.947 3.052-3.73 5.103-6.926 5.103h-131.167c-3.196 0-5.979-2.051-6.927-5.103l-16.814-54.175c-2.719-8.758.644-18.374 8.177-23.385 22.22-14.779 51.797-23.255 81.147-23.255s58.927 8.476 81.147 23.255c3.832 2.549 6.625 6.23 8.077 10.644 1.293 3.935 5.534 6.076 9.467 4.783 3.935-1.294 6.076-5.533 4.783-9.467-2.476-7.531-7.455-14.083-14.02-18.449-24.619-16.375-57.223-25.766-89.454-25.766s-64.835 9.391-89.454 25.766c-8.744 5.816-14.242 15.192-15.508 25.283-39.352-2.212-71.795 27.111-71.795 62.923 0 13.789 4.804 27.032 13.631 37.922-9.751 13.382-16.963 27.533-21.213 41.471-28.463 5.203-50.165 29.762-51.343 59.131-.961 23.947 11.864 46.159 32.508 57.478l-4.944 6.426c-5.675 7.376-2.186 18.191 6.769 20.83l11.372 3.352 6.702 9.78c5.279 7.702 16.643 7.673 21.901 0l6.703-9.78 1.393-.411c12.077 18.715 28.807 35.041 49.967 47.887l1.488 7.216c-24.764 23.099-41.022 53.95-45.926 87.361-2.273 15.477 9.742 29.365 25.37 29.365h10.345c4.142 0 7.5-3.358 7.5-7.5s-3.358-7.5-7.5-7.5h-10.345c-6.467 0-11.479-5.722-10.53-12.188 3.958-26.962 16.146-52.075 34.709-71.965l6.102 29.593c2.913 14.128 19.057 20.789 31.063 13.181l53.536-33.926v75.305h-69.313c-4.142 0-7.5 3.358-7.5 7.5s3.358 7.5 7.5 7.5h199.191c15.646 0 27.64-13.906 25.371-29.366-4.904-33.41-21.161-64.261-45.926-87.36l1.488-7.216c21.2-12.87 37.914-29.209 49.967-47.887l1.393.411 6.703 9.78c5.26 7.677 16.624 7.7 21.901 0l6.702-9.78 11.372-3.352c8.941-2.635 12.45-13.445 6.768-20.83l-4.944-6.425c20.645-11.32 33.47-33.531 32.509-57.478zm-339.303-186.316 9.508 30.636c-22.019 9.161-42.749 24.166-59.334 43.011-5.395-7.677-8.311-16.618-8.311-25.856 0-28.224 26.852-50.734 58.137-47.791zm-69.693 147.21c3.954-35.366 36.028-81.871 83.666-102.184l2.81 9.055c2.907 9.365 11.448 15.657 21.253 15.657h131.167c9.806 0 18.347-6.292 21.252-15.657l2.81-9.055c47.639 20.313 79.713 66.818 83.667 102.184.639 5.711-4.2 10.427-9.895 9.613-42.575-6.078-118.613-38.474-153.51-65.403-5.834-4.502-13.983-4.503-19.816 0-34.897 26.93-110.935 59.326-153.51 65.403-5.689.812-10.534-3.897-9.894-9.613zm-27.845 80.124c-12.621-9.227-20.183-24.304-19.536-40.416.807-20.117 14.27-37.266 32.745-43.371-.089.666-.196 1.334-.27 1.997-1.228 10.99 5.135 20.902 14.85 24.73-3.066 17.107-3.063 33.682-.648 49.195l-9.477-3.37c-8.164-2.902-16.841 2.665-17.664 11.235zm34.459 38.082-5.627 8.21-5.626-8.21c-1.721-2.51-4.276-4.367-7.197-5.228l-9.547-2.815 6.07-7.888c3.33-4.326 2.683-9.174 2.721-9.487-.015-.883.088 3.172-.245-8.923l9.377 3.334c1.956.695 4.046.905 6.087.652 2.427 8.865 5.707 17.434 9.81 25.627-2.343.984-4.379 2.621-5.823 4.728zm97.634 111.356c-3.256 2.062-7.566.231-8.343-3.54l-8.696-42.174c19.033 8.846 40.101 14.624 62.293 17.036zm201.974 41.859c.941 6.414-4.008 12.188-10.53 12.188h-114.879v-75.303l53.537 33.926c11.976 7.589 28.138.993 31.063-13.181l6.102-29.593c18.561 19.889 30.75 45.001 34.707 71.963zm-109.099-70.538c22.193-2.412 43.26-8.19 62.293-17.036l-8.695 42.174c-.775 3.757-5.077 5.609-8.343 3.54zm-23.81-13.709c-101.305 0-175.801-72.175-158.285-163.179 45.041-7.393 121.871-40.385 157.541-67.911.445-.344 1.043-.344 1.488 0 35.67 27.526 112.5 60.518 157.541 67.911 17.706 91.996-58.03 163.179-158.285 163.179zm185.148-74.197c-2.92.861-5.475 2.718-7.196 5.229l-5.626 8.21-5.627-8.21c-1.444-2.106-3.479-3.743-5.821-4.727 4.102-8.193 7.382-16.762 9.81-25.627 2.042.253 4.131.044 6.086-.652l9.378-3.334c-.335 12.174-.229 8.042-.245 8.922.057.469-.703 5.039 2.721 9.487l6.07 7.888zm16.01-32.853c-.825-8.586-9.518-14.132-17.662-11.235l-9.478 3.37c2.517-16.166 2.3-32.737-.647-49.188 9.521-3.751 16.098-13.556 14.848-24.738-.074-.662-.181-1.331-.27-1.996 18.475 6.105 31.938 23.254 32.745 43.371.647 16.112-6.914 31.188-19.536 40.416zm-139.636-49.691c-11.726 0-21.265 9.54-21.265 21.265 0 4.142 3.358 7.5 7.5 7.5s7.5-3.358 7.5-7.5c0-3.455 2.811-6.265 6.265-6.265 3.455 0 6.265 2.811 6.265 6.265 0 4.142 3.358 7.5 7.5 7.5s7.5-3.358 7.5-7.5c.001-11.725-9.539-21.265-21.265-21.265zm-41.993 31.699c-3.124-2.721-7.861-2.396-10.582.727-2.259 2.593-5.521 4.08-8.947 4.08s-6.688-1.487-8.947-4.08c-2.722-3.123-7.459-3.447-10.582-.727-3.123 2.722-3.448 7.46-.727 10.582 5.109 5.862 12.492 9.225 20.255 9.225s15.146-3.362 20.255-9.225c2.723-3.122 2.397-7.86-.725-10.582zm-81.051-31.699c-11.725 0-21.265 9.54-21.265 21.265 0 4.142 3.358 7.5 7.5 7.5s7.5-3.358 7.5-7.5c0-3.455 2.811-6.265 6.265-6.265 3.455 0 6.265 2.811 6.265 6.265 0 4.142 3.358 7.5 7.5 7.5s7.5-3.358 7.5-7.5c0-11.725-9.54-21.265-21.265-21.265z"/></g></svg>