<svg id="Capa_1" enable-background="new 0 0 512 512" height="512" viewBox="0 0 512 512" width="512" xmlns="http://www.w3.org/2000/svg"><g><path d="m464.88 318.733v-146.611h-193.541-193.979v146.611c0 18.768-4.774 37.156-13.737 53.435-5.114 9.289-1.512 21.007 7.811 26.06 124.458 67.46 274.992 67.499 399.389-.054 9.317-5.059 12.911-16.776 7.793-26.061-8.962-16.261-13.736-34.612-13.736-53.38z" fill="#ac6757"/><g><g><path d="m349.635 423.665c-14.441-18.134-34.932-31.167-58.354-35.947-6.442-1.314-13.106-2.005-19.927-2.005-31.62 0-59.867 14.829-78.28 37.951-13.819 17.352-22.101 39.373-22.101 63.312v17.524h100.382 100.382v-17.524c0-7.82-.884-15.436-2.556-22.751-3.447-15.077-10.241-28.877-19.546-40.56z" fill="#add8ff"/><path d="m291.281 387.718c-6.443-1.315-13.106-2.004-19.927-2.004-31.62 0-59.867 14.829-78.28 37.951-9.304 11.683-16.099 25.483-19.545 40.56-1.672 7.315-2.556 14.931-2.556 22.751v17.524h39.887v-17.524c0-48.876 34.616-89.898 80.421-99.258z" fill="#88c5fd"/></g><path d="m321.113 404.353-.702-5.698-49.057-29.791-49.055 29.79-.702 5.7c-3.58 29.085 31.636 45.032 49.757 22.533 18.123 22.499 53.339 6.551 49.759-22.534z" fill="#88c5fd"/></g><g><path d="m459.166 171.997h-375.623c-25.037 0-45.334 20.297-45.334 45.334s20.297 45.334 45.334 45.334h375.623c25.037 0 45.334-20.297 45.334-45.334s-20.296-45.334-45.334-45.334z" fill="#ffbf9d"/><path d="m323.165 36.773c-6.699-1.919-13.55-3.476-20.533-4.646-10.173-1.706-20.62-2.607-31.277-2.607-10.658 0-21.103.902-31.277 2.607-88.836 14.893-156.535 92.136-156.535 185.204s67.699 170.311 156.535 185.204c10.173 1.706 20.619 2.607 31.277 2.607s21.104-.902 31.277-2.607c6.983-1.171 13.834-2.728 20.533-4.646 78.526-22.489 136.001-94.806 136.001-180.558s-57.475-158.069-136.001-180.558z" fill="#ffd4bd"/><path d="m187.163 217.331c0-85.752 57.475-158.069 136.002-180.558-6.699-1.919-13.55-3.476-20.533-4.646-10.173-1.706-20.62-2.607-31.277-2.607-10.658 0-21.103.902-31.277 2.607-88.836 14.893-156.535 92.136-156.535 185.204 0 86.752 58.823 159.752 138.757 181.323 5.819 1.57 11.75 2.87 17.778 3.881 10.173 1.706 20.619 2.607 31.277 2.607s21.104-.902 31.277-2.607c6.983-1.171 13.834-2.728 20.533-4.646-78.526-22.489-136.002-94.806-136.002-180.558z" fill="#ffbf9d"/></g><g><g><g><ellipse cx="169.03" cy="279.019" fill="#ff8e9e" rx="37.562" ry="29.791"/></g><g><ellipse cx="373.68" cy="279.019" fill="#ff8e9e" rx="37.562" ry="29.791"/></g></g></g><g><path d="m111.755 81.111c39.63-46.385 97.676-73.611 159.6-73.611 61.792 0 119.884 27.126 159.599 73.611.086.101.172.202.258.303 14.649 17.213 22.436 39.227 22.436 61.83v28.753h-7.63c-.156 0-.312 0-.468-.001-24.928-.096-47.584-14.551-58.762-36.833l-11.813-23.55-24.569-9.213c-51.101-19.163-107.428-19.113-158.502.151-15.64 5.899-28.419 17.586-35.934 32.517l-.048.095c-11.178 22.282-33.833 36.736-58.762 36.833-.156.001-.312.001-.468.001h-7.63c-11.608-10.893-14.936-27.991-8.282-42.451 7.996-17.378 18.384-33.698 30.975-48.435z" fill="#ac6757"/><path d="m271.355 88.065c0-38.503 31.213-69.716 69.716-69.716 65.222 0 118.095 52.873 118.095 118.095v90.832c0 29.105 8.913 57.511 25.541 81.398l2.665 3.828c5.654 8.123-2.105 18.823-11.583 15.973-82.121-24.693-138.341-100.305-138.341-186.059v-44.42c-2.073-15.334-14.019-27.459-29.321-29.759-15.302-2.297-30.284 5.781-36.772 19.828" fill="#c77464"/></g><path d="m293.103 336.125h-44.78c-12.668 0-22.938 10.27-22.938 22.938-42.815-13.865-76.37-46.479-92.548-86.993-6.517-16.321-9.588-33.814-9.588-51.388v-49.901c0-16.341-13.274-29.492-29.486-29.492-.095 0-9.317 0-9.232 0-41.639 0-76.385 33.065-77.021 74.699-.647 42.377 33.637 77.057 75.868 77.057h16.066c15.172 34.39 40.35 63.373 71.858 83.243 15.597 9.837 32.75 17.442 50.999 22.366 1.559.421 3.127.817 4.702 1.199 13.913 3.365 28.901 5.29 44.349 5.29h.003c7.913 0 16.492-.528 25.16-1.693 11.204-1.681 19.527-11.309 19.527-22.678v-21.708c-.001-12.67-10.271-22.939-22.939-22.939z" fill="#53a3ec"/><g><circle cx="301.602" cy="472.79" r="7.5"/><path d="m190.468 227.317c-4.142 0-7.5 3.358-7.5 7.5v15.543c0 4.142 3.358 7.5 7.5 7.5s7.5-3.358 7.5-7.5v-15.543c0-4.142-3.358-7.5-7.5-7.5z"/><path d="m297.607 244.243c-3.123-2.721-7.861-2.396-10.582.727-3.956 4.539-9.667 7.143-15.671 7.143s-11.715-2.604-15.671-7.143c-2.722-3.124-7.459-3.448-10.582-.727s-3.448 7.459-.727 10.582c6.805 7.809 16.639 12.288 26.979 12.288s20.174-4.479 26.979-12.288c2.723-3.123 2.398-7.861-.725-10.582z"/><path d="m473.037 268.319c22.727-6.097 38.963-26.662 38.963-50.988 0-26.586-19.742-48.638-45.334-52.292v-28.595c0-20.602-5.099-41.036-14.745-59.095-1.951-3.652-6.491-5.034-10.148-3.082-3.654 1.952-5.034 6.495-3.082 10.149 8.488 15.892 12.976 33.883 12.976 52.027v90.832c0 35.431 11.271 63.261 29.551 89.512 1.607 2.307-.564 5.319-3.268 4.506-79.553-23.921-133.002-95.806-133.002-178.876v-44.328c.316-22.664-31.325-49.016-61.836-32.773 21.801-55.845 98.789-47.821 139.355-3.746 2.804 3.047 7.549 3.244 10.598.439 3.048-2.805 3.244-7.55.439-10.598-25.397-27.594-61.519-41.477-94.203-40.52-21.938-7.22-44.788-10.891-67.946-10.891-63.656 0-123.906 27.788-165.301 76.238-17.223 20.158-32.181 46.632-34.992 58.638-39.635 6.36-70.429 40.252-71.051 80.998-.644 42.19 30.056 77.104 69.851 83.567v19.293c0 17.373-4.429 34.599-12.807 49.817-7.068 12.84-2.287 29.173 10.807 36.271 17.586 9.532 36.009 17.893 54.757 24.85 3.889 1.441 8.201-.543 9.641-4.422 1.441-3.883-.539-8.2-4.422-9.641-18.088-6.712-35.862-14.778-52.828-23.974-5.725-3.104-7.899-10.243-4.814-15.849 9.595-17.428 14.667-37.156 14.667-57.051v-18.188h9.762c22.997 48.807 63.939 83.8 110.574 100.581-10.392 8.151-19.273 18.157-26.203 29.755-7.785-1.786-15.563-3.797-23.193-6.021-3.977-1.16-8.14 1.125-9.299 5.101s1.125 8.14 5.101 9.299c6.732 1.963 13.578 3.762 20.442 5.4-5.592 13.325-8.572 27.732-8.572 42.316v17.522c0 4.142 3.358 7.5 7.5 7.5h200.764c4.143 0 7.5-3.358 7.5-7.5v-17.524c0-14.652-2.861-28.904-8.574-42.422 36.185-8.677 71.044-22.034 103.74-39.79 12.91-7.011 17.952-23.263 10.782-36.271-5.598-10.156-9.458-21.327-11.384-32.789 16.451 4.78 29.3-13.731 19.727-27.486-7.69-11.04-14.853-22.23-20.493-39.899zm23.963-50.988c0 17.356-11.537 32.039-27.712 36.464-1.728-8.666-2.622-17.536-2.622-26.519v-47.029c17.281 3.489 30.334 18.79 30.334 37.084zm-148.031 10.745c-2.5 1.216-4.228 3.773-4.228 6.741v15.543c0 4.142 3.357 7.5 7.5 7.5s7.5-3.358 7.5-7.5v-2.399c16.076 26.101 37.851 48.531 64.357 65.212-23.572 37.552-59.589 64.842-102.16 77.254 1.038-3.053 1.603-6.304 1.603-9.657v-21.708c0-16.784-13.654-30.438-30.438-30.438h-44.78c-13.268 0-24.581 8.534-28.738 20.401-51.014-20.03-88.836-69.91-88.836-128.343v-49.601c13.664-7.201 24.872-18.592 31.874-32.55l.046-.091c6.749-13.41 18.072-23.663 31.882-28.872 43.605-16.446 90.986-18.378 135.397-5.959v38.808c-.001 30.013 6.502 59.052 19.021 85.659zm-85.114 184.405v11.545c-6.942 7.022-15.719 6.951-21.927 4.323-6.379-2.699-13.27-9.581-13.064-20.386 11.503 2.551 23.226 4.066 34.991 4.518zm49.993-4.502c.199 10.796-6.689 17.672-13.065 20.37-6.208 2.627-14.986 2.7-21.929-4.326v-11.541c12.484-.485 23.937-2.047 34.994-4.503zm11.349-321.089c-12.783-3.043-25.789-4.994-38.903-5.836 12.303-9.476 29.846-6.878 38.903 5.836zm-53.842-71.89c12.295 0 24.498 1.11 36.502 3.31-24.025 11.39-41.054 34.755-43.65 62.378-25.67.781-50.85 5.756-74.949 14.846-17.341 6.54-31.542 19.383-39.989 36.167l-.05.1c-4.945 9.857-12.505 18.106-21.713 23.86-5.792-12.878-18.733-21.872-33.743-21.872h-6.625c25.917-62.823 97.301-118.789 184.217-118.789zm-165.049 275.018c-1.199-2.718-3.891-4.473-6.862-4.473h-16.066c-38.069 0-68.953-31.203-68.37-69.442.567-37.117 31.754-67.313 69.521-67.313h9.232c12.124 0 21.987 9.865 21.987 21.992v49.901c0 67.101 45.058 125.351 107.325 145.516 4.845 1.569 9.811-2.052 9.811-7.135 0-8.513 6.926-15.438 15.438-15.438h44.78c8.513 0 15.438 6.926 15.438 15.438v21.708c0 7.559-5.622 14.106-13.086 15.253-8.01 1.074-16.119 1.619-24.104 1.619-72.289-.001-136.478-42.877-165.044-107.626zm72.167 196.958c0-29.874 13.897-56.58 35.705-73.822 1.651 12.813 9.725 23.856 21.905 29.01 9.323 3.944 19.188 3.748 27.772-.127v54.963h-45.495v-29.456c0-4.142-3.358-7.5-7.5-7.5s-7.5 3.358-7.5 7.5v29.456h-24.887zm185.764 10.024h-24.887v-29.456c0-4.142-3.357-7.5-7.5-7.5s-7.5 3.358-7.5 7.5v29.456h-45.495v-54.979c8.58 3.875 18.448 4.089 27.773.142 12.179-5.153 20.254-16.195 21.906-29.007 21.769 17.214 35.703 43.97 35.703 73.82zm103.007-105.418c-32.595 17.7-67.416 30.87-103.576 39.208-7.026-11.714-15.933-21.643-26.153-29.66 41.321-14.817 76.172-42.93 99.575-80.444 6.737 3.563 13.697 6.757 20.864 9.56 1.568 15.882 6.397 31.522 14.094 45.487 3.107 5.636.87 12.768-4.804 15.849z"/></g></g></svg>