<svg id="Capa_1" enable-background="new 0 0 512 512" height="512" viewBox="0 0 512 512" width="512" xmlns="http://www.w3.org/2000/svg"><g><g><path d="m397.179 448.832c-15.117-34.669-44.224-62.736-81.207-75.976-14.75-5.282-30.626-8.134-46.984-8.134-.001 0-.001 0-.001 0-16.483 0-32.305 2.876-47 8.139-35.595 12.747-65.484 39.951-81.19 75.972-7.442 17.067-11.584 35.889-11.584 55.666h139.776 139.776c-.001-19.776-4.144-38.6-11.586-55.667z" fill="#add8ff"/><path d="m268.986 364.723c-30.505 0-58.706 9.848-81.624 26.39-.004.003-.007.005-.011.008-19.992 14.432-36.299 34.191-46.556 57.714-7.442 17.067-11.584 35.889-11.584 55.666h46.595 11.545 23.83c.068-60.736 36.309-112.998 88.339-136.403-9.871-2.211-20.104-3.375-30.534-3.375z" fill="#88c5fd"/><path d="m306.85 423.526h-75.734c-18.564 0-29.538-20.796-19.061-36.121l9.939-14.551 46.993-25.273 46.969 25.273 9.954 14.551c10.478 15.325-.496 36.121-19.06 36.121z" fill="#64b3fb"/></g><path d="m268.988 347.582-46.993 25.273c8.251 21.641 24.757 38.782 46.993 50.671 22.235-11.889 38.715-29.032 46.967-50.671h.002z" fill="#ffbd86"/><g><circle cx="436.534" cy="211.99" fill="#ffbd86" r="41.655"/><path d="m315.957 372.851c69.669-20.309 120.577-84.636 120.577-160.861 0-83.074-60.459-152.026-139.777-165.257-9.033-1.507-18.31-2.291-27.771-2.291-59.904 0-112.467 31.44-142.087 78.72-16.132 25.75-25.458 56.199-25.458 88.827 0 76.225 50.908 140.552 120.576 160.861 14.904 4.345 30.662 6.684 46.969 6.684 9.461 0 18.738-.787 27.771-2.297 6.535-1.092 12.943-2.562 19.2-4.386z" fill="#fed2a4"/><path d="m193.8 211.99c0-32.627 9.326-63.076 25.458-88.827 21.704-34.646 55.737-60.766 95.942-72.263-6.017-1.723-12.171-3.12-18.444-4.166-9.033-1.507-18.31-2.291-27.771-2.291-59.904 0-112.467 31.44-142.087 78.72-16.132 25.75-25.458 56.199-25.458 88.827 0 76.225 50.908 140.552 120.576 160.861 14.904 4.345 30.662 6.684 46.969 6.684 9.461 0 18.738-.787 27.771-2.297 6.263-1.047 12.405-2.44 18.413-4.16-.264-.075-.532-.15-.795-.227-69.666-20.309-120.574-84.636-120.574-160.861z" fill="#ffbd86"/></g><g><ellipse cx="359.935" cy="266.875" fill="#ffbd86" rx="33.927" ry="27.018"/><path d="m296.341 250.734c0-16.905-12.247-18.493-27.353-18.493s-27.353 1.588-27.353 18.493 12.247 30.608 27.353 30.608 27.353-13.703 27.353-30.608z" fill="#313d40"/></g><g><path d="m387.953 38.709c-33.585-19.635-74.728-31.209-119.132-31.209-14.89 0-29.414 1.301-43.409 3.771-15.49 2.734-27.619 12.058-32.21 23.884-.281-.113-.564-.237-.845-.343-13.556-5.129-29.557-3.753-41.756 3.284-.167.096-.334.193-.5.289-27.084 15.722-43.522 44.901-43.522 76.218v56.043h33.631c19.924 0 36.343-16.009 36.417-35.932.001-.125.001-.249.001-.373 0-16.393 12.207-30.221 28.473-32.254 21.158-2.645 42.439-3.977 63.721-3.977 16.644 0 42.782 1.319 64.049 3.977 16.266 2.033 28.473 15.861 28.473 32.254 0 .124 0 .249.001.373.074 19.923 16.493 35.932 36.417 35.932h33.633v-55.766c-.001-31.283-16.436-60.381-43.442-76.171z" fill="#c77464"/><path d="m268.821 7.5c-14.89 0-29.414 1.301-43.409 3.771-15.49 2.734-27.619 12.058-32.21 23.884-.281-.113-.564-.237-.845-.343-13.556-5.129-29.557-3.753-41.756 3.284-.167.096-.334.193-.5.289-27.084 15.722-43.522 44.901-43.522 76.218v56.043h33.631c19.924 0 36.343-16.009 36.417-35.932.001-.125.001-.249.001-.373 0-16.393 12.207-30.221 28.473-32.254 21.158-2.645 42.439-3.977 63.721-3.977-32.669-20.834-32.184-69.035-.001-90.61z" fill="#ac6757"/></g><path d="m228.014 338.464c-38.162-12.358-68.069-41.428-82.489-77.538-5.809-14.547-8.546-30.139-8.546-45.802v-44.478c0-14.515-11.767-26.286-26.282-26.286-.085 0-8.305 0-8.228 0-37.113 0-68.083 29.471-68.649 66.58-.577 37.771 29.981 68.682 67.622 68.682h14.213c19.804 44.825 58.67 79.338 106.34 93.234 14.904 4.345 30.685 6.68 46.992 6.68 7.621 0 14.959-.501 22.086-1.448 10.16-1.35 17.744-10.025 17.744-20.274v-19.349c0-11.292-9.154-20.445-20.445-20.445h-39.913c-11.292-.002-20.445 9.152-20.445 20.444z" fill="#53a3ec"/><g><circle cx="303.622" cy="449.763" r="7.5"/><circle cx="303.622" cy="487.183" r="7.5"/><path d="m234.134 250.734c0 21.013 15.635 38.108 34.854 38.108s34.854-17.095 34.854-38.108c0-25.993-23.541-25.993-34.854-25.993s-34.854 0-34.854 25.993zm54.707 0c0 12.742-8.906 23.108-19.854 23.108s-19.854-10.366-19.854-23.108c0-7.812 1.795-10.993 19.854-10.993s19.854 3.182 19.854 10.993z"/><path d="m186.756 225.384v13.854c0 4.142 3.358 7.5 7.5 7.5s7.5-3.358 7.5-7.5v-13.854c0-4.142-3.358-7.5-7.5-7.5s-7.5 3.358-7.5 7.5z"/><path d="m336.219 225.384v13.854c0 4.142 3.357 7.5 7.5 7.5s7.5-3.358 7.5-7.5v-13.854c0-4.142-3.357-7.5-7.5-7.5s-7.5 3.358-7.5 7.5z"/><path d="m438.894 162.895v-48.015c0-33.972-18.068-65.64-47.155-82.646-36.071-21.088-78.575-32.234-122.918-32.234-15.063 0-30.107 1.307-44.713 3.885-15.025 2.652-27.734 10.896-34.694 22.142-14.186-3.65-30.019-1.663-42.557 5.569l-.522.302c-29.149 16.92-47.257 48.61-47.257 82.704v22.341c-39.825 1.754-72.153 34.216-72.759 73.881-.309 20.267 7.366 39.394 21.612 53.859 14.25 14.469 33.253 22.438 53.509 22.438h9.402c18.684 39.305 51.004 69.938 90.744 86.472-29.93 15.489-54.06 41.037-67.667 72.244-.649 1.489-1.285 3.017-1.89 4.541-1.528 3.85.354 8.21 4.203 9.738 3.855 1.53 8.211-.357 9.738-4.203.544-1.371 1.116-2.744 1.699-4.081 11.267-25.84 30.563-47.358 54.563-61.466-6.914 19.757 7.74 40.661 28.883 40.661h30.372v65.973h-78.129c.204-15.768 1.055-31.052 2.591-46.495.41-4.122-2.6-7.795-6.721-8.206-4.126-.405-7.796 2.6-8.206 6.721-1.585 15.94-2.461 31.709-2.666 47.979h-31.433c.262-4.633.765-9.248 1.505-13.791.666-4.088-2.108-7.942-6.196-8.608-4.087-.662-7.942 2.108-8.608 6.196-1.269 7.788-1.912 15.763-1.912 23.703 0 4.142 3.358 7.5 7.5 7.5h279.552c4.143 0 7.5-3.358 7.5-7.5 0-56.342-31.977-106.131-79.902-130.92 11.829-4.934 23.093-11.161 33.645-18.629 3.381-2.393 4.182-7.074 1.789-10.455s-7.074-4.183-10.455-1.79c-14.095 9.976-29.576 17.537-46.029 22.504.654-2.365 1.005-4.847 1.005-7.398v-19.349c0-15.409-12.536-27.945-27.945-27.945h-39.914c-11.882 0-22.056 7.455-26.091 17.933-44.997-18.016-77.889-62.114-77.889-113.328v-37.187c22.139-2.135 39.564-20.688 39.648-43.164l.001-.432c0-12.584 9.417-23.251 21.903-24.813 20.806-2.6 41.932-3.919 62.791-3.919 15.811 0 41.459 1.212 63.118 3.919 12.487 1.562 21.903 12.228 21.903 24.813l.001.401c.089 23.933 19.79 43.404 43.917 43.404h27.677c2.38 11.066 3.595 22.423 3.595 33.845 0 42.224-16.3 82.06-45.896 112.17-2.903 2.954-2.863 7.703.091 10.606 2.957 2.906 7.706 2.861 10.606-.091 20.552-20.908 35.24-46.102 43.228-73.532 26.861-.285 48.626-22.225 48.626-49.152.002-26.312-20.781-47.858-46.793-49.095zm-121.728 225.011 2.553 3.732c7.088 10.367-.322 24.388-12.869 24.388h-13.293c9.777-8.179 17.726-17.632 23.609-28.12zm-48.178 27.037c-14.219-8.242-25.44-18.799-33.137-31.07 10.879 2.084 21.966 3.161 33.135 3.161 7.752 0 15.516-.509 23.074-1.513 4.287-.57 8.246-2.109 11.67-4.376-7.7 13.445-19.497 24.959-34.742 33.798zm-50.739-23.307 2.542-3.721c5.883 10.482 13.836 19.933 23.619 28.112h-13.294c-12.556-.001-19.952-14.029-12.867-24.391zm182.806 105.364h-31.459c-.216-15.868-1.112-31.968-2.68-47.968-.403-4.122-4.059-7.142-8.195-6.733-4.122.404-7.137 4.073-6.732 8.195 1.52 15.515 2.39 31.123 2.605 46.506h-78.106v-65.974h30.362c21.164 0 35.793-20.925 28.88-40.668 37.882 22.264 62.837 62.08 65.325 106.642zm-175.352-151.401c4.845 1.568 9.811-2.052 9.811-7.135 0-7.138 5.807-12.945 12.945-12.945h39.914c7.138 0 12.945 5.807 12.945 12.945v19.349c0 6.469-4.829 11.989-11.232 12.84-6.906.917-14.004 1.382-21.099 1.382-63.28 0-120.649-36.999-146.471-95.444-1.2-2.717-3.891-4.469-6.86-4.469h-14.213c-16.206 0-31.414-6.379-42.822-17.963-11.404-11.58-17.548-26.888-17.301-43.105.498-32.64 27.93-59.194 61.15-59.194h8.229c10.356 0 18.781 8.428 18.781 18.787v44.478c-.001 60.143 40.373 112.387 96.223 130.474zm198.191-182.453h-26.133c-15.887 0-28.858-12.767-28.917-28.49l-.001-.314c0-20.133-15.064-37.199-35.042-39.696-22.3-2.788-48.704-4.035-64.979-4.035-21.479 0-43.23 1.357-64.651 4.035-19.977 2.498-35.042 19.563-35.042 39.696l-.001.345c-.054 14.565-11.236 26.603-25.544 28.258-3.246-13.863-15.041-24.471-29.503-25.915v-22.426c0-28.766 15.246-55.486 39.788-69.732l.482-.279c9.651-5.566 21.977-6.878 32.776-3.629l4.738 15.631c1.204 3.972 5.397 6.202 9.353 5.002 3.964-1.202 6.204-5.389 5.002-9.353l-5.023-16.575c4.345-8.532 13.88-14.957 25.521-17.012 13.745-2.427 27.911-3.657 42.103-3.657 41.685 0 81.571 10.438 115.347 30.184 24.504 14.327 39.726 41.033 39.726 69.696zm16.873 82.738c2.16-11.052 3.267-22.394 3.267-33.894 0-11.417-1.102-22.779-3.281-33.896 16.851 2.084 29.937 16.49 29.937 33.896-.001 17.4-13.081 31.803-29.923 33.894z"/></g></g></svg>