<?xml version="1.0" encoding="iso-8859-1"?>
<!-- Generator: Adobe Illustrator 19.0.0, SVG Export Plug-In . SVG Version: 6.00 Build 0)  -->
<svg version="1.1" id="Capa_1" xmlns="http://www.w3.org/2000/svg" xmlns:xlink="http://www.w3.org/1999/xlink" x="0px" y="0px"
	 viewBox="0 0 512.001 512.001" style="enable-background:new 0 0 512.001 512.001;" xml:space="preserve">
<g>
	<g>
		<g>
			<path d="M342.72,208.218c-4.142,0-7.5,3.357-7.5,7.5v14.395c0,4.143,3.358,7.5,7.5,7.5c4.142,0,7.5-3.357,7.5-7.5v-14.395
				C350.22,211.575,346.863,208.218,342.72,208.218z"/>
			<path d="M446.122,183.291c0.529-2.488,0.592-5.108,0.092-7.74c-2.839-14.948-7.322-29.547-13.33-43.483
				c0.352-0.458,0.687-0.933,0.992-1.435c2.893-4.749,3.097-10.535,0.544-15.48c-1.398-2.707-2.87-5.415-4.376-8.048
				c-0.345-0.604-0.693-1.205-1.044-1.806c-2.093-3.576-6.687-4.776-10.261-2.686c-3.575,2.093-4.777,6.687-2.686,10.262
				c0.327,0.558,0.65,1.118,0.971,1.678c1.399,2.447,2.768,4.964,4.068,7.482c0.058,0.111,0.21,0.407-0.026,0.795
				c-0.109,0.179-0.237,0.27-0.354,0.318c-0.01,0.005-0.021,0.008-0.031,0.012c-0.114,0.04-0.217,0.043-0.28,0.043H304.288
				c10.67-10.035,18.257-23.304,21.17-38.233h66.026c2.425,0,4.787,0.88,6.65,2.476c1.415,1.213,3.15,1.806,4.877,1.806
				c2.114,0,4.215-0.889,5.698-2.619c2.696-3.146,2.332-7.88-0.813-10.575c-4.58-3.926-10.409-6.088-16.412-6.088h-0.221
				c-24.563-25.035-54.862-42.776-87.918-51.479C290.686,7.006,273.895,0,255.496,0c-18.594,0-35.542,7.162-48.247,18.864
				c-32.505,8.831-62.322,26.443-86.523,51.105h-0.211c-7.677,0-14.857,3.457-19.701,9.484
				c-8.867,11.039-16.676,23.052-23.21,35.705c-2.551,4.94-2.348,10.725,0.544,15.472c0.298,0.489,0.624,0.952,0.965,1.399
				c-6.908,16.014-11.784,32.878-14.498,50.216c-0.105,0.669-0.148,1.333-0.164,1.993c-10.017,6.929-16.25,18.497-16.25,30.872
				c0,19.35,14.735,35.321,33.573,37.288c6.869,35.228,23.475,67.398,48.432,92.994c11.992,12.299,25.444,22.602,39.963,30.771
				c-38.739,25.897-63.833,67.824-67.954,114.625c-0.476,5.406,1.361,10.812,5.041,14.83c3.714,4.056,8.998,6.382,14.497,6.382
				h9.335c4.142,0,7.5-3.357,7.5-7.5s-3.358-7.5-7.5-7.5h-9.335c-1.783,0-2.917-0.947-3.434-1.513
				c-0.497-0.543-1.309-1.704-1.161-3.383c3.798-43.129,27.337-81.673,63.572-104.923l-10.059,26.15
				c-1.798,4.677-1.187,9.941,1.636,14.082l14.391,21.106l-7.027,7.22c-2.536,2.606-3.904,6.043-3.851,9.679
				c0.053,3.636,1.52,7.032,4.131,9.563L202.666,497H166.04c-4.142,0-7.5,3.357-7.5,7.5s3.358,7.5,7.5,7.5h75.246
				c0.007,0,0.014,0.001,0.021,0.001c0.004,0,0.009-0.001,0.013-0.001h29.358c0.004,0,0.009,0.001,0.013,0.001
				c0.007,0,0.014-0.001,0.021-0.001h119.535c5.499,0,10.782-2.326,14.497-6.382c3.68-4.019,5.517-9.424,5.041-14.83
				c-4.121-46.801-29.215-88.728-67.954-114.625c14.519-8.17,27.971-18.472,39.963-30.771
				c24.957-25.596,41.563-57.766,48.432-92.994c18.838-1.966,33.573-17.938,33.573-37.288
				C463.799,202.019,456.936,190.041,446.122,183.291z M369.342,69.969h-42.587c-0.201-10.918-2.861-21.241-7.46-30.441
				C337.392,46.736,354.295,57.001,369.342,69.969z M255.496,15c31.04,0,56.292,25.253,56.292,56.293
				c0,31.039-25.253,56.292-56.292,56.292c-31.04,0-56.292-25.253-56.292-56.292C199.203,40.253,224.457,15,255.496,15z
				 M191.437,40.036c-4.443,9.07-7.003,19.216-7.2,29.932h-41.59C157.34,57.309,173.814,47.218,191.437,40.036z M90.932,122.041
				c6.075-11.766,13.335-22.934,21.575-33.192c1.981-2.466,4.9-3.88,8.007-3.88h65.019c2.913,14.929,10.5,28.198,21.17,38.233
				H91.626c-0.059,0-0.156-0.005-0.262-0.038c-0.021-0.01-0.044-0.017-0.065-0.026c-0.114-0.05-0.235-0.138-0.34-0.31
				C90.724,122.442,90.875,122.15,90.932,122.041z M63.2,215.11c0-6.871,3.206-13.328,8.449-17.549
				c1.404,0.87,2.961,1.533,4.654,1.908c0.813,0.18,1.654,0.325,2.495,0.47c-0.39,5.063-0.605,10.141-0.605,15.171
				c0,7.277,0.409,14.48,1.193,21.587C70.046,233.963,63.2,225.323,63.2,215.11z M224.22,497l-32.818-31.809l7.235-7.435
				c4.264-4.38,4.859-11.225,1.416-16.275l-15.353-22.517c-0.05-0.073-0.061-0.167-0.029-0.249l11.745-30.534
				c6.753,2.432,13.664,4.447,20.704,6.03L232.603,497H224.22z M264.228,497h-16.455l-11.613-77.094l8.823,5.821
				c3.347,2.209,7.182,3.313,11.018,3.313c3.835,0,7.671-1.104,11.018-3.312l8.823-5.821L264.228,497z M278.846,399.952
				l-20.09,13.255c-1.674,1.105-3.838,1.104-5.513-0.001l-20.09-13.254l-0.448-2.976c7.659,1.008,15.434,1.531,23.295,1.531
				c7.861,0,15.636-0.522,23.295-1.531L278.846,399.952z M279.397,497l15.484-102.789c7.04-1.583,13.951-3.599,20.703-6.03
				l11.745,30.533c0.032,0.083,0.021,0.177-0.028,0.25l-15.353,22.518c-3.444,5.051-2.848,11.896,1.415,16.274l7.236,7.436
				L287.78,497H279.397z M394.843,492.104c0.148,1.679-0.664,2.84-1.161,3.383c-0.517,0.565-1.651,1.513-3.434,1.513h-80.914
				l12.365-11.984h34.964c6.934,0,12.574-5.641,12.574-12.574v-13.233c0-6.933-5.641-12.573-12.574-12.573H326.59l13.106-19.222
				c2.822-4.141,3.434-9.405,1.635-14.083l-10.059-26.149C367.507,410.431,391.046,448.975,394.843,492.104z M335.7,461.635h18.536
				v8.381h-18.936c0.547-1.452,0.859-2.998,0.882-4.596C336.202,464.123,336.032,462.853,335.7,461.635z M416.551,243.605
				c-0.014,0.072-0.022,0.147-0.034,0.22c-5.578,34.609-21.235,66.247-45.462,91.095c-13.855,14.21-29.837,25.514-47.232,33.636
				c-0.375,0.139-0.738,0.31-1.088,0.508c-1.684,0.771-3.382,1.511-5.091,2.222c-0.154,0.048-0.309,0.093-0.463,0.152
				c-0.268,0.103-0.524,0.223-0.773,0.352c-9.366,3.803-19.096,6.713-29.093,8.678c-0.338,0.042-0.671,0.102-0.996,0.188
				c-9.887,1.879-20.024,2.851-30.32,2.851c-10.309,0-20.459-0.975-30.357-2.858c-0.299-0.078-0.606-0.133-0.917-0.173
				c-10.01-1.965-19.755-4.877-29.133-8.685c-0.249-0.129-0.505-0.249-0.773-0.352c-0.154-0.059-0.31-0.104-0.465-0.153
				c-1.712-0.712-3.411-1.453-5.097-2.225c-0.346-0.195-0.704-0.364-1.074-0.502c-17.397-8.123-33.381-19.427-47.238-33.639
				c-24.227-24.847-39.883-56.486-45.462-91.094c-0.012-0.073-0.02-0.148-0.034-0.221c-1.488-9.309-2.256-18.831-2.256-28.494
				c0-4.747,0.205-9.542,0.581-14.321c28.33-1.208,63.418-16.607,77.202-41.19c29.483,20.784,116.963,46.213,195.415,46.212
				c18.043-0.001,35.606-1.354,51.88-4.41c0.341,4.558,0.534,9.142,0.534,13.71C418.806,224.774,418.038,234.296,416.551,243.605z
				 M427.949,183.888c-36.883,9.659-87.772,9.212-143.294-1.253c-44.591-8.405-87.917-23.016-105.362-35.529
				c-3.373-2.42-7.629-3.277-11.678-2.359c-4.064,0.924-7.547,3.555-9.555,7.217c-11.626,21.204-46.23,34.962-70.426,33.868
				c-0.266-0.025-0.53-0.035-0.792-0.031c-2.569-0.152-5.017-0.472-7.297-0.977c-0.014-0.003-0.042-0.032-0.067-0.069
				c-0.003-0.007-0.007-0.013-0.011-0.02c-0.024-0.045-0.044-0.102-0.033-0.169c2.506-16.007,6.996-31.576,13.35-46.363h138.098
				c7.675,2.833,15.966,4.383,24.614,4.383c8.647,0,16.938-1.55,24.614-4.383h139.088c5.53,12.869,9.659,26.347,12.28,40.147
				C431.947,180.814,430.397,183.247,427.949,183.888z M432.613,236.697c0.784-7.107,1.193-14.309,1.193-21.587
				c0-5.707-0.257-11.441-0.749-17.122c1.663-0.561,3.206-1.329,4.617-2.269c6.782,3.986,11.125,11.331,11.125,19.391
				C448.799,225.323,441.954,233.963,432.613,236.697z"/>
			<path d="M255.496,104.371c18.24,0,33.079-14.839,33.079-33.078c0-18.24-14.839-33.079-33.079-33.079
				s-33.079,14.839-33.079,33.079C222.418,89.532,237.257,104.371,255.496,104.371z M255.496,53.214
				c9.969,0,18.079,8.11,18.079,18.079c0,9.969-8.11,18.078-18.079,18.078s-18.079-8.109-18.079-18.078
				C237.418,61.324,245.527,53.214,255.496,53.214z"/>
			<path d="M283.791,225.098c-3.123-2.721-7.86-2.396-10.581,0.727c-4.345,4.984-10.618,7.844-17.21,7.844
				c-6.592,0-12.865-2.859-17.21-7.844c-2.721-3.122-7.46-3.447-10.581-0.727c-3.123,2.722-3.448,7.459-0.726,10.582
				c7.194,8.254,17.588,12.988,28.518,12.988c10.929,0,21.324-4.734,28.518-12.988C287.239,232.557,286.915,227.819,283.791,225.098
				z"/>
			<path d="M169.28,208.218c-4.142,0-7.5,3.357-7.5,7.5v14.395c0,4.143,3.358,7.5,7.5,7.5c4.142,0,7.5-3.357,7.5-7.5v-14.395
				C176.78,211.575,173.421,208.218,169.28,208.218z"/>
		</g>
	</g>
</g>
<g>
</g>
<g>
</g>
<g>
</g>
<g>
</g>
<g>
</g>
<g>
</g>
<g>
</g>
<g>
</g>
<g>
</g>
<g>
</g>
<g>
</g>
<g>
</g>
<g>
</g>
<g>
</g>
<g>
</g>
</svg>
