<svg id="Capa_1" enable-background="new 0 0 512 512" height="512" viewBox="0 0 512 512" width="512" xmlns="http://www.w3.org/2000/svg"><g><g><path d="m427.333 7.5h-342.665c-17.233 0-31.204 13.97-31.204 31.203v163.61h405.072v-163.61c0-17.233-13.97-31.203-31.203-31.203z" fill="#ececec"/><path d="m114.668 7.5h-30c-17.233 0-31.204 13.97-31.204 31.203v163.61h30v-163.61c0-17.233 13.971-31.203 31.204-31.203z" fill="#dededc"/><path d="m458.536 168.378h-405.072c-22.785 0-41.256 18.471-41.256 41.256v294.866h487.584v-294.866c0-22.785-18.471-41.256-41.256-41.256z" fill="#80d8e6"/><path d="m83.464 168.378h-30c-22.785 0-41.256 18.471-41.256 41.256v294.866h30v-294.866c0-22.785 18.471-41.256 41.256-41.256z" fill="#00c8de"/><path d="m298.645 68.423h-23.129v-23.129c0-3.621-2.935-6.555-6.555-6.555h-25.922c-3.62 0-6.555 2.934-6.555 6.555v23.129h-23.129c-3.62 0-6.555 2.935-6.555 6.555v25.922c0 3.62 2.935 6.555 6.555 6.555h23.129v23.129c0 3.62 2.935 6.555 6.555 6.555h25.922c3.62 0 6.555-2.935 6.555-6.555v-23.129h23.129c3.62 0 6.555-2.935 6.555-6.555v-25.922c0-3.62-2.935-6.555-6.555-6.555z" fill="#fd5f7e"/><path d="m289.819 382.442h-67.637c-11.53 0-20.877 9.347-20.877 20.876v101.182h109.391v-101.182c0-11.529-9.347-20.876-20.877-20.876z" fill="#00c8de"/><g fill="#ececec"><path d="m109.555 224.464h-35.281c-6.925 0-12.539 5.614-12.539 12.539v35.281c0 6.925 5.614 12.539 12.539 12.539h35.281c6.925 0 12.539-5.614 12.539-12.539v-35.281c0-6.925-5.614-12.539-12.539-12.539z"/><path d="m218.945 224.464h-35.281c-6.925 0-12.539 5.614-12.539 12.539v35.281c0 6.925 5.614 12.539 12.539 12.539h35.281c6.925 0 12.539-5.614 12.539-12.539v-35.281c0-6.925-5.614-12.539-12.539-12.539z"/><path d="m328.336 224.464h-35.281c-6.925 0-12.539 5.614-12.539 12.539v35.281c0 6.925 5.614 12.539 12.539 12.539h35.281c6.925 0 12.539-5.614 12.539-12.539v-35.281c-.001-6.925-5.615-12.539-12.539-12.539z"/><path d="m109.555 314.505h-35.281c-6.925 0-12.539 5.614-12.539 12.539v35.28c0 6.926 5.614 12.539 12.539 12.539h35.281c6.925 0 12.539-5.613 12.539-12.539v-35.28c0-6.925-5.614-12.539-12.539-12.539z"/><path d="m109.555 404.546h-35.281c-6.925 0-12.539 5.614-12.539 12.539v35.28c0 6.926 5.614 12.539 12.539 12.539h35.281c6.925 0 12.539-5.613 12.539-12.539v-35.28c0-6.925-5.614-12.539-12.539-12.539z"/><path d="m402.445 224.464h35.281c6.925 0 12.539 5.614 12.539 12.539v35.281c0 6.925-5.614 12.539-12.539 12.539h-35.281c-6.925 0-12.539-5.614-12.539-12.539v-35.281c0-6.925 5.614-12.539 12.539-12.539z"/><path d="m402.445 314.505h35.281c6.925 0 12.539 5.614 12.539 12.539v35.28c0 6.926-5.614 12.539-12.539 12.539h-35.281c-6.925 0-12.539-5.613-12.539-12.539v-35.28c0-6.925 5.614-12.539 12.539-12.539z"/><path d="m402.445 404.546h35.281c6.925 0 12.539 5.614 12.539 12.539v35.28c0 6.926-5.614 12.539-12.539 12.539h-35.281c-6.925 0-12.539-5.613-12.539-12.539v-35.28c0-6.925 5.614-12.539 12.539-12.539z"/></g></g><g><path d="m268.961 31.239h-25.922c-7.75 0-14.055 6.305-14.055 14.055v15.629h-15.629c-7.75 0-14.055 6.305-14.055 14.055v25.922c0 7.75 6.305 14.055 14.055 14.055h15.629v15.629c0 7.75 6.305 14.055 14.055 14.055h25.922c7.75 0 14.055-6.305 14.055-14.055v-15.629h15.629c7.75 0 14.055-6.305 14.055-14.055v-25.922c0-7.75-6.305-14.055-14.055-14.055h-15.629v-15.629c0-7.75-6.305-14.055-14.055-14.055zm28.739 44.684v24.032h-22.184c-4.142 0-7.5 3.358-7.5 7.5v22.184h-24.032v-22.184c0-4.142-3.357-7.5-7.5-7.5h-22.184v-24.032h22.184c4.143 0 7.5-3.358 7.5-7.5v-22.184h24.032v22.184c0 4.142 3.358 7.5 7.5 7.5z"/><path d="m164.122 321.812v16.214c0 4.142 3.358 7.5 7.5 7.5s7.5-3.358 7.5-7.5v-16.214c0-4.142-3.358-7.5-7.5-7.5s-7.5 3.358-7.5 7.5z"/><path d="m332.879 321.812v16.214c0 4.142 3.358 7.5 7.5 7.5s7.5-3.358 7.5-7.5v-16.214c0-4.142-3.358-7.5-7.5-7.5s-7.5 3.358-7.5 7.5z"/><path d="m256 355.179c10.693 0 20.862-4.632 27.9-12.708 2.721-3.123 2.396-7.86-.728-10.582-3.123-2.721-7.859-2.396-10.581.727-4.188 4.806-10.236 7.563-16.592 7.563s-12.404-2.756-16.592-7.563c-2.721-3.123-7.459-3.448-10.582-.727s-3.449 7.459-.727 10.582c7.04 8.076 17.209 12.708 27.902 12.708z"/><path d="m129.594 237.003c0-11.049-8.989-20.039-20.039-20.039h-35.281c-11.049 0-20.039 8.99-20.039 20.039v35.281c0 11.049 8.99 20.039 20.039 20.039h35.281c11.05 0 20.039-8.99 20.039-20.039zm-15 35.282c0 2.778-2.261 5.039-5.039 5.039h-35.281c-2.778 0-5.039-2.261-5.039-5.039v-35.281c0-2.778 2.261-5.039 5.039-5.039h35.281c2.778 0 5.039 2.261 5.039 5.039z"/><path d="m218.945 292.324c11.049 0 20.039-8.99 20.039-20.039v-35.281c0-11.049-8.99-20.039-20.039-20.039h-35.281c-11.05 0-20.039 8.99-20.039 20.039v35.281c0 11.049 8.989 20.039 20.039 20.039zm-40.32-20.039v-35.281c0-2.778 2.26-5.039 5.039-5.039h35.281c2.779 0 5.039 2.261 5.039 5.039v35.281c0 2.778-2.26 5.039-5.039 5.039h-35.281c-2.778 0-5.039-2.261-5.039-5.039z"/><path d="m348.375 237.003c0-11.049-8.989-20.039-20.039-20.039h-35.281c-11.049 0-20.039 8.99-20.039 20.039v35.281c0 11.049 8.99 20.039 20.039 20.039h35.281c11.05 0 20.039-8.99 20.039-20.039zm-15 35.282c0 2.778-2.261 5.039-5.039 5.039h-35.281c-2.779 0-5.039-2.261-5.039-5.039v-35.281c0-2.778 2.26-5.039 5.039-5.039h35.281c2.778 0 5.039 2.261 5.039 5.039z"/><path d="m129.594 327.044c0-11.049-8.989-20.039-20.039-20.039h-35.281c-11.049 0-20.039 8.99-20.039 20.039v35.28c0 11.049 8.99 20.039 20.039 20.039h35.281c11.05 0 20.039-8.99 20.039-20.039zm-15 35.281c0 2.778-2.261 5.039-5.039 5.039h-35.281c-2.778 0-5.039-2.261-5.039-5.039v-35.28c0-2.778 2.261-5.039 5.039-5.039h35.281c2.778 0 5.039 2.261 5.039 5.039z"/><path d="m109.555 397.046h-35.281c-11.049 0-20.039 8.99-20.039 20.039v35.28c0 11.049 8.99 20.039 20.039 20.039h35.281c11.05 0 20.039-8.99 20.039-20.039v-35.28c0-11.049-8.989-20.039-20.039-20.039zm5.039 55.32c0 2.778-2.261 5.039-5.039 5.039h-35.281c-2.778 0-5.039-2.261-5.039-5.039v-35.28c0-2.778 2.261-5.039 5.039-5.039h35.281c2.778 0 5.039 2.261 5.039 5.039z"/><path d="m457.765 237.003c0-11.049-8.99-20.039-20.039-20.039h-35.281c-11.05 0-20.039 8.99-20.039 20.039v35.281c0 11.049 8.99 20.039 20.039 20.039h35.281c11.05 0 20.039-8.99 20.039-20.039zm-15 35.282c0 2.778-2.26 5.039-5.039 5.039h-35.281c-2.779 0-5.039-2.261-5.039-5.039v-35.281c0-2.778 2.26-5.039 5.039-5.039h35.281c2.779 0 5.039 2.261 5.039 5.039z"/><path d="m457.765 327.044c0-11.049-8.99-20.039-20.039-20.039h-35.281c-11.05 0-20.039 8.99-20.039 20.039v35.28c0 11.049 8.99 20.039 20.039 20.039h35.281c11.05 0 20.039-8.99 20.039-20.039zm-15 35.281c0 2.778-2.26 5.039-5.039 5.039h-35.281c-2.779 0-5.039-2.261-5.039-5.039v-35.28c0-2.778 2.26-5.039 5.039-5.039h35.281c2.779 0 5.039 2.261 5.039 5.039z"/><path d="m437.726 397.046h-35.281c-11.05 0-20.039 8.99-20.039 20.039v35.28c0 11.049 8.99 20.039 20.039 20.039h35.281c11.05 0 20.039-8.99 20.039-20.039v-35.28c0-11.049-8.989-20.039-20.039-20.039zm5.039 55.32c0 2.778-2.26 5.039-5.039 5.039h-35.281c-2.779 0-5.039-2.261-5.039-5.039v-35.28c0-2.778 2.26-5.039 5.039-5.039h35.281c2.779 0 5.039 2.261 5.039 5.039z"/><path d="m12.208 512h487.584c4.142 0 7.5-3.358 7.5-7.5v-178.638c0-4.142-3.358-7.5-7.5-7.5s-7.5 3.358-7.5 7.5v171.138h-174.096v-93.682c0-15.647-12.73-28.376-28.377-28.376h-67.637c-15.647 0-28.377 12.729-28.377 28.376v93.682h-174.097v-287.366c0-18.613 15.143-33.756 33.756-33.756h405.072c18.613 0 33.756 15.143 33.756 33.756v86.228c0 4.142 3.358 7.5 7.5 7.5s7.5-3.358 7.5-7.5v-86.228c0-24.334-17.92-44.56-41.256-48.178v-122.753c0-21.341-17.362-38.703-38.703-38.703h-342.666c-21.341 0-38.703 17.362-38.703 38.703v35.567c0 4.142 3.358 7.5 7.5 7.5s7.5-3.358 7.5-7.5v-35.567c0-13.07 10.633-23.703 23.703-23.703h342.665c13.07 0 23.703 10.633 23.703 23.703v122.175h-390.071v-56.608c0-4.142-3.358-7.5-7.5-7.5s-7.5 3.358-7.5 7.5v57.186c-23.336 3.619-41.256 23.844-41.256 48.178v294.866c0 4.142 3.358 7.5 7.5 7.5zm196.597-108.682c0-7.376 6.001-13.376 13.377-13.376h67.637c7.376 0 13.377 6 13.377 13.376v93.682h-94.391z"/></g></g></svg>