<?xml version="1.0" encoding="iso-8859-1"?>
<!-- Generator: Adobe Illustrator 19.0.0, SVG Export Plug-In . SVG Version: 6.00 Build 0)  -->
<svg version="1.1" id="Capa_1" xmlns="http://www.w3.org/2000/svg" xmlns:xlink="http://www.w3.org/1999/xlink" x="0px" y="0px"
	 viewBox="0 0 512 512" style="enable-background:new 0 0 512 512;" xml:space="preserve">
<path style="fill:#7397DA;" d="M426.434,504.5H158.125c-22.794,0-41.271-18.478-41.271-41.271v-225.66
	c0-20.917,8.52-40.931,23.595-55.431l18.058-17.367c10.407-10.009,16.289-23.826,16.289-38.266V96.926h234.967v29.578
	c0,14.44,5.882,28.256,16.289,38.266l18.058,17.367c15.076,14.499,23.595,34.514,23.595,55.431v225.66
	C467.705,486.022,449.228,504.5,426.434,504.5z"/>
<path style="fill:#DDEFF5;" d="M236.479,443.065h231.226V257.732H236.479c-11.542,0-20.898,9.356-20.898,20.898v143.537
	C215.581,433.709,224.938,443.065,236.479,443.065z"/>
<g>
	<ellipse style="fill:#F8B8BD;" cx="269.15" cy="333.66" rx="26.748" ry="21.301"/>
	<ellipse style="fill:#F8B8BD;" cx="414.13" cy="333.66" rx="26.748" ry="21.301"/>
</g>
<path style="fill:#8EDBD6;" d="M215.581,422.167c0,11.542,9.356,20.898,20.898,20.898h48.261v-36.752
	c0-17.579-14.251-31.83-31.83-31.83h-37.329V422.167z"/>
<path style="opacity:0.15;fill:#003A63;enable-background:new    ;" d="M455.004,492.997
	c-210.771-33.849-207.039-225.502-205.151-323.766c0.245-12.747,10.648-22.944,23.398-22.944h140.354
	c-2.502-6.229-3.841-12.933-3.841-19.783V96.926H174.796v29.578c0,14.439-5.882,28.256-16.289,38.266l-18.058,17.368
	c-15.076,14.499-23.595,34.514-23.595,55.431v225.66c0,22.793,18.478,41.271,41.271,41.271h268.309
	C437.526,504.5,447.587,500.116,455.004,492.997z"/>
<path style="fill:#8EDBD6;" d="M419.272,7.5H165.287c-19.735,0-35.733,15.998-35.733,35.733v29.282
	c0,13.481,10.929,24.41,24.41,24.41h276.63c13.482,0,24.41-10.929,24.41-24.41V43.233C455.005,23.498,439.007,7.5,419.272,7.5z"/>
<path style="opacity:0.15;fill:#2C6245;enable-background:new    ;" d="M202.139,44.933c-4.021,0-7.28,3.26-7.28,7.28v44.713h14.561
	V52.213C209.419,48.192,206.16,44.933,202.139,44.933z M382.42,44.933c-4.021,0-7.28,3.26-7.28,7.28v44.713h14.56V52.213
	C389.7,48.192,386.441,44.933,382.42,44.933z M292.279,44.933c-4.021,0-7.28,3.26-7.28,7.28v44.713h14.561V52.213
	C299.56,48.192,296.301,44.933,292.279,44.933z"/>
<path style="fill:#F8B8BD;" d="M180.287,276.612L180.287,276.612c-18.375,18.375-48.167,18.375-66.542,0L58.05,220.917
	c-18.375-18.375-18.375-48.167,0-66.542l0,0c18.375-18.375,48.167-18.375,66.542,0l55.695,55.695
	C198.662,228.445,198.662,258.237,180.287,276.612z"/>
<path style="fill:#E68392;" d="M152.439,182.223l-66.542,66.542L58.05,220.917c-18.375-18.375-18.375-48.167,0-66.542l0,0
	c18.375-18.375,48.167-18.375,66.542,0L152.439,182.223z"/>
<path style="opacity:0.15;fill:#8D4330;enable-background:new    ;" d="M180.287,276.612L180.287,276.612
	c1.206-1.207,2.329-2.465,3.377-3.763c-66.931-21.728-101.293-89.716-105.277-130.442c-7.446,2.121-14.474,6.105-20.337,11.968l0,0
	c-18.375,18.375-18.375,48.167,0,66.542l55.695,55.695C132.12,294.987,161.912,294.987,180.287,276.612z"/>
<path d="M398.547,319.913c4.142,0,7.5-3.358,7.5-7.5v-9.446c0-4.142-3.358-7.5-7.5-7.5c-4.143,0-7.5,3.358-7.5,7.5v9.446
	C391.047,316.555,394.404,319.913,398.547,319.913z M449.309,176.732l-18.058-17.367c-8.89-8.549-13.988-20.526-13.988-32.86
	v-22.078h13.331c17.596,0,31.911-14.315,31.911-31.911V43.233C462.506,19.395,443.111,0,419.272,0h-204.61
	c-4.142,0-7.5,3.358-7.5,7.5s3.358,7.5,7.5,7.5h204.61c15.568,0,28.233,12.666,28.233,28.233v29.282
	c0,9.325-7.586,16.911-16.911,16.911h-276.63c-9.325,0-16.911-7.586-16.911-16.911V43.233c0-15.568,12.665-28.233,28.233-28.233
	h14.029c4.142,0,7.5-3.358,7.5-7.5s-3.358-7.5-7.5-7.5h-14.029c-23.839,0-43.233,19.395-43.233,43.233v29.282
	c0,17.596,14.315,31.911,31.911,31.911h13.332v22.078c0,12.333-5.099,24.311-13.988,32.86l-6.688,6.432l-16.725-16.725
	c-10.304-10.304-24.003-15.978-38.574-15.978c-14.572,0-28.271,5.675-38.574,15.979c-21.27,21.27-21.27,55.878,0,77.148
	l27.845,27.845c0.001,0.001,0.002,0.002,0.002,0.003c0.001,0.001,0.002,0.002,0.003,0.002l27.845,27.845
	c0.298,0.298,0.609,0.577,0.912,0.867v180.446c0,26.893,21.879,48.772,48.771,48.772h268.309c26.892,0,48.772-21.879,48.772-48.772
	v-225.66C475.206,214.734,465.766,192.561,449.309,176.732z M63.353,215.614c-15.421-15.421-15.421-40.514,0-55.936
	c7.712-7.711,17.838-11.566,27.968-11.566c10.127,0,20.258,3.856,27.968,11.566l22.544,22.544l-55.936,55.936L63.353,215.614z
	 M121.627,273.659c-0.001-0.001-0.003-0.002-0.004-0.004c-0.883-0.74-1.745-1.516-2.575-2.346l-22.544-22.545l55.936-55.936
	l22.544,22.545c15.421,15.421,15.421,40.514,0,55.936C160.393,285.9,137.151,286.677,121.627,273.659z M460.206,250.232H236.479
	c-15.658,0-28.397,12.739-28.397,28.398v95.843c0,0.003-0.001,0.006-0.001,0.01s0.001,0.006,0.001,0.01v47.674
	c0,15.659,12.739,28.398,28.397,28.398h172.322c4.143,0,7.5-3.358,7.5-7.5s-3.357-7.5-7.5-7.5H292.24v-29.252
	c0-21.686-17.643-39.33-39.33-39.33h-29.828V278.63c0-7.388,6.01-13.398,13.397-13.398h223.727v170.333h-16.322
	c-4.143,0-7.5,3.358-7.5,7.5s3.357,7.5,7.5,7.5h16.322v12.664c0,18.622-15.15,33.772-33.772,33.772H158.125
	c-18.622,0-33.771-15.15-33.771-33.772v-170.27c7.176,3.268,14.918,4.909,22.662,4.909c13.97,0,27.939-5.317,38.574-15.953
	c21.27-21.27,21.27-55.878,0-77.148l-28.361-28.361l6.477-6.229c11.814-11.363,18.59-27.28,18.59-43.672v-22.078h219.967v22.078
	c0,16.392,6.776,32.31,18.59,43.672l18.058,17.367c13.533,13.015,21.295,31.249,21.295,50.025L460.206,250.232L460.206,250.232z
	 M223.082,381.983h29.828c13.416,0,24.33,10.915,24.33,24.33v29.252h-40.761c-7.387,0-13.397-6.01-13.397-13.398L223.082,381.983
	L223.082,381.983z M284.74,295.467c-4.142,0-7.5,3.358-7.5,7.5v9.446c0,4.142,3.358,7.5,7.5,7.5c4.143,0,7.5-3.358,7.5-7.5v-9.446
	C292.24,298.825,288.882,295.467,284.74,295.467z M430.093,374.483c0-4.142-3.357-7.5-7.5-7.5h-91.487c-4.143,0-7.5,3.358-7.5,7.5
	s3.357,7.5,7.5,7.5h91.487C426.736,381.983,430.093,378.625,430.093,374.483z M362.299,317.76c2.722-3.123,2.397-7.86-0.726-10.582
	c-3.122-2.722-7.86-2.397-10.581,0.726c-2.361,2.709-5.77,4.263-9.35,4.263c-3.58,0-6.987-1.553-9.348-4.262
	c-2.722-3.124-7.46-3.448-10.582-0.727s-3.448,7.459-0.727,10.582c5.21,5.978,12.738,9.407,20.656,9.407
	C349.56,327.167,357.09,323.738,362.299,317.76z M430.093,407.958c0-4.142-3.357-7.5-7.5-7.5h-62.072c-4.143,0-7.5,3.358-7.5,7.5
	s3.357,7.5,7.5,7.5h62.072C426.736,415.458,430.093,412.1,430.093,407.958z"/>
<g>
</g>
<g>
</g>
<g>
</g>
<g>
</g>
<g>
</g>
<g>
</g>
<g>
</g>
<g>
</g>
<g>
</g>
<g>
</g>
<g>
</g>
<g>
</g>
<g>
</g>
<g>
</g>
<g>
</g>
</svg>
