<svg height="511pt" viewBox="0 -84 511.99967 511" width="511pt" xmlns="http://www.w3.org/2000/svg"><path d="m143.242188 94.066406h225.515624v147.40625h-225.515624zm0 0" fill="#898890"/><path d="m33.34375 153.324219s112.175781 25.476562 222.65625 25.476562c110.476562 0 222.652344-25.476562 222.652344-25.476562s13.726562 191.175781-222.652344 191.175781c-236.378906 0-222.65625-191.175781-222.65625-191.175781zm0 0" fill="#ff929f"/><path d="m256 178.800781c-110.480469 0-222.65625-25.476562-222.65625-25.476562s-11.5 160.339843 168.117188 187.339843c-4.652344-14.339843-6.582032-27.453124-6.683594-39.238281-.320313-37.464843 28.492187-68.753906 65.769531-72.519531 64-6.460938 120.355469-41.273438 120.355469-41.273438v-17.644531c-37.195313 4.820313-81.179688 8.8125-124.902344 8.8125zm0 0" fill="#ff7b88"/><path d="m500.054688 131.222656c-62.238282-42.394531-109.550782-99.109375-109.550782-99.105468-18.589844-22.105469-47.597656-34.699219-78.410156-30.96875-15.714844 1.90625-29.964844 7.820312-41.851562 16.597656-8.453126 6.242187-20.027344 6.242187-28.484376 0-11.886718-8.777344-26.136718-14.691406-41.851562-16.597656-30.8125-3.730469-59.820312 8.863281-78.40625 30.96875-.003906-.003907-47.320312 56.710937-109.554688 99.105468-20.917968 14.25-12.820312 46.90625 12.308594 49.9375 65.125 7.859375 151.519532 12.601563 198.898438-10.410156 0 0 9.878906-3.886719 21.238281-13.074219 6.75-5.457031 16.472656-5.457031 23.21875 0 11.359375 9.1875 21.238281 13.074219 21.238281 13.074219 47.378906 23.011719 133.773438 18.269531 198.902344 10.410156 25.125-3.03125 33.222656-35.6875 12.304688-49.9375zm0 0" fill="#ffa5b5"/><path d="m301.917969 293.703125c-1.957031-8.308594 3.195312-16.628906 11.5-18.582031 44.863281-10.558594 67.207031-35.90625 67.421875-36.160156 5.492187-6.527344 15.242187-7.367188 21.769531-1.871094 6.53125 5.496094 7.367187 15.246094 1.871094 21.773437-1.136719 1.355469-28.59375 33.039063-83.980469 46.339844-9.597656 2.304687-16.90625-4.382813-18.582031-11.5zm0 0" fill="#ffbdcd"/><path d="m107.117188 115.910156c15.839843-28.75 30.144531-98.488281 30.144531-98.488281-5.816407 4.234375-11.117188 9.175781-15.765625 14.703125 0 0-47.316406 56.710938-109.550782 99.109375-20.917968 14.25-12.820312 46.90625 12.308594 49.9375 56.109375 6.769531 127.984375 11.222656 177.117188-2.386719-82.699219 19.726563-108.640625-36.761718-94.253906-62.875zm0 0" fill="#ff929f"/><path d="m258.632812 310.625c-8.84375 0-17.957031-.925781-27.089843-2.136719-8.460938-1.121093-14.414063-8.886719-13.292969-17.347656s8.890625-14.40625 17.347656-13.289063c8.035156 1.0625 16.03125 1.695313 23.765625 1.878907 8.535157.199219 15.285157 7.28125 15.085938 15.8125-.199219 8.40625-5.910157 15.082031-15.816407 15.082031zm0 0" fill="#ffbdcd"/></svg>