<svg id="Capa_1" enable-background="new 0 0 512 512" height="512" viewBox="0 0 512 512" width="512" xmlns="http://www.w3.org/2000/svg"><g><g><path d="m94.583 323.781-68.558 17.515-10.842 67.79 24.542 63.189 63.189 24.542 67.79-10.843 28.474-57.598z" fill="#ffddcf"/><path d="m485.569 79.702-53.271-53.271c-25.241-25.241-66.165-25.241-91.406 0l-58.202 58.202 144.677 144.677 58.202-58.202c25.241-25.241 25.241-66.165 0-91.406z" fill="#ff8a98"/><path d="m427.367 229.31 58.202-58.202c25.241-25.241 25.241-66.165 0-91.406l-19.997-19.997c25.238 25.241 25.237 66.163-.003 91.403l-58.202 58.202z" fill="#ff6e80"/><path d="m164.87 451.807-108.104 27.087 46.148 17.923 67.79-10.843 11.866-24.002z" fill="#ffcbbe"/><path d="m282.69 84.633-256.664 256.664 61.791 10.548 10.547 61.791 61.791 10.547 10.548 61.791 256.664-256.664z" fill="#f9ee80"/><path d="m407.367 209.31-242.497 242.497 5.833 34.167 256.664-256.664z" fill="#fdc072"/><path d="m453.227 203.45-144.676-144.677c-7.929-7.929-20.784-7.929-28.713 0l-23.008 23.008c-7.929 7.929-7.929 20.784 0 28.712l144.677 144.677c7.929 7.929 20.784 7.929 28.713 0l23.008-23.008c7.928-7.929 7.928-20.784-.001-28.712z" fill="#c8c6cc"/><path d="m401.507 255.17c7.929 7.929 20.784 7.929 28.713 0l23.008-23.008c7.929-7.929 7.929-20.784 0-28.712l-20-20c7.929 7.929 7.929 20.784 0 28.712l-23.008 23.008c-7.929 7.929-20.784 7.929-28.713 0z" fill="#a29dae"/><path d="m15.183 409.086-7.115 44.454c-4.735 29.567 20.825 55.126 50.391 50.391l44.454-7.114z" fill="#6a647f"/><ellipse cx="221.516" cy="290.484" fill="#fdc072" rx="99.371" ry="55.597" transform="matrix(.707 -.707 .707 .707 -140.523 241.718)"/><path d="m58.459 503.932 44.454-7.114-23.578-23.579-61.591 15.433c9.468 11.315 24.481 17.86 40.715 15.26z" fill="#423e4f"/></g><g><path d="m306.235 270.641c13.588-48.105-15.993-78.652-64.85-64.85-45.317 12.801-91.738 59.207-104.546 104.546-6.617 23.425-3.374 43.213 9.132 55.719 8.266 8.267 19.712 12.486 33.29 12.485 49.023-.001 111.542-53.273 126.974-107.9zm-154.962 43.773c13.969-49.451 71.587-96.982 112.514-96.982 46.205 0 37.963 60.859-8.242 107.065-53.862 53.861-122.115 53.087-104.272-10.083z"/><path d="m179.783 322.422c-2.929-2.929-7.677-2.929-10.606 0s-2.929 7.677 0 10.606l8.099 8.099c1.464 1.464 3.384 2.197 5.303 2.197 6.621 0 10.041-8.065 5.303-12.803z"/><path d="m261.569 256.834c1.464 1.464 3.384 2.196 5.303 2.196 6.622 0 10.041-8.065 5.303-12.802l-8.099-8.099c-2.929-2.929-7.677-2.929-10.606 0s-2.929 7.677 0 10.606z"/><path d="m212.859 312.03c17.125 1.18 31.4-13.022 30.219-30.22-.284-4.133-3.869-7.251-7.996-6.968-4.132.284-7.252 3.864-6.968 7.996.555 8.077-6.127 14.784-14.227 14.227-4.132-.284-7.712 2.836-7.996 6.968-.284 4.134 2.836 7.713 6.968 7.997z"/><path d="m463.112 204.19 27.77-27.77c28.124-28.124 28.124-73.885 0-102.009l-53.269-53.269c-28.188-28.189-73.816-28.193-102.008 0l-27.77 27.77c-10.592-5.95-24.279-4.432-33.282 4.57l-23.007 23.007c-9.002 9.002-10.521 22.69-4.57 33.282l-127.334 127.336c-2.929 2.929-2.929 7.677 0 10.606s7.677 2.929 10.606 0l126.601-126.601c6.102 6.102 129.861 129.86 134.065 134.064l-31.932 31.932c-2.929 2.929-2.929 7.677 0 10.606 2.927 2.928 7.677 2.93 10.606 0l32.664-32.664c10.717 6.02 24.367 4.344 33.282-4.571l23.007-23.007c9.003-9.002 10.521-22.69 4.571-33.282zm-116.901-172.441c22.328-22.328 58.465-22.33 80.796 0l53.269 53.269c22.275 22.275 22.275 58.52 0 80.796l-27.038 27.037c-7.441-7.441-126.61-126.61-134.065-134.064zm101.725 195.117-23.007 23.007c-4.991 4.991-13.113 4.992-18.105 0l-144.672-144.671c-4.992-4.992-4.992-13.114 0-18.105l23.007-23.007c4.991-4.991 13.113-4.992 18.106 0l144.671 144.671c4.991 4.992 4.991 13.114 0 18.105z"/><path d="m.692 452.353c-5.549 34.65 24.338 64.526 58.98 58.98 121.423-19.431 113.063-17.779 115.017-19.004 1.169-.728-11.291 11.575 173.687-173.403 2.929-2.929 2.929-7.677 0-10.606s-7.677-2.929-10.606 0l-162.092 162.093-8.107-47.492c-.536-3.138-2.994-5.595-6.131-6.131l-56.551-9.653-9.653-56.552c-.536-3.138-2.993-5.595-6.131-6.131l-47.492-8.107 67.423-67.423c2.929-2.929 2.929-7.677 0-10.606s-7.677-2.929-10.606 0l-77.678 77.678c-2.5 2.491-1.011-2.661-20.06 116.357zm56.608 44.17c-24.554 3.931-45.729-17.25-41.798-41.798l4.793-29.948 66.953 66.953zm33.697-81.625c.536 3.138 2.994 5.595 6.131 6.131l56.551 9.653 8.378 49.082-56.522 9.04-82.313-82.314 9.04-56.522 49.082 8.378z"/></g></g></svg>