<?xml version="1.0" encoding="iso-8859-1"?>
<!-- Generator: Adobe Illustrator 19.0.0, SVG Export Plug-In . SVG Version: 6.00 Build 0)  -->
<svg version="1.1" id="Capa_1" xmlns="http://www.w3.org/2000/svg" xmlns:xlink="http://www.w3.org/1999/xlink" x="0px" y="0px"
	 viewBox="0 0 512 512" style="enable-background:new 0 0 512 512;" xml:space="preserve">
<path style="fill:#9B7E73;" d="M186.982,423.051h-35.193c-31.82,0-57.615-25.795-57.615-57.615V162.672h150.423v202.763
	C244.597,397.255,218.802,423.051,186.982,423.051z"/>
<path style="fill:#E77587;" d="M365.58,394.949L365.58,394.949c0-60.519-49.06-109.58-109.58-109.58l0,0
	c-60.519,0-109.58,49.06-109.58,109.58v109.096c0,4.393,3.561,7.955,7.955,7.955h270.151c5.083,0,9.052-4.355,8.639-9.422
	c-3.148-38.6-25.469-71.772-57.421-89.987C369.426,408.989,365.58,402.222,365.58,394.949z"/>
<path style="opacity:0.1;enable-background:new    ;" d="M256,285.37L256,285.37c-31.404,0-59.719,13.214-79.698,34.381
	c23.538,13.31,50.728,20.914,79.698,20.914s56.16-7.605,79.698-20.914C315.719,298.583,287.404,285.37,256,285.37z"/>
<circle style="fill:#FFD4B8;" cx="93.83" cy="162.38" r="28.599"/>
<circle style="fill:#DF85C6;" cx="87.03" cy="190.98" r="18.991"/>
<circle style="fill:#FFD4B8;" cx="418.17" cy="162.38" r="28.599"/>
<circle style="fill:#DF85C6;" cx="424.97" cy="190.98" r="18.991"/>
<circle style="fill:#FFD4B8;" cx="256" cy="162.16" r="162.16"/>
<g>
	<path style="fill:#4A5058;" d="M256,222.513c-8.541,0-16.794-3.58-22.642-9.821c-2.832-3.023-2.678-7.769,0.345-10.601
		c3.023-2.833,7.771-2.676,10.601,0.345c3.068,3.274,7.222,5.077,11.696,5.077c4.475,0,8.628-1.803,11.696-5.077
		c2.829-3.022,7.576-3.177,10.601-0.345c3.022,2.832,3.177,7.578,0.345,10.601C272.794,218.933,264.541,222.513,256,222.513z"/>
	<path style="fill:#4A5058;" d="M188.419,177.497c-4.143,0-7.5-3.358-7.5-7.5c0-3.942-3.207-7.148-7.148-7.148
		c-3.941,0-7.148,3.207-7.148,7.148c0,4.142-3.357,7.5-7.5,7.5s-7.5-3.358-7.5-7.5c0-12.213,9.936-22.148,22.148-22.148
		c12.213,0,22.148,9.936,22.148,22.148C195.919,174.139,192.561,177.497,188.419,177.497z"/>
	<path style="fill:#4A5058;" d="M352.878,177.497c-4.142,0-7.5-3.358-7.5-7.5c0-3.942-3.207-7.148-7.148-7.148
		s-7.148,3.207-7.148,7.148c0,4.142-3.357,7.5-7.5,7.5s-7.5-3.358-7.5-7.5c0-12.213,9.936-22.148,22.148-22.148
		c12.213,0,22.148,9.936,22.148,22.148C360.378,174.139,357.021,177.497,352.878,177.497z"/>
</g>
<path style="opacity:0.1;fill:#513130;enable-background:new    ;" d="M280.032,303.858c-89.561,0-162.165-72.604-162.165-162.165
	c0-43.774,17.351-83.49,45.542-112.666c-42.051,29.299-69.574,78-69.574,133.137c0,89.561,72.604,162.165,162.165,162.165
	c45.787,0,87.135-18.982,116.623-49.499C346.369,293.123,314.457,303.858,280.032,303.858z"/>
<path style="fill:#FFD4B8;" d="M294.021,487.546c-30.166,0.001-54.796-7.744-73.575-23.193
	c-23.543-19.368-36.394-51.024-35.257-86.85c0.344-10.851,9.414-19.372,20.271-19.023c10.85,0.345,19.367,9.42,19.022,20.27
	c-1.062,33.44,14.29,49.773,20.939,55.244c18.596,15.299,50.619,18.29,92.604,8.65c10.572-2.428,21.127,4.178,23.557,14.758
	c2.429,10.581-4.178,21.128-14.759,23.557C327.693,485.352,310.071,487.545,294.021,487.546z"/>
<path style="fill:#9B7E73;" d="M256,0c156.685,0,173.292,127.995,162.165,162.165c-20.119-7.885-196.558-65.254-206.309-100.91
	c-26.208,40.227-89.422,101.123-118.02,100.91l0,0C85.121,72.226,149.114,0,256,0z"/>
<path style="opacity:0.1;fill:#743631;enable-background:new    ;" d="M93.835,162.165c6.606,0.049,15.062-3.168,24.479-8.632
	c-5.976-67.7,29.327-125.144,93.118-148.944C131.76,21.797,86.412,85.548,93.835,162.165z"/>
<g>
</g>
<g>
</g>
<g>
</g>
<g>
</g>
<g>
</g>
<g>
</g>
<g>
</g>
<g>
</g>
<g>
</g>
<g>
</g>
<g>
</g>
<g>
</g>
<g>
</g>
<g>
</g>
<g>
</g>
</svg>
