<svg id="Capa_1" enable-background="new 0 0 512 512" height="512" viewBox="0 0 512 512" width="512" xmlns="http://www.w3.org/2000/svg"><g><path d="m189.055 268.132c-11.658 0-21.108-9.45-21.108-21.108 0-48.119-18.64-79.943-34.278-98.166-18.285-21.308-40.619-33.554-54.643-36.238-11.449-2.191-18.955-13.25-16.764-24.699s13.248-18.957 24.701-16.764c20.626 3.948 52.144 19.211 78.744 50.209 20.28 23.635 44.456 64.62 44.456 125.658 0 11.658-9.45 21.108-21.108 21.108z" fill="#f6ee86"/><path d="m35.473 186.22c-47.297-47.298-47.297-124.258 0-171.557 19.545-19.549 51.241-19.55 70.79-.001 19.547 19.547 19.547 51.241 0 70.789-8.265 8.266-8.265 21.714 0 29.979 19.547 19.548 19.547 51.242 0 70.79-19.55 19.548-51.24 19.548-70.79 0z" fill="#e0b799"/><path d="m115.195 174.107c-65.742-8.532-105.522-89.525-98.137-135.806-27.765 46.567-21.63 107.873 18.415 147.919 19.55 19.548 51.24 19.548 70.79 0 3.664-3.664 6.641-7.755 8.932-12.113z" fill="#d1986f"/><path d="m322.945 268.132c11.658 0 21.108-9.45 21.108-21.108 0-48.119 18.64-79.943 34.278-98.166 18.285-21.308 40.619-33.554 54.643-36.238 11.449-2.191 18.955-13.25 16.764-24.699s-13.248-18.957-24.701-16.764c-20.626 3.948-52.143 19.211-78.744 50.209-20.28 23.635-44.456 64.62-44.456 125.658 0 11.658 9.45 21.108 21.108 21.108z" fill="#f6ee86"/><path d="m476.527 186.22c47.297-47.298 47.297-124.258 0-171.557-19.545-19.549-51.241-19.55-70.79-.001-19.547 19.547-19.547 51.241 0 70.789 8.265 8.266 8.265 21.714 0 29.979-19.547 19.548-19.547 51.242 0 70.79 19.55 19.548 51.24 19.548 70.79 0z" fill="#e0b799"/><path d="m405.737 186.22c19.55 19.548 51.24 19.548 70.79 0 6.451-6.451 12.015-13.457 16.706-20.861-51.118-19.037-91.111-98.698-87.996-150.172-19.035 19.585-18.876 50.888.499 70.264 8.265 8.266 8.265 21.714 0 29.979-19.546 19.548-19.546 51.242.001 70.79z" fill="#d1986f"/><path d="m318.175 399.61c0-31.445-27.837-55.478-62.175-53.679-34.338 1.8-62.175 28.75-62.175 60.196 0 20.737 12.111 38.241 30.205 47.245 7.741 3.852 12.625 11.764 12.625 20.411v30.413c0 4.31 3.494 7.803 7.803 7.803h23.083c4.31 0 7.803-3.494 7.803-7.803v-33.698c0-8.247 4.502-15.758 11.637-19.894 18.642-10.804 31.194-29.882 31.194-50.994z" fill="#e9b55f"/><path d="m189.055 268.132c11.658 0 21.108-9.45 21.108-21.108 0-25.258-4.147-47.073-10.438-65.655-14.579 3.086-27.871 9.211-38.64 17.811 4.179 13.706 6.862 29.601 6.862 47.845 0 11.657 9.45 21.107 21.108 21.107z" fill="#eed076"/><path d="m344.053 247.024c0-18.243 2.683-34.139 6.862-47.844-10.769-8.6-24.061-14.725-38.64-17.811-6.291 18.582-10.438 40.397-10.438 65.655 0 11.658 9.45 21.108 21.108 21.108s21.108-9.45 21.108-21.108z" fill="#eed076"/><path d="m256 345.931c-24.136 1.265-45.044 14.964-55.347 33.907 16.733 8.401 35.278 12.667 55.347 12.667 21.013 0 40.363-4.659 57.703-13.863-9.185-20.46-31.551-34.081-57.703-32.711z" fill="#ea9b32"/><path d="m256 368.382c88.474 0 119.34-102.002 88.539-141.63-20.459-26.323-65.728-29.683-88.539-14.516-22.812-15.166-68.08-11.807-88.54 14.516-30.799 39.628.066 141.63 88.54 141.63z" fill="#eda1ab"/><g><g fill="#fff"><ellipse cx="191.415" cy="298.246" rx="23.831" ry="18.977"/><ellipse cx="320.585" cy="298.358" rx="23.831" ry="18.977"/></g><g fill="#4e5660"><path d="m205.32 287.369c-.002 0-.003 0-.006 0-4.142-.003-7.497-3.363-7.494-7.505l.007-9.512c.003-4.14 3.36-7.495 7.5-7.495h.006c4.142.003 7.497 3.363 7.494 7.505l-.007 9.512c-.003 4.141-3.36 7.495-7.5 7.495z"/><path d="m306.713 287.468c-.002 0-.003 0-.006 0-4.142-.003-7.497-3.363-7.494-7.505l.007-9.512c.003-4.14 3.36-7.495 7.5-7.495h.006c4.142.003 7.497 3.363 7.494 7.505l-.007 9.512c-.003 4.141-3.36 7.495-7.5 7.495z"/><path d="m269.378 291.653c-.002 0-.004 0-.007 0l-26.732-.023c-4.142-.003-7.497-3.364-7.493-7.506.004-4.14 3.36-7.494 7.5-7.494h.007l26.732.023c4.142.003 7.497 3.364 7.493 7.506-.004 4.14-3.36 7.494-7.5 7.494z"/></g></g><g fill="#e16e7e"><path d="m156.366 410.834c-1.919 0-3.839-.732-5.304-2.197l-20.344-20.344c-2.929-2.929-2.929-7.678 0-10.607 2.93-2.929 7.678-2.929 10.607 0l20.344 20.344c2.929 2.929 2.929 7.678 0 10.606-1.464 1.466-3.384 2.198-5.303 2.198z"/><path d="m153.953 487.436c-1.919 0-3.839-.732-5.304-2.197-2.929-2.929-2.929-7.677 0-10.607l17.709-17.709c2.93-2.929 7.678-2.929 10.607 0s2.929 7.677 0 10.606l-17.709 17.71c-1.464 1.465-3.384 2.197-5.303 2.197z"/><path d="m355.634 410.834c-1.919 0-3.839-.732-5.304-2.197-2.929-2.929-2.929-7.678 0-10.606l20.344-20.344c2.93-2.929 7.678-2.929 10.607 0s2.929 7.678 0 10.607l-20.344 20.344c-1.464 1.464-3.384 2.196-5.303 2.196z"/><path d="m358.047 487.436c-1.92 0-3.839-.732-5.304-2.197l-17.709-17.71c-2.929-2.929-2.929-7.678 0-10.606 2.931-2.93 7.679-2.929 10.607 0l17.709 17.709c2.929 2.929 2.929 7.678 0 10.607-1.464 1.465-3.384 2.197-5.303 2.197z"/></g></g></svg>