<svg id="Capa_1" enable-background="new 0 0 497 497" height="512" viewBox="0 0 497 497" width="512" xmlns="http://www.w3.org/2000/svg"><g><path d="m33.189 215.311c0-57.512 22.396-111.581 63.064-152.248 40.666-40.667 94.735-63.063 152.247-63.063h129.812c20.847 0 37.747 16.9 37.747 37.747v4.569c0 10.041-3.928 19.16-10.323 25.922 37.498 40.024 58.074 91.964 58.074 147.073z" fill="#ed9b83"/><path d="m288.5 0h-40c-57.512 0-111.581 22.396-152.248 63.063s-63.063 94.737-63.063 152.248h40c0-57.511 22.396-111.581 63.064-152.248 40.666-40.667 94.735-63.063 152.247-63.063z" fill="#e7886e"/><circle cx="433.294" cy="215.311" fill="#ffcabd" r="43.47"/><path d="m173.342 497h149.511l51.844-51.06c-18.44-40.739-52.969-64.154-52.969-64.154h-147.26s-34.529 23.415-52.969 64.154z" fill="#8cd370"/><path d="m151.499 445.94c18.44-40.739 52.969-64.154 52.969-64.154h-30s-34.529 23.415-52.969 64.154z" fill="#6dc847"/><path d="m322.854 445.94v51.06h63.119c0-19.123-4.572-36.237-11.275-51.06z" fill="#ffdcce"/><path d="m110.224 497h63.119v-51.06h-51.844c-6.703 14.823-11.275 31.937-11.275 51.06z" fill="#ffdcce"/><path d="m121.499 445.94c-6.703 14.823-11.275 31.936-11.275 51.06h30c0-19.124 4.572-36.237 11.275-51.06z" fill="#ffcabd"/><circle cx="248.097" cy="397.244" fill="#ffcabd" r="42.889"/><path d="m405.721 124.118c-7.727-13.506-23.714-19.941-38.653-15.589-105.885 30.849-133.688-40.173-232.309-16.571-19.618 4.695-36.328 17.534-46.005 35.234-14.144 25.872-22.187 56.555-22.187 88.119 0 100.345 81.237 181.715 181.53 181.933 100.294-.217 181.53-81.588 181.53-181.933.001-32.822-8.697-64.609-23.906-91.193z" fill="#ffdcce"/><path d="m96.567 215.311c0-31.565 8.043-72.247 22.187-98.119 6.303-11.53 15.604-20.977 26.736-27.474-3.488.627-7.055 1.36-10.731 2.24-19.618 4.695-36.328 17.534-46.005 35.234-7.627 13.95-13.46 29.307-17.234 45.439-2.401-.512-4.996-.79-7.814-.79-24.008 0-43.47 19.462-43.47 43.47s19.462 43.47 43.47 43.47c2.853 0 5.479-.283 7.904-.808 19.17 79.769 90.88 139.084 176.487 139.27 5.052-.011 10.053-.238 15-.652-93.268-7.82-166.53-85.99-166.53-181.28z" fill="#ffcabd"/><g fill="#423e4f"><path d="m327.325 212.694c-4.143 0-7.5 3.358-7.5 7.5v15.147c0 4.142 3.357 7.5 7.5 7.5s7.5-3.358 7.5-7.5v-15.147c0-4.142-3.357-7.5-7.5-7.5z"/><path d="m179.972 197.354c-3.098 1.861-6.659 2.845-10.297 2.845s-7.199-.984-10.297-2.845c-3.551-2.132-8.158-.983-10.292 2.567-2.133 3.551-.983 8.158 2.567 10.291 3.937 2.365 8.297 3.909 12.819 4.586-1.414 1.364-2.297 3.275-2.297 5.395v15.147c0 4.142 3.357 7.5 7.5 7.5s7.5-3.358 7.5-7.5v-15.147c0-2.12-.883-4.031-2.297-5.395 4.521-.677 8.881-2.221 12.819-4.586 3.551-2.133 4.7-6.74 2.567-10.291-2.134-3.55-6.742-4.699-10.292-2.567z"/><path d="m272.12 237.415c-14.918-6.099-34.524-6.135-44.08-6.135-.057 0-.114 0-.171 0h-.15c-4.143 0-7.5 3.358-7.5 7.5s3.357 7.5 7.5 7.5h.151c7.862.015 26.296 0 38.574 5.02.929.38 1.89.56 2.835.56 2.956 0 5.758-1.759 6.945-4.664 1.568-3.834-.27-8.213-4.104-9.781z"/></g><g fill="#ff748f"><circle cx="346.242" cy="158.686" r="18.585"/><circle cx="150.758" cy="158.686" r="18.585"/><circle cx="138.56" cy="274.256" r="18.585"/><circle cx="205.208" cy="323.072" r="18.585"/><circle cx="357.634" cy="274.256" r="18.585"/><circle cx="290.987" cy="323.072" r="18.585"/><circle cx="248.5" cy="173.128" r="18.585"/></g></g></svg>