<svg id="regular" enable-background="new 0 0 24 24" height="512" viewBox="0 0 24 24" width="512" xmlns="http://www.w3.org/2000/svg"><g><g><circle cx="9.5" cy="9.5" fill="#fafafa" r="8.75"/></g><g><path d="m13.25 7.5c0 1.3-.67 2.44-1.68 3.11-.54.36-.82.99-.82 1.64v1.42c0 .32-.26.58-.58.58h-1.34c-.32 0-.58-.25-.58-.74v-1.29c0-.64-.29-1.26-.82-1.61-1.21-.8-1.93-2.27-1.6-3.89.28-1.4 1.39-2.55 2.78-2.87 2.46-.56 4.64 1.29 4.64 3.65z" fill="#ffc107"/></g><g><path d="m9.5 19c-5.238 0-9.5-4.262-9.5-9.5s4.262-9.5 9.5-9.5 9.5 4.262 9.5 9.5-4.262 9.5-9.5 9.5zm0-17.5c-4.411 0-8 3.589-8 8s3.589 8 8 8 8-3.589 8-8-3.589-8-8-8z"/></g><g><path d="m23.25 24c-.192 0-.384-.073-.53-.22l-7.56-7.56c-.293-.293-.293-.768 0-1.061s.768-.293 1.061 0l7.56 7.56c.293.293.293.768 0 1.061-.147.147-.339.22-.531.22z"/></g><g><path d="m10.173 15h-1.346c-.66 0-1.327-.513-1.327-1.491v-1.285c0-.411-.186-.79-.485-.988-1.535-1.016-2.289-2.848-1.92-4.668.34-1.678 1.684-3.063 3.344-3.444 1.373-.318 2.78-.005 3.861.854 1.08.859 1.7 2.143 1.7 3.522 0 1.507-.755 2.904-2.019 3.738-.297.195-.481.583-.481 1.01v1.425c0 .731-.595 1.327-1.327 1.327zm-1.173-1.5h1v-1.252c0-.939.432-1.784 1.155-2.262.842-.555 1.345-1.485 1.345-2.486 0-.92-.413-1.775-1.134-2.349s-1.665-.779-2.59-.567c-1.097.253-1.986 1.17-2.212 2.282-.25 1.236.239 2.431 1.278 3.119.725.48 1.158 1.317 1.158 2.239z"/></g></g></svg>