<svg id="Capa_1" enable-background="new 0 0 497.225 497.225" height="512" viewBox="0 0 497.225 497.225" width="512" xmlns="http://www.w3.org/2000/svg"><g><path d="m75.112 233.612h347v30h-347z" fill="#ffb5c0"/><g><path d="m395.259 112.276-.205.055c-28.623 7.651-59.193 2.486-83.62-14.281-5.177-3.553-10.678-6.662-16.436-9.31-13.681-6.291-28.85-9.9-44.843-10.117-24.125-.327-46.502 6.949-64.855 19.624-24.261 16.755-54.791 21.676-83.271 14.044l-.057-.015c-69.858-18.719-126.683 56.743-90.986 118.574 7.502 12.994 18.207 23.42 31.041 30.451l.618 6.111c2.198 21.716 26.112 33.786 44.836 22.976 9.911-5.723 16.086-16.892 14.859-29.018l-2.454-24.25c-1.259-12.44-10.12-22.732-22.193-25.986-6.036-1.627-10.939-4.082-14.436-9.764-9.951-16.17 5.022-36.004 23.185-31.139l51.134 13.701c-.068 1.32-.122 2.644-.144 3.977-.357 21.374 5.317 41.397 15.433 58.479 17.028 28.755 23.684 62.492 19.521 95.65-2.122 16.903-3.562 34.721-4.225 53.189-.458 12.765 9.712 23.385 22.485 23.385h70.097 45.84c12.766 0 22.945-10.611 22.487-23.369-.645-17.966-2.024-35.316-4.052-51.808-4.143-33.695 2.258-68.027 19.485-97.28 9.73-16.523 15.312-35.781 15.312-56.343 0-1.973-.054-3.933-.155-5.881l51.129-13.7c25.573-6.85 39.588 32.66 8.653 40.928-12.044 3.221-20.841 13.556-22.097 25.96l-2.454 24.25c-1.227 12.125 4.948 23.294 14.859 29.018 18.755 10.829 42.641-1.288 44.836-22.976l.618-6.111c12.833-7.031 23.538-17.457 31.041-30.451 35.672-61.789-21.086-137.304-90.986-118.573z" fill="#ffb5c0"/><path d="m245.865 246.388c-10.116-17.083-15.791-37.105-15.433-58.479.74-44.302 26.968-81.903 64.566-99.169-13.681-6.291-28.85-9.9-44.843-10.117-24.125-.327-46.502 6.949-64.855 19.624-24.261 16.755-54.791 21.676-83.271 14.044l-.057-.015c-69.858-18.719-126.683 56.743-90.986 118.574 7.502 12.994 18.207 23.42 31.041 30.451l.618 6.111c2.198 21.716 26.112 33.786 44.836 22.976 9.911-5.723 16.086-16.892 14.859-29.018l-2.454-24.25c-1.259-12.44-10.12-22.732-22.193-25.986-6.036-1.627-10.939-4.082-14.436-9.764-9.951-16.17 5.022-36.004 23.185-31.139l51.134 13.701c-.068 1.32-.122 2.644-.144 3.977-.357 21.374 5.317 41.397 15.433 58.479 17.028 28.755 23.684 62.492 19.521 95.65-2.122 16.903-3.562 34.721-4.225 53.189-.458 12.765 9.712 23.385 22.485 23.385h70.097c0-26.858 1.637-52.633 4.643-76.573 4.163-33.159-2.493-66.895-19.521-95.651z" fill="#ff8e9e"/></g><g><g><g><ellipse cx="180.007" cy="199.472" fill="#f4698b" rx="29.355" ry="23.377"/></g><g><ellipse cx="317.12" cy="199.472" fill="#ff8e9e" rx="29.355" ry="23.377"/></g></g></g><g fill="#313d40"><path d="m197.115 157.469c-4.143 0-7.5 3.357-7.5 7.5v12c0 4.143 3.357 7.5 7.5 7.5s7.5-3.357 7.5-7.5v-12c0-4.143-3.357-7.5-7.5-7.5z"/><path d="m300.013 157.469c-4.143 0-7.5 3.357-7.5 7.5v12c0 4.143 3.357 7.5 7.5 7.5s7.5-3.357 7.5-7.5v-12c0-4.143-3.358-7.5-7.5-7.5z"/><path d="m269.954 170.957c-3.122-2.722-7.861-2.397-10.581.728-2.729 3.132-6.669 4.928-10.81 4.928s-8.08-1.796-10.81-4.928c-2.721-3.124-7.459-3.448-10.581-.728-3.123 2.721-3.449 7.459-.728 10.581 5.578 6.402 13.641 10.074 22.118 10.074 8.478 0 16.54-3.672 22.118-10.074 2.723-3.122 2.397-7.86-.726-10.581z"/></g></g></svg>